{
.appVersion = "1352";
DisplayStrings = (
"/nbspace",
abcdefghijklmnopqrstuvwxyz,
ABCDEFGHIJKLMNOPQRSTUVWXYZ
);
copyright = "Copyright 2012-2021 The Gwendolyn Project Authors (https://github.com/googlefonts/gwendolyn)";
customParameters = (
{
name = panose;
value = (
2,
0,
5,
5,
2,
0,
0,
2,
0,
3
);
},
{
name = blueScale;
value = 0.02614;
},
{
name = licenseURL;
value = "https://scripts.sil.org/OFL";
},
{
name = license;
value = "This Font Software is licensed under the SIL Open Font License, Version 1.1. This license is available with a FAQ at: https://scripts.sil.org/OFL";
},
{
name = vendorID;
value = GOOG;
},
{
name = "Disable Subroutines";
value = 1;
},
{
name = glyphOrder;
value = (
.notdef,
CR,
.null,
space,
nbspace
);
},
{
name = fsType;
value = (
);
},
{
name = "Use Typo Metrics";
value = 1;
}
);
date = "2021-11-02 14:57:12 +0000";
designer = "Robert E. Leuschke";
designerURL = www.typesetit.com;
disablesNiceNames = 1;
familyName = Licorice;
featurePrefixes = (
{
automatic = 1;
code = "languagesystem DFLT dflt;\012\012languagesystem latn dflt;\012languagesystem latn AZE;\012languagesystem latn CRT;\012languagesystem latn KAZ;\012languagesystem latn TAT;\012languagesystem latn TRK;\012languagesystem latn ROM;\012languagesystem latn MOL;\012languagesystem latn CAT;\012";
name = Languagesystems;
}
);
features = (
{
automatic = 1;
code = "feature locl;\012feature sups;\012feature frac;\012feature ordn;\012";
name = aalt;
},
{
automatic = 1;

glyphs = (
{
glyphname = .notdef;
lastChange = "2021-11-02 15:04:40 +0000";
layers = (
{
layerId = "747EDECB-6CB4-4831-9662-77535A1F4B33";
paths = (
{
closed = 1;
nodes = (
"50 0 LINE",
"451 0 LINE",
"451 644 LINE",
"50 644 LINE"
);
},
{
closed = 1;
nodes = (
"252 266 LINE",
"353 62 LINE",
"148 62 LINE"
);
},
{
closed = 1;
nodes = (
"117 539 LINE",
"227 322 LINE",
"117 102 LINE"
);
},
{
closed = 1;
nodes = (
"279 319 LINE",
"383 539 LINE",
"383 102 LINE"
);
},
{
closed = 1;
nodes = (
"148 582 LINE",
"356 582 LINE",
"252 374 LINE"
);
}
);
width = 501;
}
);
note = .notdef;
},
{
glyphname = A;
lastChange = "2021-11-02 15:04:40 +0000";
layers = (
{
layerId = "747EDECB-6CB4-4831-9662-77535A1F4B33";
paths = (
{
closed = 1;
nodes = (
"253 -147 OFFCURVE",
"441 71 OFFCURVE",
"513 205 CURVE SMOOTH",
"542 259 LINE",
"604 268 OFFCURVE",
"666 277 OFFCURVE",
"728 283 CURVE",
"723 223 OFFCURVE",
"718 162 OFFCURVE",
"718 102 CURVE SMOOTH",
"718 51 OFFCURVE",
"722 -42 OFFCURVE",
"793 -42 CURVE SMOOTH",
"818 -42 OFFCURVE",
"876 13 OFFCURVE",
"876 37 CURVE SMOOTH",
"876 39 OFFCURVE",
"875 42 OFFCURVE",
"872 42 CURVE SMOOTH",
"864 42 OFFCURVE",
"837 -17 OFFCURVE",
"798 -17 CURVE SMOOTH",
"744 -17 OFFCURVE",
"743 60 OFFCURVE",
"743 98 CURVE SMOOTH",
"743 161 OFFCURVE",
"750 223 OFFCURVE",
"757 285 CURVE",
"772 286 OFFCURVE",
"861 287 OFFCURVE",
"861 304 CURVE SMOOTH",
"861 311 OFFCURVE",
"852 311 OFFCURVE",
"847 311 CURVE SMOOTH",
"819 311 OFFCURVE",
"789 308 OFFCURVE",
"760 306 CURVE",
"772 397 OFFCURVE",
"788 487 OFFCURVE",
"803 577 CURVE SMOOTH",
"810 619 OFFCURVE",
"824 664 OFFCURVE",
"824 706 CURVE SMOOTH",
"824 726 OFFCURVE",
"814 733 OFFCURVE",
"794 733 CURVE SMOOTH",
"779 733 OFFCURVE",
"761 725 OFFCURVE",
"761 707 CURVE SMOOTH",
"761 691 OFFCURVE",
"766 674 OFFCURVE",
"766 657 CURVE SMOOTH",
"766 545 OFFCURVE",
"740 418 OFFCURVE",
"730 305 CURVE",
"675 303 OFFCURVE",
"620 301 OFFCURVE",
"565 298 CURVE",
"593 349 OFFCURVE",
"748 633 OFFCURVE",
"748 677 CURVE SMOOTH",
"748 678 OFFCURVE",
"746 681 OFFCURVE",
"744 682 CURVE",
"735 681 OFFCURVE",
"730 672 OFFCURVE",
"727 665 CURVE SMOOTH",
"711 630 OFFCURVE",
"698 594 OFFCURVE",
"681 559 CURVE SMOOTH",
"637 470 OFFCURVE",
"586 384 OFFCURVE",
"537 297 CURVE",
"501 295 OFFCURVE",
"391 298 OFFCURVE",
"391 247 CURVE SMOOTH",
"391 234 OFFCURVE",
"392 226 OFFCURVE",
"405 226 CURVE SMOOTH",
"411 226 OFFCURVE",
"416 231 OFFCURVE",
"422 233 CURVE SMOOTH",
"452 244 OFFCURVE",
"483 250 OFFCURVE",
"514 255 CURVE",
"427 103 OFFCURVE",
"268 -125 OFFCURVE",
"70 -125 CURVE SMOOTH",
"-23 -125 OFFCURVE",
"-52 -53 OFFCURVE",
"-52 29 CURVE SMOOTH",
"-52 185 OFFCURVE",
"62 498 OFFCURVE",
"257 498 CURVE SMOOTH",
"312 498 OFFCURVE",
"323 429 OFFCURVE",
"323 387 CURVE SMOOTH",
"323 326 OFFCURVE",
"306 269 OFFCURVE",
"268 221 CURVE SMOOTH",
"265 218 OFFCURVE",
"261 211 OFFCURVE",
"261 206 CURVE SMOOTH",
"261 203 OFFCURVE",
"262 200 OFFCURVE",
"266 200 CURVE SMOOTH",
"270 200 OFFCURVE",
"273 203 OFFCURVE",
"276 205 CURVE",
"321 249 OFFCURVE",
"349 352 OFFCURVE",
"349 413 CURVE SMOOTH",
"349 475 OFFCURVE",
"325 531 OFFCURVE",
"254 531 CURVE SMOOTH",
"47 531 OFFCURVE",
"-79 212 OFFCURVE",
"-79 43 CURVE SMOOTH",
"-79 -67 OFFCURVE",
"-32 -147 OFFCURVE",
"87 -147 CURVE SMOOTH"
);
}
);
width = 862;
}
);
note = A;
unicode = 0041;
},
{
glyphname = AE;
lastChange = "2021-11-02 15:04:42 +0000";
layers = (
{
layerId = "747EDECB-6CB4-4831-9662-77535A1F4B33";
paths = (
{
closed = 1;
nodes = (
"253 -147 OFFCURVE",
"441 71 OFFCURVE",
"513 205 CURVE SMOOTH",
"542 259 LINE",
"593 267 OFFCURVE",
"645 274 OFFCURVE",
"697 280 CURVE",
"708 279 OFFCURVE",
"716 279 OFFCURVE",
"716 270 CURVE SMOOTH",
"716 265 OFFCURVE",
"714 258 OFFCURVE",
"710 248 CURVE",
"704 211 OFFCURVE",
"701 174 OFFCURVE",
"701 137 CURVE SMOOTH",
"701 39 OFFCURVE",
"776 -56 OFFCURVE",
"879 -56 CURVE SMOOTH",
"998 -56 OFFCURVE",
"1190 48 OFFCURVE",
"1253 150 CURVE SMOOTH",
"1255 153 OFFCURVE",
"1258 159 OFFCURVE",
"1258 164 CURVE SMOOTH",
"1258 166 OFFCURVE",
"1257 170 OFFCURVE",
"1253 170 CURVE SMOOTH",
"1249 170 OFFCURVE",
"1245 165 OFFCURVE",
"1243 162 CURVE SMOOTH",
"1168 64 OFFCURVE",
"1003 -26 OFFCURVE",
"879 -26 CURVE SMOOTH",
"793 -26 OFFCURVE",
"737 57 OFFCURVE",
"737 137 CURVE SMOOTH",
"737 164 OFFCURVE",
"739 192 OFFCURVE",
"743 219 CURVE",
"749 241 OFFCURVE",
"754 263 OFFCURVE",
"757 285 CURVE",
"772 286 OFFCURVE",
"861 287 OFFCURVE",
"861 304 CURVE SMOOTH",
"861 311 OFFCURVE",
"852 311 OFFCURVE",
"847 311 CURVE SMOOTH",
"826 311 OFFCURVE",
"805 309 OFFCURVE",
"784 308 CURVE",
"888 370 OFFCURVE",
"1083 432 OFFCURVE",
"1188 432 CURVE SMOOTH",
"1217 432 OFFCURVE",
"1244 416 OFFCURVE",
"1263 416 CURVE SMOOTH",
"1266 416 OFFCURVE",
"1274 417 OFFCURVE",
"1274 423 CURVE SMOOTH",
"1274 443 OFFCURVE",
"1177 450 OFFCURVE",
"1163 450 CURVE SMOOTH",
"1035 450 OFFCURVE",
"881 400 OFFCURVE",
"771 336 CURVE",
"832 506 OFFCURVE",
"986 672 OFFCURVE",
"1179 672 CURVE SMOOTH",
"1206 672 OFFCURVE",
"1270 666 OFFCURVE",
"1270 629 CURVE SMOOTH",
"1270 573 OFFCURVE",
"1245 545 OFFCURVE",
"1245 531 CURVE SMOOTH",
"1245 527 OFFCURVE",
"1246 517 OFFCURVE",
"1252 517 CURVE SMOOTH",
"1278 517 OFFCURVE",
"1290 609 OFFCURVE",
"1290 625 CURVE SMOOTH",
"1290 678 OFFCURVE",
"1223 702 OFFCURVE",
"1179 702 CURVE SMOOTH",
"1008 702 OFFCURVE",
"864 590 OFFCURVE",
"781 446 CURVE",
"803 577 LINE SMOOTH",
"810 619 OFFCURVE",
"824 664 OFFCURVE",
"824 706 CURVE SMOOTH",
"824 726 OFFCURVE",
"814 733 OFFCURVE",
"794 733 CURVE SMOOTH",
"779 733 OFFCURVE",
"761 725 OFFCURVE",
"761 707 CURVE SMOOTH",
"761 691 OFFCURVE",
"766 674 OFFCURVE",
"766 657 CURVE SMOOTH",
"766 552 OFFCURVE",
"750 407 OFFCURVE",
"723 305 CURVE",
"670 303 OFFCURVE",
"618 301 OFFCURVE",
"565 298 CURVE",
"593 349 OFFCURVE",
"748 633 OFFCURVE",
"748 677 CURVE SMOOTH",
"748 678 OFFCURVE",
"746 681 OFFCURVE",
"744 682 CURVE",
"735 681 OFFCURVE",
"730 672 OFFCURVE",
"727 665 CURVE SMOOTH",
"711 630 OFFCURVE",
"698 594 OFFCURVE",
"681 559 CURVE SMOOTH",
"637 470 OFFCURVE",
"586 384 OFFCURVE",
"537 297 CURVE",
"501 295 OFFCURVE",
"391 298 OFFCURVE",
"391 247 CURVE SMOOTH",
"391 234 OFFCURVE",
"392 226 OFFCURVE",
"405 226 CURVE SMOOTH",
"411 226 OFFCURVE",
"416 231 OFFCURVE",
"422 233 CURVE SMOOTH",
"452 244 OFFCURVE",
"483 250 OFFCURVE",
"514 255 CURVE",
"427 103 OFFCURVE",
"268 -125 OFFCURVE",
"70 -125 CURVE SMOOTH",
"-23 -125 OFFCURVE",
"-52 -53 OFFCURVE",
"-52 29 CURVE SMOOTH",
"-52 185 OFFCURVE",
"62 498 OFFCURVE",
"257 498 CURVE SMOOTH",
"312 498 OFFCURVE",
"323 429 OFFCURVE",
"323 387 CURVE SMOOTH",
"323 326 OFFCURVE",
"306 269 OFFCURVE",
"268 221 CURVE SMOOTH",
"265 218 OFFCURVE",
"261 211 OFFCURVE",
"261 206 CURVE SMOOTH",
"261 203 OFFCURVE",
"262 200 OFFCURVE",
"266 200 CURVE SMOOTH",
"270 200 OFFCURVE",
"273 203 OFFCURVE",
"276 205 CURVE",
"321 249 OFFCURVE",
"349 352 OFFCURVE",
"349 413 CURVE SMOOTH",
"349 475 OFFCURVE",
"325 531 OFFCURVE",
"254 531 CURVE SMOOTH",
"47 531 OFFCURVE",
"-79 212 OFFCURVE",
"-79 43 CURVE SMOOTH",
"-79 -67 OFFCURVE",
"-32 -147 OFFCURVE",
"87 -147 CURVE SMOOTH"
);
}
);
width = 1251;
}
);
note = AE;
unicode = 00C6;
},
{
glyphname = B;
lastChange = "2021-11-02 15:04:42 +0000";
layers = (
{
layerId = "747EDECB-6CB4-4831-9662-77535A1F4B33";
paths = (
{
closed = 1;
nodes = (
"368 -46 OFFCURVE",
"592 157 OFFCURVE",
"592 260 CURVE SMOOTH",
"592 307 OFFCURVE",
"559 341 OFFCURVE",
"519 360 CURVE",
"595 402 OFFCURVE",
"674 511 OFFCURVE",
"674 601 CURVE SMOOTH",
"674 694 OFFCURVE",
"595 725 OFFCURVE",
"513 725 CURVE SMOOTH",
"375 725 OFFCURVE",
"251 694 OFFCURVE",
"131 626 CURVE SMOOTH",
"92 604 OFFCURVE",
"-15 507 OFFCURVE",
"-15 461 CURVE SMOOTH",
"-15 452 OFFCURVE",
"-9 444 OFFCURVE",
"1 444 CURVE SMOOTH",
"14 444 OFFCURVE",
"17 452 OFFCURVE",
"17 463 CURVE SMOOTH",
"17 507 OFFCURVE",
"109 579 OFFCURVE",
"146 599 CURVE SMOOTH",
"263 664 OFFCURVE",
"367 696 OFFCURVE",
"502 696 CURVE SMOOTH",
"573 696 OFFCURVE",
"640 669 OFFCURVE",
"640 588 CURVE SMOOTH",
"640 510 OFFCURVE",
"565 405 OFFCURVE",
"500 367 CURVE",
"475 375 OFFCURVE",
"450 378 OFFCURVE",
"424 378 CURVE SMOOTH",
"368 378 OFFCURVE",
"224 346 OFFCURVE",
"224 274 CURVE SMOOTH",
"224 253 OFFCURVE",
"248 240 OFFCURVE",
"267 240 CURVE SMOOTH",
"317 240 OFFCURVE",
"456 318 OFFCURVE",
"499 346 CURVE",
"535 332 OFFCURVE",
"567 303 OFFCURVE",
"567 262 CURVE SMOOTH",
"567 174 OFFCURVE",
"379 -13 OFFCURVE",
"293 -13 CURVE SMOOTH",
"284 -13 OFFCURVE",
"273 -11 OFFCURVE",
"273 0 CURVE SMOOTH",
"273 63 OFFCURVE",
"427 137 OFFCURVE",
"475 154 CURVE SMOOTH",
"478 155 OFFCURVE",
"481 157 OFFCURVE",
"483 159 CURVE",
"482 164 OFFCURVE",
"475 164 OFFCURVE",
"470 164 CURVE SMOOTH",
"467 164 LINE SMOOTH",
"403 164 OFFCURVE",
"233 69 OFFCURVE",
"233 -11 CURVE SMOOTH",
"233 -33 OFFCURVE",
"247 -46 OFFCURVE",
"268 -46 CURVE SMOOTH"
);
},
{
closed = 1;
nodes = (
"233 27 OFFCURVE",
"236 30 OFFCURVE",
"236 34 CURVE SMOOTH",
"236 43 OFFCURVE",
"226 46 OFFCURVE",
"219 48 CURVE SMOOTH",
"176 62 OFFCURVE",
"176 108 OFFCURVE",
"176 147 CURVE SMOOTH",
"176 277 OFFCURVE",
"221 415 OFFCURVE",
"286 527 CURVE SMOOTH",
"300 552 OFFCURVE",
"319 573 OFFCURVE",
"333 597 CURVE",
"336 604 LINE",
"335 615 OFFCURVE",
"321 619 OFFCURVE",
"313 619 CURVE SMOOTH",
"305 619 OFFCURVE",
"299 616 OFFCURVE",
"294 611 CURVE SMOOTH",
"202 510 OFFCURVE",
"149 268 OFFCURVE",
"149 136 CURVE SMOOTH",
"149 82 OFFCURVE",
"165 27 OFFCURVE",
"230 27 CURVE SMOOTH"
);
},
{
closed = 1;
nodes = (
"269 261 OFFCURVE",
"259 265 OFFCURVE",
"259 274 CURVE SMOOTH",
"259 313 OFFCURVE",
"394 358 OFFCURVE",
"431 358 CURVE SMOOTH",
"447 358 OFFCURVE",
"463 356 OFFCURVE",
"478 352 CURVE",
"440 327 OFFCURVE",
"321 261 OFFCURVE",
"277 261 CURVE SMOOTH"
);
}
);
width = 663;
}
);
note = B;
unicode = 0042;
},
{
glyphname = C;
lastChange = "2021-11-02 15:04:40 +0000";
layers = (
{
layerId = "747EDECB-6CB4-4831-9662-77535A1F4B33";
paths = (
{
closed = 1;
nodes = (
"387 -55 OFFCURVE",
"571 195 OFFCURVE",
"614 327 CURVE SMOOTH",
"615 329 OFFCURVE",
"616 335 OFFCURVE",
"616 337 CURVE SMOOTH",
"616 340 OFFCURVE",
"615 344 OFFCURVE",
"614 347 CURVE",
"609 347 OFFCURVE",
"604 340 OFFCURVE",
"602 336 CURVE SMOOTH",
"586 305 OFFCURVE",
"573 274 OFFCURVE",
"555 243 CURVE SMOOTH",
"497 147 OFFCURVE",
"367 -23 OFFCURVE",
"244 -25 CURVE SMOOTH",
"234 -25 LINE SMOOTH",
"101 -28 OFFCURVE",
"57 78 OFFCURVE",
"57 195 CURVE SMOOTH",
"57 260 OFFCURVE",
"72 324 OFFCURVE",
"97 384 CURVE SMOOTH",
"143 496 OFFCURVE",
"285 687 OFFCURVE",
"420 687 CURVE SMOOTH",
"474 687 OFFCURVE",
"510 647 OFFCURVE",
"510 594 CURVE SMOOTH",
"510 504 OFFCURVE",
"424 358 OFFCURVE",
"323 358 CURVE SMOOTH",
"295 358 OFFCURVE",
"280 377 OFFCURVE",
"280 404 CURVE SMOOTH",
"280 438 OFFCURVE",
"304 467 OFFCURVE",
"304 496 CURVE SMOOTH",
"304 500 OFFCURVE",
"303 506 OFFCURVE",
"298 506 CURVE SMOOTH",
"278 506 OFFCURVE",
"259 420 OFFCURVE",
"259 401 CURVE SMOOTH",
"259 364 OFFCURVE",
"279 341 OFFCURVE",
"317 341 CURVE SMOOTH",
"434 341 OFFCURVE",
"535 493 OFFCURVE",
"535 600 CURVE SMOOTH",
"535 668 OFFCURVE",
"493 717 OFFCURVE",
"423 717 CURVE SMOOTH",
"276 717 OFFCURVE",
"122 517 OFFCURVE",
"71 397 CURVE SMOOTH",
"43 333 OFFCURVE",
"27 264 OFFCURVE",
"27 195 CURVE SMOOTH",
"27 58 OFFCURVE",
"80 -55 OFFCURVE",
"233 -55 CURVE SMOOTH"
);
}
);
width = 595;
}
);
note = C;
unicode = 0043;
},
{
glyphname = D;
lastChange = "2021-11-02 15:04:40 +0000";
layers = (
{
layerId = "747EDECB-6CB4-4831-9662-77535A1F4B33";
paths = (
{
closed = 1;
nodes = (
"344 -35 OFFCURVE",
"630 210 OFFCURVE",
"630 465 CURVE SMOOTH",
"630 646 OFFCURVE",
"509 693 OFFCURVE",
"348 693 CURVE SMOOTH",
"230 693 OFFCURVE",
"-20 642 OFFCURVE",
"-20 487 CURVE SMOOTH",
"-20 447 OFFCURVE",
"1 420 OFFCURVE",
"42 420 CURVE SMOOTH",
"49 420 OFFCURVE",
"58 423 OFFCURVE",
"62 428 CURVE",
"62 433 OFFCURVE",
"53 433 OFFCURVE",
"50 434 CURVE SMOOTH",
"23 441 OFFCURVE",
"5 453 OFFCURVE",
"5 484 CURVE SMOOTH",
"5 616 OFFCURVE",
"240 663 OFFCURVE",
"340 663 CURVE SMOOTH",
"477 663 OFFCURVE",
"590 613 OFFCURVE",
"590 460 CURVE SMOOTH",
"590 227 OFFCURVE",
"334 -15 OFFCURVE",
"103 -15 CURVE SMOOTH",
"74 -15 OFFCURVE",
"47 -3 OFFCURVE",
"21 -3 CURVE SMOOTH",
"15 -3 OFFCURVE",
"6 -6 OFFCURVE",
"6 -13 CURVE SMOOTH",
"6 -31 OFFCURVE",
"84 -35 OFFCURVE",
"98 -35 CURVE SMOOTH"
);
},
{
closed = 1;
nodes = (
"222 60 OFFCURVE",
"225 63 OFFCURVE",
"225 66 CURVE SMOOTH",
"225 74 OFFCURVE",
"215 77 OFFCURVE",
"209 79 CURVE SMOOTH",
"168 93 OFFCURVE",
"167 136 OFFCURVE",
"167 174 CURVE SMOOTH",
"167 298 OFFCURVE",
"209 429 OFFCURVE",
"272 536 CURVE SMOOTH",
"285 560 OFFCURVE",
"303 580 OFFCURVE",
"317 603 CURVE SMOOTH",
"320 609 LINE",
"318 620 OFFCURVE",
"306 623 OFFCURVE",
"297 623 CURVE SMOOTH",
"290 623 OFFCURVE",
"285 621 OFFCURVE",
"280 616 CURVE SMOOTH",
"192 520 OFFCURVE",
"142 289 OFFCURVE",
"142 163 CURVE SMOOTH",
"142 112 OFFCURVE",
"157 60 OFFCURVE",
"219 60 CURVE SMOOTH"
);
}
);
width = 626;
}
);
note = D;
unicode = 0044;
},
{
glyphname = Eth;
lastChange = "2021-11-02 15:04:42 +0000";
layers = (
{
layerId = "747EDECB-6CB4-4831-9662-77535A1F4B33";
paths = (
{
closed = 1;
nodes = (
"344 -35 OFFCURVE",
"630 210 OFFCURVE",
"630 465 CURVE SMOOTH",
"630 646 OFFCURVE",
"509 693 OFFCURVE",
"348 693 CURVE SMOOTH",
"230 693 OFFCURVE",
"-20 642 OFFCURVE",
"-20 487 CURVE SMOOTH",
"-20 447 OFFCURVE",
"1 420 OFFCURVE",
"42 420 CURVE SMOOTH",
"49 420 OFFCURVE",
"58 423 OFFCURVE",
"62 428 CURVE",
"62 433 OFFCURVE",
"53 433 OFFCURVE",
"50 434 CURVE SMOOTH",
"23 441 OFFCURVE",
"5 453 OFFCURVE",
"5 484 CURVE SMOOTH",
"5 616 OFFCURVE",
"240 663 OFFCURVE",
"340 663 CURVE SMOOTH",
"477 663 OFFCURVE",
"590 613 OFFCURVE",
"590 460 CURVE SMOOTH",
"590 227 OFFCURVE",
"334 -15 OFFCURVE",
"103 -15 CURVE SMOOTH",
"74 -15 OFFCURVE",
"47 -3 OFFCURVE",
"21 -3 CURVE SMOOTH",
"15 -3 OFFCURVE",
"6 -6 OFFCURVE",
"6 -13 CURVE SMOOTH",
"6 -31 OFFCURVE",
"84 -35 OFFCURVE",
"98 -35 CURVE SMOOTH"
);
},
{
closed = 1;
nodes = (
"222 60 OFFCURVE",
"225 63 OFFCURVE",
"225 66 CURVE SMOOTH",
"225 74 OFFCURVE",
"215 77 OFFCURVE",
"209 79 CURVE SMOOTH",
"168 93 OFFCURVE",
"167 136 OFFCURVE",
"167 174 CURVE SMOOTH",
"167 194 OFFCURVE",
"168 214 OFFCURVE",
"170 235 CURVE",
"201 239 OFFCURVE",
"234 242 OFFCURVE",
"265 242 CURVE SMOOTH",
"269 242 OFFCURVE",
"285 240 OFFCURVE",
"298 240 CURVE SMOOTH",
"311 240 OFFCURVE",
"322 242 OFFCURVE",
"322 247 CURVE SMOOTH",
"322 250 OFFCURVE",
"317 251 OFFCURVE",
"315 252 CURVE SMOOTH",
"282 263 OFFCURVE",
"245 266 OFFCURVE",
"210 266 CURVE SMOOTH",
"203 266 OFFCURVE",
"190 265 OFFCURVE",
"174 264 CURVE",
"188 359 OFFCURVE",
"224 454 OFFCURVE",
"272 536 CURVE SMOOTH",
"285 560 OFFCURVE",
"303 580 OFFCURVE",
"317 603 CURVE SMOOTH",
"320 609 LINE",
"318 620 OFFCURVE",
"306 623 OFFCURVE",
"297 623 CURVE SMOOTH",
"290 623 OFFCURVE",
"285 621 OFFCURVE",
"280 616 CURVE SMOOTH",
"211 541 OFFCURVE",
"166 386 OFFCURVE",
"149 261 CURVE",
"86 253 OFFCURVE",
"1 237 OFFCURVE",
"1 209 CURVE SMOOTH",
"1 200 OFFCURVE",
"9 189 OFFCURVE",
"19 189 CURVE SMOOTH",
"22 189 OFFCURVE",
"25 191 OFFCURVE",
"28 193 CURVE SMOOTH",
"48 208 OFFCURVE",
"71 216 OFFCURVE",
"95 221 CURVE SMOOTH",
"111 224 OFFCURVE",
"128 228 OFFCURVE",
"146 231 CURVE",
"143 206 OFFCURVE",
"142 183 OFFCURVE",
"142 163 CURVE SMOOTH",
"142 112 OFFCURVE",
"157 60 OFFCURVE",
"219 60 CURVE SMOOTH"
);
}
);
width = 626;
}
);
note = Eth;
unicode = 00D0;
},
{
glyphname = E;
lastChange = "2021-11-02 15:04:40 +0000";
layers = (
{
layerId = "747EDECB-6CB4-4831-9662-77535A1F4B33";
paths = (
{
closed = 1;
nodes = (
"286 -56 OFFCURVE",
"478 48 OFFCURVE",
"541 150 CURVE SMOOTH",
"543 153 OFFCURVE",
"546 159 OFFCURVE",
"546 164 CURVE SMOOTH",
"546 166 OFFCURVE",
"545 170 OFFCURVE",
"541 170 CURVE SMOOTH",
"537 170 OFFCURVE",
"533 165 OFFCURVE",
"531 162 CURVE SMOOTH",
"456 64 OFFCURVE",
"291 -26 OFFCURVE",
"167 -26 CURVE SMOOTH",
"81 -26 OFFCURVE",
"25 57 OFFCURVE",
"25 137 CURVE SMOOTH",
"25 189 OFFCURVE",
"31 240 OFFCURVE",
"45 290 CURVE",
"138 358 OFFCURVE",
"362 432 OFFCURVE",
"476 432 CURVE SMOOTH",
"505 432 OFFCURVE",
"532 416 OFFCURVE",
"551 416 CURVE SMOOTH",
"554 416 OFFCURVE",
"562 417 OFFCURVE",
"562 423 CURVE SMOOTH",
"562 443 OFFCURVE",
"465 450 OFFCURVE",
"451 450 CURVE SMOOTH",
"323 450 OFFCURVE",
"169 400 OFFCURVE",
"59 336 CURVE",
"120 506 OFFCURVE",
"274 672 OFFCURVE",
"467 672 CURVE SMOOTH",
"494 672 OFFCURVE",
"558 666 OFFCURVE",
"558 629 CURVE SMOOTH",
"558 573 OFFCURVE",
"533 545 OFFCURVE",
"533 531 CURVE SMOOTH",
"533 527 OFFCURVE",
"534 517 OFFCURVE",
"540 517 CURVE SMOOTH",
"566 517 OFFCURVE",
"578 609 OFFCURVE",
"578 625 CURVE SMOOTH",
"578 678 OFFCURVE",
"511 702 OFFCURVE",
"467 702 CURVE SMOOTH",
"242 702 OFFCURVE",
"63 508 OFFCURVE",
"10 302 CURVE",
"-6 289 OFFCURVE",
"-55 245 OFFCURVE",
"-55 223 CURVE SMOOTH",
"-55 213 OFFCURVE",
"-46 207 OFFCURVE",
"-37 207 CURVE SMOOTH",
"-24 207 OFFCURVE",
"-10 238 OFFCURVE",
"-2 248 CURVE",
"-8 211 OFFCURVE",
"-11 174 OFFCURVE",
"-11 137 CURVE SMOOTH",
"-11 39 OFFCURVE",
"64 -56 OFFCURVE",
"167 -56 CURVE SMOOTH"
);
}
);
width = 501;
}
);
note = E;
unicode = 0045;
},
{
glyphname = F;
lastChange = "2021-11-02 15:04:42 +0000";
layers = (
{
layerId = "747EDECB-6CB4-4831-9662-77535A1F4B33";
paths = (
{
closed = 1;
nodes = (
"157 371 OFFCURVE",
"223 388 OFFCURVE",
"223 413 CURVE SMOOTH",
"223 416 OFFCURVE",
"221 419 OFFCURVE",
"217 419 CURVE SMOOTH",
"207 419 OFFCURVE",
"187 392 OFFCURVE",
"149 392 CURVE SMOOTH",
"86 392 OFFCURVE",
"32 458 OFFCURVE",
"32 518 CURVE SMOOTH",
"32 633 OFFCURVE",
"167 698 OFFCURVE",
"267 698 CURVE SMOOTH",
"437 698 OFFCURVE",
"539 571 OFFCURVE",
"674 571 CURVE SMOOTH",
"728 571 OFFCURVE",
"783 599 OFFCURVE",
"783 659 CURVE SMOOTH",
"783 668 OFFCURVE",
"783 692 OFFCURVE",
"770 692 CURVE SMOOTH",
"762 692 OFFCURVE",
"761 683 OFFCURVE",
"761 676 CURVE SMOOTH",
"761 673 LINE SMOOTH",
"761 625 OFFCURVE",
"741 589 OFFCURVE",
"685 589 CURVE SMOOTH",
"577 589 OFFCURVE",
"431 730 OFFCURVE",
"259 730 CURVE SMOOTH",
"141 730 OFFCURVE",
"-7 653 OFFCURVE",
"-7 520 CURVE SMOOTH",
"-7 443 OFFCURVE",
"60 371 OFFCURVE",
"138 371 CURVE SMOOTH"
);
},
{
closed = 1;
nodes = (
"351 -14 OFFCURVE",
"354 -11 OFFCURVE",
"354 -8 CURVE SMOOTH",
"354 2 OFFCURVE",
"343 5 OFFCURVE",
"336 7 CURVE SMOOTH",
"291 22 OFFCURVE",
"290 71 OFFCURVE",
"290 112 CURVE SMOOTH",
"290 205 OFFCURVE",
"310 297 OFFCURVE",
"343 383 CURVE",
"390 406 OFFCURVE",
"441 418 OFFCURVE",
"494 418 CURVE SMOOTH",
"520 418 OFFCURVE",
"546 410 OFFCURVE",
"571 410 CURVE SMOOTH",
"578 410 OFFCURVE",
"589 410 OFFCURVE",
"589 420 CURVE SMOOTH",
"589 435 OFFCURVE",
"531 440 OFFCURVE",
"519 440 CURVE SMOOTH",
"464 440 OFFCURVE",
"409 432 OFFCURVE",
"357 416 CURVE",
"376 459 OFFCURVE",
"398 501 OFFCURVE",
"424 541 CURVE SMOOTH",
"434 555 OFFCURVE",
"448 570 OFFCURVE",
"456 584 CURVE",
"459 592 LINE",
"459 603 OFFCURVE",
"443 608 OFFCURVE",
"433 608 CURVE SMOOTH",
"393 608 OFFCURVE",
"326 434 OFFCURVE",
"314 399 CURVE",
"278 384 OFFCURVE",
"198 364 OFFCURVE",
"198 318 CURVE SMOOTH",
"198 317 OFFCURVE",
"198 305 OFFCURVE",
"203 305 CURVE SMOOTH",
"219 305 OFFCURVE",
"284 347 OFFCURVE",
"301 358 CURVE",
"277 274 OFFCURVE",
"263 187 OFFCURVE",
"263 100 CURVE SMOOTH",
"263 45 OFFCURVE",
"280 -14 OFFCURVE",
"347 -14 CURVE SMOOTH"
);
}
);
width = 502;
}
);
note = F;
unicode = 0046;
},
{
glyphname = G;
lastChange = "2021-11-02 15:04:42 +0000";
layers = (
{
layerId = "747EDECB-6CB4-4831-9662-77535A1F4B33";
paths = (
{
closed = 1;
nodes = (
"234 -240 OFFCURVE",
"283 -190 OFFCURVE",
"303 -162 CURVE SMOOTH",
"395 -33 OFFCURVE",
"442 138 OFFCURVE",
"460 294 CURVE",
"469 302 OFFCURVE",
"537 356 OFFCURVE",
"537 364 CURVE SMOOTH",
"537 366 OFFCURVE",
"535 368 OFFCURVE",
"532 368 CURVE SMOOTH",
"520 368 OFFCURVE",
"473 335 OFFCURVE",
"463 327 CURVE",
"465 355 OFFCURVE",
"467 385 OFFCURVE",
"467 414 CURVE SMOOTH",
"467 438 OFFCURVE",
"465 479 OFFCURVE",
"442 479 CURVE SMOOTH",
"412 479 OFFCURVE",
"232 103 OFFCURVE",
"105 103 CURVE SMOOTH",
"54 103 OFFCURVE",
"52 150 OFFCURVE",
"53 190 CURVE SMOOTH",
"53 213 LINE SMOOTH",
"54 279 OFFCURVE",
"71 341 OFFCURVE",
"97 402 CURVE SMOOTH",
"143 512 OFFCURVE",
"282 705 OFFCURVE",
"416 705 CURVE SMOOTH",
"470 705 OFFCURVE",
"506 664 OFFCURVE",
"506 611 CURVE SMOOTH",
"506 602 OFFCURVE",
"505 577 OFFCURVE",
"518 577 CURVE SMOOTH",
"530 577 OFFCURVE",
"531 608 OFFCURVE",
"531 618 CURVE SMOOTH",
"531 686 OFFCURVE",
"489 735 OFFCURVE",
"419 735 CURVE SMOOTH",
"373 735 OFFCURVE",
"327 713 OFFCURVE",
"289 689 CURVE SMOOTH",
"138 592 OFFCURVE",
"14 392 OFFCURVE",
"14 211 CURVE SMOOTH",
"14 154 OFFCURVE",
"26 71 OFFCURVE",
"99 71 CURVE SMOOTH",
"210 71 OFFCURVE",
"377 348 OFFCURVE",
"433 438 CURVE",
"434 429 OFFCURVE",
"434 419 OFFCURVE",
"434 410 CURVE SMOOTH",
"434 371 OFFCURVE",
"430 332 OFFCURVE",
"424 294 CURVE",
"318 190 OFFCURVE",
"160 -32 OFFCURVE",
"160 -186 CURVE SMOOTH",
"160 -213 OFFCURVE",
"165 -240 OFFCURVE",
"197 -240 CURVE SMOOTH"
);
},
{
closed = 1;
nodes = (
"184 -208 OFFCURVE",
"183 -194 OFFCURVE",
"183 -188 CURVE SMOOTH",
"183 -155 OFFCURVE",
"205 -101 OFFCURVE",
"217 -70 CURVE SMOOTH",
"273 70 OFFCURVE",
"314 138 OFFCURVE",
"417 250 CURVE",
"402 156 OFFCURVE",
"319 -208 OFFCURVE",
"194 -208 CURVE SMOOTH"
);
}
);
width = 539;
}
);
note = G;
unicode = 0047;
},
{
glyphname = H;
lastChange = "2021-11-02 15:04:42 +0000";
layers = (
{
layerId = "747EDECB-6CB4-4831-9662-77535A1F4B33";
paths = (
{
closed = 1;
nodes = (
"128 -123 OFFCURVE",
"131 -123 OFFCURVE",
"133 -122 CURVE SMOOTH",
"286 -73 OFFCURVE",
"372 72 OFFCURVE",
"435 209 CURVE",
"528 245 OFFCURVE",
"625 270 OFFCURVE",
"724 280 CURVE",
"710 211 OFFCURVE",
"700 141 OFFCURVE",
"700 71 CURVE SMOOTH",
"700 21 OFFCURVE",
"716 -49 OFFCURVE",
"781 -49 CURVE SMOOTH",
"786 -49 OFFCURVE",
"792 -49 OFFCURVE",
"795 -44 CURVE",
"794 -35 OFFCURVE",
"782 -32 OFFCURVE",
"775 -30 CURVE SMOOTH",
"728 -15 OFFCURVE",
"724 33 OFFCURVE",
"724 76 CURVE SMOOTH",
"724 146 OFFCURVE",
"736 216 OFFCURVE",
"756 283 CURVE",
"768 284 OFFCURVE",
"800 285 OFFCURVE",
"807 295 CURVE",
"806 300 OFFCURVE",
"793 301 OFFCURVE",
"781 301 CURVE SMOOTH",
"762 301 LINE",
"786 377 OFFCURVE",
"819 451 OFFCURVE",
"861 519 CURVE SMOOTH",
"874 539 OFFCURVE",
"891 559 OFFCURVE",
"903 579 CURVE",
"906 587 LINE",
"905 599 OFFCURVE",
"890 602 OFFCURVE",
"881 602 CURVE SMOOTH",
"823 602 OFFCURVE",
"741 347 OFFCURVE",
"729 299 CURVE",
"635 290 OFFCURVE",
"542 273 OFFCURVE",
"451 248 CURVE",
"490 344 OFFCURVE",
"511 447 OFFCURVE",
"511 551 CURVE SMOOTH",
"511 623 OFFCURVE",
"481 677 OFFCURVE",
"403 677 CURVE SMOOTH",
"239 677 OFFCURVE",
"-34 461 OFFCURVE",
"-34 292 CURVE SMOOTH",
"-34 219 OFFCURVE",
"24 196 OFFCURVE",
"88 196 CURVE SMOOTH",
"168 196 OFFCURVE",
"253 235 OFFCURVE",
"314 285 CURVE SMOOTH",
"316 287 OFFCURVE",
"319 289 OFFCURVE",
"320 292 CURVE",
"320 296 OFFCURVE",
"316 296 OFFCURVE",
"314 296 CURVE SMOOTH",
"299 296 OFFCURVE",
"200 221 OFFCURVE",
"83 221 CURVE SMOOTH",
"36 221 OFFCURVE",
"5 243 OFFCURVE",
"5 292 CURVE SMOOTH",
"5 450 OFFCURVE",
"243 644 OFFCURVE",
"395 644 CURVE SMOOTH",
"454 644 OFFCURVE",
"478 605 OFFCURVE",
"478 551 CURVE SMOOTH",
"478 443 OFFCURVE",
"458 337 OFFCURVE",
"418 237 CURVE",
"395 229 OFFCURVE",
"288 197 OFFCURVE",
"288 173 CURVE SMOOTH",
"288 164 OFFCURVE",
"293 152 OFFCURVE",
"303 152 CURVE SMOOTH",
"307 152 OFFCURVE",
"388 190 OFFCURVE",
"400 195 CURVE",
"337 63 OFFCURVE",
"269 -46 OFFCURVE",
"126 -101 CURVE SMOOTH",
"120 -103 OFFCURVE",
"113 -106 OFFCURVE",
"113 -114 CURVE SMOOTH",
"113 -120 OFFCURVE",
"120 -123 OFFCURVE",
"126 -123 CURVE SMOOTH"
);
}
);
width = 820;
}
);
note = H;
unicode = 0048;
},
{
glyphname = I;
lastChange = "2021-11-02 15:04:42 +0000";
layers = (
{
layerId = "747EDECB-6CB4-4831-9662-77535A1F4B33";
paths = (
{
closed = 1;
nodes = (
"74 -95 OFFCURVE",
"83 -93 OFFCURVE",
"91 -90 CURVE SMOOTH",
"328 -17 OFFCURVE",
"470 361 OFFCURVE",
"470 583 CURVE SMOOTH",
"470 638 OFFCURVE",
"439 709 OFFCURVE",
"375 709 CURVE SMOOTH",
"235 709 OFFCURVE",
"40 483 OFFCURVE",
"40 347 CURVE SMOOTH",
"40 289 OFFCURVE",
"78 265 OFFCURVE",
"132 265 CURVE SMOOTH",
"197 265 OFFCURVE",
"263 297 OFFCURVE",
"313 337 CURVE SMOOTH",
"315 339 OFFCURVE",
"317 341 OFFCURVE",
"318 343 CURVE",
"318 345 OFFCURVE",
"315 346 OFFCURVE",
"314 346 CURVE SMOOTH",
"303 346 OFFCURVE",
"221 286 OFFCURVE",
"128 286 CURVE SMOOTH",
"93 286 OFFCURVE",
"82 315 OFFCURVE",
"82 345 CURVE SMOOTH",
"82 470 OFFCURVE",
"233 670 OFFCURVE",
"365 670 CURVE SMOOTH",
"416 670 OFFCURVE",
"436 629 OFFCURVE",
"436 583 CURVE SMOOTH",
"436 372 OFFCURVE",
"314 1 OFFCURVE",
"84 -70 CURVE SMOOTH",
"79 -72 OFFCURVE",
"73 -73 OFFCURVE",
"67 -73 CURVE SMOOTH",
"50 -73 OFFCURVE",
"46 -58 OFFCURVE",
"46 -44 CURVE SMOOTH",
"46 -39 OFFCURVE",
"48 -28 OFFCURVE",
"48 -19 CURVE SMOOTH",
"48 -11 OFFCURVE",
"46 -3 OFFCURVE",
"38 -3 CURVE SMOOTH",
"25 -3 OFFCURVE",
"19 -34 OFFCURVE",
"19 -43 CURVE SMOOTH",
"19 -71 OFFCURVE",
"35 -95 OFFCURVE",
"65 -95 CURVE SMOOTH"
);
}
);
width = 483;
}
);
note = I;
unicode = 0049;
},
{
glyphname = J;
lastChange = "2021-11-02 15:04:42 +0000";
layers = (
{
layerId = "747EDECB-6CB4-4831-9662-77535A1F4B33";
paths = (
{
closed = 1;
nodes = (
"188 -266 OFFCURVE",
"333 44 OFFCURVE",
"377 149 CURVE SMOOTH",
"390 181 OFFCURVE",
"399 218 OFFCURVE",
"408 251 CURVE",
"419 257 OFFCURVE",
"441 263 OFFCURVE",
"441 278 CURVE SMOOTH",
"441 280 OFFCURVE",
"439 281 OFFCURVE",
"437 281 CURVE SMOOTH",
"432 281 OFFCURVE",
"417 273 OFFCURVE",
"412 271 CURVE",
"429 342 OFFCURVE",
"438 414 OFFCURVE",
"438 487 CURVE SMOOTH",
"438 565 OFFCURVE",
"433 720 OFFCURVE",
"323 720 CURVE SMOOTH",
"186 720 OFFCURVE",
"43 457 OFFCURVE",
"43 334 CURVE SMOOTH",
"43 281 OFFCURVE",
"65 238 OFFCURVE",
"123 238 CURVE SMOOTH",
"186 238 OFFCURVE",
"281 291 OFFCURVE",
"317 343 CURVE SMOOTH",
"318 345 OFFCURVE",
"319 346 OFFCURVE",
"319 348 CURVE SMOOTH",
"319 349 OFFCURVE",
"318 351 OFFCURVE",
"317 351 CURVE SMOOTH",
"303 351 OFFCURVE",
"215 259 OFFCURVE",
"133 259 CURVE SMOOTH",
"92 259 OFFCURVE",
"84 309 OFFCURVE",
"84 341 CURVE SMOOTH",
"84 407 OFFCURVE",
"110 484 OFFCURVE",
"144 541 CURVE SMOOTH",
"172 589 OFFCURVE",
"256 681 OFFCURVE",
"317 682 CURVE SMOOTH",
"326 682 LINE SMOOTH",
"407 683 OFFCURVE",
"408 530 OFFCURVE",
"408 468 CURVE SMOOTH",
"408 397 OFFCURVE",
"398 326 OFFCURVE",
"381 256 CURVE",
"250 186 OFFCURVE",
"18 -60 OFFCURVE",
"18 -212 CURVE SMOOTH",
"18 -239 OFFCURVE",
"20 -266 OFFCURVE",
"54 -266 CURVE SMOOTH"
);
},
{
closed = 1;
nodes = (
"50 -241 OFFCURVE",
"51 -213 OFFCURVE",
"51 -202 CURVE SMOOTH",
"51 -77 OFFCURVE",
"270 173 OFFCURVE",
"376 235 CURVE",
"369 209 OFFCURVE",
"362 183 OFFCURVE",
"353 158 CURVE SMOOTH",
"326 79 OFFCURVE",
"157 -241 OFFCURVE",
"67 -241 CURVE SMOOTH"
);
}
);
width = 459;
}
);
note = J;
unicode = 004A;
},
{
glyphname = K;
lastChange = "2021-11-02 15:04:40 +0000";
layers = (
{
layerId = "747EDECB-6CB4-4831-9662-77535A1F4B33";
paths = (
{
closed = 1;
nodes = (
"338 -90 OFFCURVE",
"443 106 OFFCURVE",
"499 239 CURVE",
"507 237 LINE",
"559 158 OFFCURVE",
"667 -6 OFFCURVE",
"774 -6 CURVE SMOOTH",
"801 -6 OFFCURVE",
"869 18 OFFCURVE",
"869 50 CURVE SMOOTH",
"869 54 OFFCURVE",
"865 57 OFFCURVE",
"862 57 CURVE SMOOTH",
"856 57 OFFCURVE",
"833 20 OFFCURVE",
"779 20 CURVE SMOOTH",
"688 20 OFFCURVE",
"587 159 OFFCURVE",
"548 232 CURVE",
"632 232 OFFCURVE",
"720 263 OFFCURVE",
"782 322 CURVE SMOOTH",
"850 388 OFFCURVE",
"943 527 OFFCURVE",
"943 625 CURVE SMOOTH",
"943 635 OFFCURVE",
"933 643 OFFCURVE",
"923 643 CURVE SMOOTH",
"917 643 OFFCURVE",
"913 639 OFFCURVE",
"912 633 CURVE SMOOTH",
"889 515 OFFCURVE",
"848 427 OFFCURVE",
"760 342 CURVE SMOOTH",
"710 294 OFFCURVE",
"627 255 OFFCURVE",
"557 255 CURVE SMOOTH",
"548 255 OFFCURVE",
"538 257 OFFCURVE",
"530 261 CURVE",
"516 283 LINE",
"548 387 OFFCURVE",
"618 546 OFFCURVE",
"618 653 CURVE SMOOTH",
"618 666 OFFCURVE",
"618 679 OFFCURVE",
"599 679 CURVE SMOOTH",
"591 679 OFFCURVE",
"583 676 OFFCURVE",
"580 667 CURVE SMOOTH",
"565 623 OFFCURVE",
"562 566 OFFCURVE",
"552 519 CURVE SMOOTH",
"538 449 OFFCURVE",
"513 386 OFFCURVE",
"496 317 CURVE SMOOTH",
"494 309 LINE",
"485 316 OFFCURVE",
"473 321 OFFCURVE",
"461 321 CURVE SMOOTH",
"449 321 OFFCURVE",
"438 314 OFFCURVE",
"438 301 CURVE SMOOTH",
"438 282 OFFCURVE",
"456 260 OFFCURVE",
"471 250 CURVE",
"419 123 OFFCURVE",
"322 -75 OFFCURVE",
"160 -75 CURVE SMOOTH",
"25 -75 OFFCURVE",
"-17 71 OFFCURVE",
"-17 180 CURVE SMOOTH",
"-17 306 OFFCURVE",
"62 490 OFFCURVE",
"210 490 CURVE SMOOTH",
"275 490 OFFCURVE",
"295 410 OFFCURVE",
"295 358 CURVE SMOOTH",
"295 320 OFFCURVE",
"272 279 OFFCURVE",
"272 274 CURVE SMOOTH",
"272 270 OFFCURVE",
"274 266 OFFCURVE",
"278 266 CURVE SMOOTH",
"304 266 OFFCURVE",
"316 367 OFFCURVE",
"316 384 CURVE SMOOTH",
"316 460 OFFCURVE",
"283 516 OFFCURVE",
"201 516 CURVE SMOOTH",
"37 516 OFFCURVE",
"-45 323 OFFCURVE",
"-45 184 CURVE SMOOTH",
"-45 49 OFFCURVE",
"15 -90 OFFCURVE",
"170 -90 CURVE SMOOTH"
);
}
);
width = 862;
}
);
note = K;
unicode = 004B;
},
{
glyphname = L;
lastChange = "2021-11-02 15:04:40 +0000";
layers = (
{
layerId = "747EDECB-6CB4-4831-9662-77535A1F4B33";
paths = (
{
closed = 1;
nodes = (
"25 -116 OFFCURVE",
"41 -65 OFFCURVE",
"47 -31 CURVE",
"57 -27 OFFCURVE",
"67 -23 OFFCURVE",
"77 -17 CURVE SMOOTH",
"170 37 OFFCURVE",
"293 55 OFFCURVE",
"399 55 CURVE SMOOTH",
"447 55 OFFCURVE",
"490 48 OFFCURVE",
"509 0 CURVE SMOOTH",
"511 -6 OFFCURVE",
"516 -14 OFFCURVE",
"520 -19 CURVE",
"524 -16 OFFCURVE",
"526 4 OFFCURVE",
"526 7 CURVE SMOOTH",
"526 68 OFFCURVE",
"443 91 OFFCURVE",
"395 91 CURVE SMOOTH",
"275 91 OFFCURVE",
"151 65 OFFCURVE",
"48 2 CURVE",
"61 70 OFFCURVE",
"85 131 OFFCURVE",
"112 194 CURVE",
"125 188 OFFCURVE",
"140 187 OFFCURVE",
"155 187 CURVE SMOOTH",
"259 187 OFFCURVE",
"371 264 OFFCURVE",
"443 332 CURVE SMOOTH",
"526 410 OFFCURVE",
"579 506 OFFCURVE",
"606 617 CURVE SMOOTH",
"608 625 OFFCURVE",
"609 633 OFFCURVE",
"609 642 CURVE SMOOTH",
"609 687 OFFCURVE",
"579 721 OFFCURVE",
"533 721 CURVE SMOOTH",
"467 721 OFFCURVE",
"421 686 OFFCURVE",
"377 640 CURVE SMOOTH",
"262 521 OFFCURVE",
"162 380 OFFCURVE",
"93 230 CURVE",
"70 242 OFFCURVE",
"49 266 OFFCURVE",
"49 294 CURVE SMOOTH",
"49 302 OFFCURVE",
"52 330 OFFCURVE",
"40 330 CURVE SMOOTH",
"30 330 OFFCURVE",
"27 299 OFFCURVE",
"27 290 CURVE SMOOTH",
"27 251 OFFCURVE",
"49 222 OFFCURVE",
"83 205 CURVE",
"59 152 OFFCURVE",
"31 88 OFFCURVE",
"22 30 CURVE SMOOTH",
"19 12 OFFCURVE",
"17 -1 OFFCURVE",
"10 -18 CURVE",
"-4 -28 OFFCURVE",
"-49 -67 OFFCURVE",
"-49 -86 CURVE SMOOTH",
"-49 -105 OFFCURVE",
"-37 -116 OFFCURVE",
"-18 -116 CURVE SMOOTH"
);
},
{
closed = 1;
nodes = (
"146 213 OFFCURVE",
"129 214 OFFCURVE",
"123 218 CURVE",
"174 329 OFFCURVE",
"401 695 OFFCURVE",
"539 695 CURVE SMOOTH",
"568 695 OFFCURVE",
"576 660 OFFCURVE",
"576 637 CURVE SMOOTH",
"576 633 OFFCURVE",
"576 629 OFFCURVE",
"575 625 CURVE SMOOTH",
"549 520 OFFCURVE",
"500 431 OFFCURVE",
"421 356 CURVE SMOOTH",
"357 296 OFFCURVE",
"246 213 OFFCURVE",
"153 213 CURVE SMOOTH"
);
}
);
width = 493;
}
);
note = L;
unicode = 004C;
},
{
glyphname = M;
lastChange = "2021-11-02 15:04:40 +0000";
layers = (
{
layerId = "747EDECB-6CB4-4831-9662-77535A1F4B33";
paths = (
{
closed = 1;
nodes = (
"384 -103 OFFCURVE",
"521 113 OFFCURVE",
"570 249 CURVE SMOOTH",
"590 305 OFFCURVE",
"607 362 OFFCURVE",
"626 418 CURVE SMOOTH",
"649 483 LINE",
"649 490 OFFCURVE",
"645 498 OFFCURVE",
"637 498 CURVE SMOOTH",
"631 498 OFFCURVE",
"634 489 OFFCURVE",
"632 483 CURVE SMOOTH",
"618 446 LINE",
"545 255 LINE SMOOTH",
"495 122 OFFCURVE",
"367 -82 OFFCURVE",
"205 -82 CURVE SMOOTH",
"63 -82 OFFCURVE",
"27 91 OFFCURVE",
"27 201 CURVE SMOOTH",
"27 326 OFFCURVE",
"100 542 OFFCURVE",
"253 542 CURVE SMOOTH",
"327 542 OFFCURVE",
"349 425 OFFCURVE",
"349 369 CURVE SMOOTH",
"349 312 OFFCURVE",
"318 258 OFFCURVE",
"318 252 CURVE SMOOTH",
"318 249 OFFCURVE",
"320 244 OFFCURVE",
"324 244 CURVE SMOOTH",
"355 244 OFFCURVE",
"372 362 OFFCURVE",
"372 385 CURVE SMOOTH",
"372 463 OFFCURVE",
"339 575 OFFCURVE",
"243 575 CURVE SMOOTH",
"73 575 OFFCURVE",
"0 344 OFFCURVE",
"0 206 CURVE SMOOTH",
"0 68 OFFCURVE",
"52 -103 OFFCURVE",
"219 -103 CURVE SMOOTH"
);
},
{
closed = 1;
nodes = (
"1140 -49 OFFCURVE",
"1178 -4 OFFCURVE",
"1178 26 CURVE SMOOTH",
"1178 29 OFFCURVE",
"1176 33 OFFCURVE",
"1172 33 CURVE SMOOTH",
"1156 33 OFFCURVE",
"1149 -19 OFFCURVE",
"1113 -19 CURVE SMOOTH",
"1036 -19 OFFCURVE",
"1030 171 OFFCURVE",
"1030 224 CURVE SMOOTH",
"1030 325 OFFCURVE",
"1044 425 OFFCURVE",
"1065 524 CURVE SMOOTH",
"1072 559 OFFCURVE",
"1096 630 OFFCURVE",
"1096 663 CURVE SMOOTH",
"1096 679 OFFCURVE",
"1085 692 OFFCURVE",
"1068 692 CURVE SMOOTH",
"1057 692 OFFCURVE",
"1051 686 OFFCURVE",
"1048 676 CURVE SMOOTH",
"1035 638 OFFCURVE",
"1028 596 OFFCURVE",
"1015 557 CURVE SMOOTH",
"982 452 OFFCURVE",
"941 349 OFFCURVE",
"894 249 CURVE SMOOTH",
"880 220 OFFCURVE",
"821 119 OFFCURVE",
"788 119 CURVE SMOOTH",
"716 119 OFFCURVE",
"705 274 OFFCURVE",
"705 327 CURVE SMOOTH",
"705 397 OFFCURVE",
"719 466 OFFCURVE",
"719 536 CURVE SMOOTH",
"719 561 OFFCURVE",
"723 620 OFFCURVE",
"687 620 CURVE SMOOTH",
"675 620 OFFCURVE",
"668 612 OFFCURVE",
"668 599 CURVE SMOOTH",
"668 572 OFFCURVE",
"676 544 OFFCURVE",
"676 515 CURVE SMOOTH",
"676 457 OFFCURVE",
"667 399 OFFCURVE",
"667 340 CURVE SMOOTH",
"667 259 OFFCURVE",
"683 89 OFFCURVE",
"793 89 CURVE SMOOTH",
"831 89 OFFCURVE",
"894 202 OFFCURVE",
"910 235 CURVE SMOOTH",
"950 317 OFFCURVE",
"972 422 OFFCURVE",
"1017 498 CURVE",
"1002 414 OFFCURVE",
"997 327 OFFCURVE",
"997 242 CURVE SMOOTH",
"997 169 OFFCURVE",
"999 -49 OFFCURVE",
"1108 -49 CURVE SMOOTH"
);
}
);
width = 1101;
}
);
note = M;
unicode = 004D;
},
{
glyphname = N;
lastChange = "2021-11-02 15:04:40 +0000";
layers = (
{
layerId = "747EDECB-6CB4-4831-9662-77535A1F4B33";
paths = (
{
closed = 1;
nodes = (
"815 -63 OFFCURVE",
"889 -8 OFFCURVE",
"892 20 CURVE",
"887 25 LINE",
"866 21 OFFCURVE",
"830 -33 OFFCURVE",
"785 -33 CURVE SMOOTH",
"735 -33 OFFCURVE",
"734 57 OFFCURVE",
"734 91 CURVE SMOOTH",
"734 219 OFFCURVE",
"759 349 OFFCURVE",
"790 472 CURVE SMOOTH",
"797 499 OFFCURVE",
"807 525 OFFCURVE",
"807 553 CURVE SMOOTH",
"807 582 OFFCURVE",
"782 600 OFFCURVE",
"755 600 CURVE SMOOTH",
"652 600 OFFCURVE",
"403 294 OFFCURVE",
"364 200 CURVE",
"404 326 OFFCURVE",
"486 512 OFFCURVE",
"486 641 CURVE SMOOTH",
"486 697 OFFCURVE",
"468 750 OFFCURVE",
"403 750 CURVE SMOOTH",
"223 750 OFFCURVE",
"-7 537 OFFCURVE",
"-7 355 CURVE SMOOTH",
"-7 236 OFFCURVE",
"52 181 OFFCURVE",
"170 181 CURVE SMOOTH",
"189 181 OFFCURVE",
"272 207 OFFCURVE",
"277 225 CURVE",
"269 232 LINE",
"233 227 OFFCURVE",
"201 199 OFFCURVE",
"163 199 CURVE SMOOTH",
"68 199 OFFCURVE",
"24 259 OFFCURVE",
"24 350 CURVE SMOOTH",
"24 505 OFFCURVE",
"245 730 OFFCURVE",
"401 730 CURVE SMOOTH",
"443 730 OFFCURVE",
"452 690 OFFCURVE",
"452 656 CURVE SMOOTH",
"452 573 OFFCURVE",
"411 454 OFFCURVE",
"387 373 CURVE SMOOTH",
"359 280 OFFCURVE",
"280 64 OFFCURVE",
"280 -20 CURVE SMOOTH",
"280 -33 OFFCURVE",
"282 -53 OFFCURVE",
"300 -53 CURVE SMOOTH",
"318 -53 OFFCURVE",
"323 -32 OFFCURVE",
"327 -19 CURVE SMOOTH",
"344 43 OFFCURVE",
"360 102 OFFCURVE",
"388 160 CURVE SMOOTH",
"432 251 OFFCURVE",
"629 556 OFFCURVE",
"733 556 CURVE SMOOTH",
"754 556 OFFCURVE",
"758 536 OFFCURVE",
"758 520 CURVE SMOOTH",
"758 507 OFFCURVE",
"756 494 OFFCURVE",
"753 481 CURVE SMOOTH",
"728 358 OFFCURVE",
"698 236 OFFCURVE",
"698 110 CURVE SMOOTH",
"698 49 OFFCURVE",
"705 -63 OFFCURVE",
"788 -63 CURVE SMOOTH"
);
}
);
width = 855;
}
);
note = N;
unicode = 004E;
},
{
glyphname = Eng;
lastChange = "2021-11-02 15:04:42 +0000";
layers = (
{
background = {
hints = (
{
horizontal = 1;
place = "{-2, 35}";
type = Stem;
},
{
horizontal = 1;
place = "{222, 34}";
type = Stem;
},
{
horizontal = 1;
place = "{943, 32}";
type = Stem;
},
{
place = "{10, 57}";
type = Stem;
},
{
place = "{964, 56}";
type = Stem;
},
{
place = "{1091, 35}";
type = Stem;
},
{
place = "{1182, 56}";
type = Stem;
},
{
place = "{1091, 173}";
type = Stem;
},
{
horizontal = 1;
place = "{-230, 31}";
type = Stem;
},
{
horizontal = 1;
place = "{28, 22}";
type = Stem;
},
{
horizontal = 1;
place = "{387, 32}";
type = Stem;
},
{
place = "{19, 49}";
type = Stem;
},
{
place = "{244, 17}";
type = Stem;
},
{
place = "{302, 22}";
type = Stem;
},
{
place = "{276, 41}";
type = Stem;
}
);
paths = (
{
closed = 1;
nodes = (
"803 612 OFFCURVE",
"797 641 OFFCURVE",
"770 641 CURVE SMOOTH",
"743 641 OFFCURVE",
"718 609 OFFCURVE",
"702 591 CURVE SMOOTH",
"566 436 OFFCURVE",
"375 236 OFFCURVE",
"213 73 CURVE",
"365 297 OFFCURVE",
"585 667 OFFCURVE",
"585 838 CURVE SMOOTH",
"585 945 OFFCURVE",
"510 975 OFFCURVE",
"415 975 CURVE SMOOTH",
"397 975 OFFCURVE",
"378 974 OFFCURVE",
"360 972 CURVE SMOOTH",
"295 965 OFFCURVE",
"194 926 OFFCURVE",
"86 869 CURVE SMOOTH",
"-33 806 OFFCURVE",
"-63 781 OFFCURVE",
"-46 781 CURVE SMOOTH",
"-30 781 OFFCURVE",
"31 806 OFFCURVE",
"94 841 CURVE SMOOTH",
"201 901 OFFCURVE",
"311 944 OFFCURVE",
"401 944 CURVE SMOOTH",
"479 944 OFFCURVE",
"529 913 OFFCURVE",
"529 829 CURVE SMOOTH",
"529 747 OFFCURVE",
"481 633 OFFCURVE",
"446 560 CURVE SMOOTH",
"366 394 OFFCURVE",
"273 236 OFFCURVE",
"168 85 CURVE SMOOTH",
"102 -11 OFFCURVE",
"65 -62 OFFCURVE",
"65 -74 CURVE SMOOTH",
"65 -86 OFFCURVE",
"77 -91 OFFCURVE",
"88 -91 CURVE SMOOTH",
"123 -91 OFFCURVE",
"145 -58 OFFCURVE",
"222 27 CURVE SMOOTH",
"298 111 OFFCURVE",
"638 469 OFFCURVE",
"727 573 CURVE SMOOTH",
"729 575 OFFCURVE",
"739 590 OFFCURVE",
"744 590 CURVE SMOOTH",
"747 590 OFFCURVE",
"747 585 OFFCURVE",
"747 584 CURVE SMOOTH",
"747 452 OFFCURVE",
"594 -2 OFFCURVE",
"519 -139 CURVE SMOOTH",
"473 -229 OFFCURVE",
"376 -399 OFFCURVE",
"296 -399 CURVE SMOOTH",
"202 -399 OFFCURVE",
"238 -226 OFFCURVE",
"318 -145 CURVE SMOOTH",
"338 -125 OFFCURVE",
"338 -115 OFFCURVE",
"330 -115 CURVE SMOOTH",
"326 -115 OFFCURVE",
"320 -117 OFFCURVE",
"313 -122 CURVE SMOOTH",
"245 -171 OFFCURVE",
"207 -259 OFFCURVE",
"207 -330 CURVE SMOOTH",
"207 -393 OFFCURVE",
"237 -443 OFFCURVE",
"304 -443 CURVE SMOOTH",
"401 -443 OFFCURVE",
"477 -326 OFFCURVE",
"513 -257 CURVE SMOOTH",
"675 33 OFFCURVE",
"803 526 OFFCURVE",
"803 591 CURVE SMOOTH"
);
},
{
closed = 1;
nodes = (
"141 -31 OFFCURVE",
"146 -25 OFFCURVE",
"145 -26 CURVE SMOOTH",
"142 -30 LINE SMOOTH"
);
}
);
};
layerId = "747EDECB-6CB4-4831-9662-77535A1F4B33";
paths = (
{
closed = 1;
nodes = (
"224 -354 OFFCURVE",
"247 -349 OFFCURVE",
"276 -337 CURVE SMOOTH",
"377 -294 OFFCURVE",
"441 -204 OFFCURVE",
"468 -152 CURVE SMOOTH",
"569 44 OFFCURVE",
"778 624 OFFCURVE",
"770 616 CURVE",
"782 637 OFFCURVE",
"787 654 OFFCURVE",
"787 664 CURVE SMOOTH",
"787 674 OFFCURVE",
"783 679 OFFCURVE",
"777 679 CURVE SMOOTH",
"767 679 OFFCURVE",
"751 665 OFFCURVE",
"736 633 CURVE SMOOTH",
"677 491 OFFCURVE",
"585 253 OFFCURVE",
"548 136 CURVE",
"536 164 OFFCURVE",
"525 191 OFFCURVE",
"514 227 CURVE SMOOTH",
"479 323 OFFCURVE",
"425 484 OFFCURVE",
"385 587 CURVE",
"387 594 OFFCURVE",
"387 600 OFFCURVE",
"387 606 CURVE SMOOTH",
"387 620 OFFCURVE",
"382 627 OFFCURVE",
"377 627 CURVE SMOOTH",
"373 627 OFFCURVE",
"369 623 OFFCURVE",
"367 616 CURVE",
"361 627 OFFCURVE",
"354 631 OFFCURVE",
"349 631 CURVE SMOOTH",
"341 631 OFFCURVE",
"335 620 OFFCURVE",
"335 604 CURVE SMOOTH",
"335 590 OFFCURVE",
"339 572 OFFCURVE",
"349 554 CURVE",
"285 363 OFFCURVE",
"92 -63 OFFCURVE",
"-72 -63 CURVE SMOOTH",
"-92 -63 OFFCURVE",
"-118 -49 OFFCURVE",
"-118 -38 CURVE SMOOTH",
"-118 -33 OFFCURVE",
"-113 -29 OFFCURVE",
"-98 -27 CURVE",
"-110 -12 OFFCURVE",
"-116 -5 OFFCURVE",
"-138 -5 CURVE SMOOTH",
"-151 -5 OFFCURVE",
"-157 -14 OFFCURVE",
"-157 -26 CURVE SMOOTH",
"-157 -41 OFFCURVE",
"-148 -59 OFFCURVE",
"-131 -68 CURVE SMOOTH",
"-105 -82 OFFCURVE",
"-78 -83 OFFCURVE",
"-52 -83 CURVE SMOOTH",
"129 -83 OFFCURVE",
"297 313 OFFCURVE",
"366 521 CURVE",
"400 406 OFFCURVE",
"496 171 OFFCURVE",
"531 78 CURVE",
"511 18 OFFCURVE",
"478 -48 OFFCURVE",
"454 -89 CURVE",
"421 -155 OFFCURVE",
"344 -283 OFFCURVE",
"261 -318 CURVE SMOOTH",
"245 -325 OFFCURVE",
"232 -328 OFFCURVE",
"221 -328 CURVE SMOOTH",
"198 -328 OFFCURVE",
"187 -313 OFFCURVE",
"187 -291 CURVE SMOOTH",
"187 -261 OFFCURVE",
"207 -218 OFFCURVE",
"242 -181 CURVE SMOOTH",
"253 -170 OFFCURVE",
"257 -163 OFFCURVE",
"257 -161 CURVE SMOOTH",
"257 -160 OFFCURVE",
"256 -159 OFFCURVE",
"255 -159 CURVE SMOOTH",
"254 -159 OFFCURVE",
"253 -159 OFFCURVE",
"251 -160 CURVE SMOOTH",
"248 -161 OFFCURVE",
"240 -165 OFFCURVE",
"236 -170 CURVE",
"179 -217 OFFCURVE",
"153 -270 OFFCURVE",
"153 -307 CURVE SMOOTH",
"153 -335 OFFCURVE",
"171 -354 OFFCURVE",
"205 -354 CURVE SMOOTH"
);
}
);
width = 853;
}
);
note = Eng;
unicode = 014A;
},
{
glyphname = O;
lastChange = "2021-11-02 15:04:40 +0000";
layers = (
{
layerId = "747EDECB-6CB4-4831-9662-77535A1F4B33";
paths = (
{
closed = 1;
nodes = (
"331 -16 OFFCURVE",
"399 45 OFFCURVE",
"440 92 CURVE SMOOTH",
"522 185 OFFCURVE",
"579 377 OFFCURVE",
"579 499 CURVE SMOOTH",
"579 629 OFFCURVE",
"524 724 OFFCURVE",
"383 724 CURVE SMOOTH",
"182 724 OFFCURVE",
"3 497 OFFCURVE",
"3 306 CURVE SMOOTH",
"3 226 OFFCURVE",
"30 158 OFFCURVE",
"112 133 CURVE",
"112 132 LINE SMOOTH",
"125 60 OFFCURVE",
"186 -16 OFFCURVE",
"264 -16 CURVE SMOOTH"
);
},
{
closed = 1;
nodes = (
"204 15 OFFCURVE",
"155 73 OFFCURVE",
"146 126 CURVE",
"173 123 OFFCURVE",
"274 145 OFFCURVE",
"283 172 CURVE",
"283 175 OFFCURVE",
"280 177 OFFCURVE",
"277 177 CURVE SMOOTH",
"266 177 OFFCURVE",
"201 146 OFFCURVE",
"155 148 CURVE SMOOTH",
"144 149 LINE",
"143 168 OFFCURVE",
"142 188 OFFCURVE",
"142 207 CURVE SMOOTH",
"142 317 OFFCURVE",
"165 482 OFFCURVE",
"243 565 CURVE",
"246 573 LINE",
"246 582 OFFCURVE",
"238 588 OFFCURVE",
"230 588 CURVE SMOOTH",
"225 588 OFFCURVE",
"221 586 OFFCURVE",
"218 583 CURVE SMOOTH",
"134 501 OFFCURVE",
"109 312 OFFCURVE",
"109 200 CURVE SMOOTH",
"109 186 OFFCURVE",
"110 171 OFFCURVE",
"110 157 CURVE",
"51 183 OFFCURVE",
"30 239 OFFCURVE",
"30 301 CURVE SMOOTH",
"30 479 OFFCURVE",
"201 698 OFFCURVE",
"389 698 CURVE SMOOTH",
"510 698 OFFCURVE",
"551 604 OFFCURVE",
"551 497 CURVE SMOOTH",
"551 375 OFFCURVE",
"495 204 OFFCURVE",
"415 110 CURVE SMOOTH",
"380 69 OFFCURVE",
"319 15 OFFCURVE",
"261 15 CURVE SMOOTH"
);
}
);
width = 600;
}
);
note = O;
unicode = 004F;
},
{
glyphname = Oslash;
lastChange = "2021-11-02 15:04:40 +0000";
layers = (
{
layerId = "747EDECB-6CB4-4831-9662-77535A1F4B33";
paths = (
{
closed = 1;
nodes = (
"331 -16 OFFCURVE",
"399 45 OFFCURVE",
"440 92 CURVE SMOOTH",
"522 185 OFFCURVE",
"579 377 OFFCURVE",
"579 499 CURVE SMOOTH",
"579 552 OFFCURVE",
"570 599 OFFCURVE",
"549 637 CURVE",
"555 644 LINE",
"556 646 OFFCURVE",
"559 649 OFFCURVE",
"559 651 CURVE SMOOTH",
"559 654 OFFCURVE",
"556 655 OFFCURVE",
"554 655 CURVE SMOOTH",
"550 655 OFFCURVE",
"545 654 OFFCURVE",
"540 652 CURVE",
"508 697 OFFCURVE",
"458 724 OFFCURVE",
"383 724 CURVE SMOOTH",
"182 724 OFFCURVE",
"3 497 OFFCURVE",
"3 306 CURVE SMOOTH",
"3 226 OFFCURVE",
"30 158 OFFCURVE",
"112 133 CURVE",
"112 132 LINE SMOOTH",
"117 104 OFFCURVE",
"129 76 OFFCURVE",
"146 52 CURVE",
"140 39 OFFCURVE",
"137 30 OFFCURVE",
"137 25 CURVE SMOOTH",
"137 18 OFFCURVE",
"141 18 OFFCURVE",
"146 15 CURVE",
"154 16 OFFCURVE",
"160 23 OFFCURVE",
"163 31 CURVE",
"190 3 OFFCURVE",
"225 -16 OFFCURVE",
"264 -16 CURVE SMOOTH"
);
},
{
closed = 1;
nodes = (
"154 97 OFFCURVE",
"148 112 OFFCURVE",
"146 126 CURVE",
"154 125 OFFCURVE",
"169 127 OFFCURVE",
"186 130 CURVE",
"161 83 LINE"
);
},
{
closed = 1;
nodes = (
"228 15 OFFCURVE",
"197 35 OFFCURVE",
"176 61 CURVE",
"185 83 OFFCURVE",
"197 108 OFFCURVE",
"212 136 CURVE",
"245 144 OFFCURVE",
"278 157 OFFCURVE",
"283 172 CURVE",
"283 175 OFFCURVE",
"280 177 OFFCURVE",
"277 177 CURVE SMOOTH",
"271 177 OFFCURVE",
"251 169 OFFCURVE",
"227 161 CURVE",
"308 304 OFFCURVE",
"446 500 OFFCURVE",
"530 611 CURVE",
"545 579 OFFCURVE",
"551 539 OFFCURVE",
"551 497 CURVE SMOOTH",
"551 375 OFFCURVE",
"495 204 OFFCURVE",
"415 110 CURVE SMOOTH",
"380 69 OFFCURVE",
"319 15 OFFCURVE",
"261 15 CURVE SMOOTH"
);
},
{
closed = 1;
nodes = (
"144 149 LINE",
"143 168 OFFCURVE",
"142 188 OFFCURVE",
"142 207 CURVE SMOOTH",
"142 317 OFFCURVE",
"165 482 OFFCURVE",
"243 565 CURVE",
"246 573 LINE",
"246 582 OFFCURVE",
"238 588 OFFCURVE",
"230 588 CURVE SMOOTH",
"225 588 OFFCURVE",
"221 586 OFFCURVE",
"218 583 CURVE SMOOTH",
"134 501 OFFCURVE",
"109 312 OFFCURVE",
"109 200 CURVE SMOOTH",
"109 186 OFFCURVE",
"110 171 OFFCURVE",
"110 157 CURVE",
"51 183 OFFCURVE",
"30 239 OFFCURVE",
"30 301 CURVE SMOOTH",
"30 479 OFFCURVE",
"201 698 OFFCURVE",
"389 698 CURVE SMOOTH",
"448 698 OFFCURVE",
"487 676 OFFCURVE",
"513 642 CURVE",
"504 637 OFFCURVE",
"497 632 OFFCURVE",
"493 627 CURVE SMOOTH",
"452 577 OFFCURVE",
"290 316 OFFCURVE",
"199 154 CURVE",
"184 150 OFFCURVE",
"169 148 OFFCURVE",
"155 148 CURVE SMOOTH"
);
}
);
width = 600;
}
);
note = Oslash;
unicode = 00D8;
},
{
glyphname = OE;
lastChange = "2021-11-02 15:04:40 +0000";
layers = (
{
layerId = "747EDECB-6CB4-4831-9662-77535A1F4B33";
paths = (
{
closed = 1;
nodes = (
"779 -56 OFFCURVE",
"972 48 OFFCURVE",
"1035 150 CURVE SMOOTH",
"1037 153 OFFCURVE",
"1040 159 OFFCURVE",
"1040 164 CURVE SMOOTH",
"1040 166 OFFCURVE",
"1038 170 OFFCURVE",
"1035 170 CURVE SMOOTH",
"1030 170 OFFCURVE",
"1027 165 OFFCURVE",
"1025 162 CURVE SMOOTH",
"950 64 OFFCURVE",
"784 -26 OFFCURVE",
"661 -26 CURVE SMOOTH",
"574 -26 OFFCURVE",
"519 57 OFFCURVE",
"519 137 CURVE SMOOTH",
"519 177 OFFCURVE",
"522 217 OFFCURVE",
"531 257 CURVE",
"543 293 LINE",
"639 360 OFFCURVE",
"857 432 OFFCURVE",
"970 432 CURVE SMOOTH",
"999 432 OFFCURVE",
"1026 416 OFFCURVE",
"1044 416 CURVE SMOOTH",
"1048 416 OFFCURVE",
"1056 417 OFFCURVE",
"1056 423 CURVE SMOOTH",
"1056 443 OFFCURVE",
"959 450 OFFCURVE",
"945 450 CURVE SMOOTH",
"818 450 OFFCURVE",
"666 401 OFFCURVE",
"556 338 CURVE",
"561 358 LINE",
"627 520 OFFCURVE",
"776 672 OFFCURVE",
"961 672 CURVE SMOOTH",
"987 672 OFFCURVE",
"1052 666 OFFCURVE",
"1052 629 CURVE SMOOTH",
"1052 573 OFFCURVE",
"1026 545 OFFCURVE",
"1026 531 CURVE SMOOTH",
"1026 527 OFFCURVE",
"1028 517 OFFCURVE",
"1034 517 CURVE SMOOTH",
"1059 517 OFFCURVE",
"1072 609 OFFCURVE",
"1072 625 CURVE SMOOTH",
"1072 678 OFFCURVE",
"1004 702 OFFCURVE",
"961 702 CURVE SMOOTH",
"800 702 OFFCURVE",
"663 604 OFFCURVE",
"579 472 CURVE",
"579 499 LINE SMOOTH",
"579 629 OFFCURVE",
"524 724 OFFCURVE",
"383 724 CURVE SMOOTH",
"182 724 OFFCURVE",
"3 497 OFFCURVE",
"3 306 CURVE SMOOTH",
"3 226 OFFCURVE",
"30 158 OFFCURVE",
"112 133 CURVE",
"112 132 LINE SMOOTH",
"125 60 OFFCURVE",
"186 -16 OFFCURVE",
"264 -16 CURVE SMOOTH",
"331 -16 OFFCURVE",
"399 45 OFFCURVE",
"440 92 CURVE SMOOTH",
"455 109 OFFCURVE",
"469 130 OFFCURVE",
"483 153 CURVE",
"483 137 LINE SMOOTH",
"483 39 OFFCURVE",
"558 -56 OFFCURVE",
"661 -56 CURVE SMOOTH"
);
},
{
closed = 1;
nodes = (
"204 15 OFFCURVE",
"155 73 OFFCURVE",
"146 126 CURVE",
"173 123 OFFCURVE",
"274 145 OFFCURVE",
"283 172 CURVE",
"283 175 OFFCURVE",
"280 177 OFFCURVE",
"277 177 CURVE SMOOTH",
"266 177 OFFCURVE",
"201 146 OFFCURVE",
"155 148 CURVE SMOOTH",
"144 149 LINE",
"143 168 OFFCURVE",
"142 188 OFFCURVE",
"142 207 CURVE SMOOTH",
"142 317 OFFCURVE",
"165 482 OFFCURVE",
"243 565 CURVE",
"246 573 LINE",
"246 582 OFFCURVE",
"238 588 OFFCURVE",
"230 588 CURVE SMOOTH",
"225 588 OFFCURVE",
"221 586 OFFCURVE",
"218 583 CURVE SMOOTH",
"134 501 OFFCURVE",
"109 312 OFFCURVE",
"109 200 CURVE SMOOTH",
"109 186 OFFCURVE",
"110 171 OFFCURVE",
"110 157 CURVE",
"51 183 OFFCURVE",
"30 239 OFFCURVE",
"30 301 CURVE SMOOTH",
"30 479 OFFCURVE",
"201 698 OFFCURVE",
"389 698 CURVE SMOOTH",
"510 698 OFFCURVE",
"551 604 OFFCURVE",
"551 497 CURVE SMOOTH",
"551 470 OFFCURVE",
"548 439 OFFCURVE",
"543 408 CURVE",
"526 374 OFFCURVE",
"513 338 OFFCURVE",
"504 302 CURVE",
"487 289 OFFCURVE",
"438 245 OFFCURVE",
"438 223 CURVE SMOOTH",
"438 213 OFFCURVE",
"448 207 OFFCURVE",
"457 207 CURVE SMOOTH",
"470 207 OFFCURVE",
"483 238 OFFCURVE",
"492 248 CURVE",
"489 232 LINE",
"468 185 OFFCURVE",
"443 143 OFFCURVE",
"415 110 CURVE SMOOTH",
"380 69 OFFCURVE",
"319 15 OFFCURVE",
"261 15 CURVE SMOOTH"
);
}
);
width = 1018;
}
);
note = OE;
unicode = 0152;
},
{
glyphname = P;
lastChange = "2021-11-02 15:04:42 +0000";
layers = (
{
layerId = "747EDECB-6CB4-4831-9662-77535A1F4B33";
paths = (
{
closed = 1;
nodes = (
"255 249 OFFCURVE",
"560 367 OFFCURVE",
"560 514 CURVE SMOOTH",
"560 651 OFFCURVE",
"371 687 OFFCURVE",
"267 687 CURVE SMOOTH",
"177 687 OFFCURVE",
"-8 659 OFFCURVE",
"-52 566 CURVE SMOOTH",
"-53 563 OFFCURVE",
"-55 559 OFFCURVE",
"-55 556 CURVE SMOOTH",
"-55 553 OFFCURVE",
"-53 548 OFFCURVE",
"-49 548 CURVE SMOOTH",
"-43 548 OFFCURVE",
"-40 554 OFFCURVE",
"-38 558 CURVE SMOOTH",
"9 636 OFFCURVE",
"191 657 OFFCURVE",
"273 657 CURVE SMOOTH",
"360 657 OFFCURVE",
"530 634 OFFCURVE",
"530 516 CURVE SMOOTH",
"530 465 OFFCURVE",
"478 415 OFFCURVE",
"439 389 CURVE SMOOTH",
"349 328 OFFCURVE",
"254 290 OFFCURVE",
"148 270 CURVE SMOOTH",
"141 269 OFFCURVE",
"124 264 OFFCURVE",
"124 254 CURVE SMOOTH",
"124 249 OFFCURVE",
"131 249 OFFCURVE",
"134 249 CURVE SMOOTH"
);
},
{
closed = 1;
nodes = (
"152 -11 OFFCURVE",
"160 -12 OFFCURVE",
"163 -6 CURVE",
"162 3 OFFCURVE",
"144 7 OFFCURVE",
"137 8 CURVE SMOOTH",
"95 16 OFFCURVE",
"89 91 OFFCURVE",
"89 123 CURVE SMOOTH",
"89 327 OFFCURVE",
"259 551 OFFCURVE",
"259 564 CURVE SMOOTH",
"259 576 OFFCURVE",
"245 584 OFFCURVE",
"235 584 CURVE SMOOTH",
"225 584 OFFCURVE",
"169 537 OFFCURVE",
"190 537 CURVE SMOOTH",
"191 537 OFFCURVE",
"192 537 OFFCURVE",
"192 530 CURVE SMOOTH",
"192 528 OFFCURVE",
"191 525 OFFCURVE",
"190 523 CURVE SMOOTH",
"120 400 OFFCURVE",
"59 271 OFFCURVE",
"59 126 CURVE SMOOTH",
"59 62 OFFCURVE",
"66 -11 OFFCURVE",
"147 -11 CURVE SMOOTH"
);
}
);
width = 520;
}
);
note = P;
unicode = 0050;
},
{
glyphname = Thorn;
lastChange = "2021-11-02 15:04:42 +0000";
layers = (
{
layerId = "747EDECB-6CB4-4831-9662-77535A1F4B33";
paths = (
{
closed = 1;
nodes = (
"150 -192 OFFCURVE",
"158 -193 OFFCURVE",
"161 -187 CURVE",
"160 -178 OFFCURVE",
"142 -174 OFFCURVE",
"135 -173 CURVE SMOOTH",
"93 -165 OFFCURVE",
"87 -90 OFFCURVE",
"87 -58 CURVE SMOOTH",
"87 4 OFFCURVE",
"109 98 OFFCURVE",
"139 199 CURVE",
"248 209 OFFCURVE",
"466 292 OFFCURVE",
"466 383 CURVE SMOOTH",
"466 478 OFFCURVE",
"333 505 OFFCURVE",
"247 509 CURVE",
"286 612 OFFCURVE",
"318 688 OFFCURVE",
"318 693 CURVE SMOOTH",
"318 705 OFFCURVE",
"304 713 OFFCURVE",
"294 713 CURVE SMOOTH",
"284 713 OFFCURVE",
"228 666 OFFCURVE",
"249 666 CURVE SMOOTH",
"250 666 OFFCURVE",
"251 666 OFFCURVE",
"251 659 CURVE SMOOTH",
"251 657 OFFCURVE",
"250 654 OFFCURVE",
"249 652 CURVE SMOOTH",
"231 621 OFFCURVE",
"210 569 OFFCURVE",
"188 507 CURVE",
"109 499 OFFCURVE",
"-3 469 OFFCURVE",
"-34 418 CURVE SMOOTH",
"-35 416 OFFCURVE",
"-36 413 OFFCURVE",
"-36 411 CURVE SMOOTH",
"-36 409 OFFCURVE",
"-35 406 OFFCURVE",
"-32 406 CURVE SMOOTH",
"-27 406 OFFCURVE",
"-25 409 OFFCURVE",
"-23 412 CURVE SMOOTH",
"7 452 OFFCURVE",
"104 470 OFFCURVE",
"177 475 CURVE",
"117 295 OFFCURVE",
"57 47 OFFCURVE",
"57 -55 CURVE SMOOTH",
"57 -119 OFFCURVE",
"64 -192 OFFCURVE",
"145 -192 CURVE SMOOTH"
);
},
{
closed = 1;
nodes = (
"174 311 OFFCURVE",
"206 400 OFFCURVE",
"235 478 CURVE",
"307 477 OFFCURVE",
"433 457 OFFCURVE",
"433 384 CURVE SMOOTH",
"433 350 OFFCURVE",
"394 320 OFFCURVE",
"364 302 CURVE SMOOTH",
"300 266 OFFCURVE",
"226 239 OFFCURVE",
"147 225 CURVE"
);
}
);
width = 520;
}
);
note = Thorn;
unicode = 00DE;
},
{
glyphname = Q;
lastChange = "2021-11-02 15:04:40 +0000";
layers = (
{
layerId = "747EDECB-6CB4-4831-9662-77535A1F4B33";
paths = (
{
closed = 1;
nodes = (
"712 -161 OFFCURVE",
"800 -128 OFFCURVE",
"800 -88 CURVE SMOOTH",
"800 -83 OFFCURVE",
"797 -80 OFFCURVE",
"793 -80 CURVE SMOOTH",
"775 -80 OFFCURVE",
"762 -141 OFFCURVE",
"686 -141 CURVE SMOOTH",
"578 -141 OFFCURVE",
"440 -31 OFFCURVE",
"348 24 CURVE",
"481 130 OFFCURVE",
"545 311 OFFCURVE",
"545 476 CURVE SMOOTH",
"545 588 OFFCURVE",
"495 724 OFFCURVE",
"363 724 CURVE SMOOTH",
"162 724 OFFCURVE",
"-3 495 OFFCURVE",
"-3 306 CURVE SMOOTH",
"-3 251 OFFCURVE",
"12 171 OFFCURVE",
"83 171 CURVE SMOOTH",
"90 171 OFFCURVE",
"105 172 OFFCURVE",
"105 183 CURVE SMOOTH",
"105 193 OFFCURVE",
"92 193 OFFCURVE",
"86 194 CURVE SMOOTH",
"39 200 OFFCURVE",
"37 227 OFFCURVE",
"32 271 CURVE SMOOTH",
"31 282 OFFCURVE",
"30 294 OFFCURVE",
"30 305 CURVE SMOOTH",
"30 494 OFFCURVE",
"183 702 OFFCURVE",
"383 702 CURVE SMOOTH",
"490 702 OFFCURVE",
"514 564 OFFCURVE",
"514 482 CURVE SMOOTH",
"514 319 OFFCURVE",
"457 139 OFFCURVE",
"320 40 CURVE",
"274 65 OFFCURVE",
"232 84 OFFCURVE",
"178 84 CURVE SMOOTH",
"171 84 OFFCURVE",
"164 84 OFFCURVE",
"157 83 CURVE",
"143 113 OFFCURVE",
"140 137 OFFCURVE",
"140 170 CURVE SMOOTH",
"140 281 OFFCURVE",
"186 394 OFFCURVE",
"246 486 CURVE SMOOTH",
"260 508 OFFCURVE",
"279 527 OFFCURVE",
"293 549 CURVE",
"296 556 LINE",
"295 566 OFFCURVE",
"285 572 OFFCURVE",
"276 572 CURVE SMOOTH",
"271 572 OFFCURVE",
"267 570 OFFCURVE",
"264 567 CURVE SMOOTH",
"174 475 OFFCURVE",
"109 302 OFFCURVE",
"109 174 CURVE SMOOTH",
"109 136 OFFCURVE",
"112 111 OFFCURVE",
"129 76 CURVE",
"90 62 OFFCURVE",
"56 29 OFFCURVE",
"56 -14 CURVE SMOOTH",
"56 -23 OFFCURVE",
"57 -34 OFFCURVE",
"66 -37 CURVE",
"76 -37 OFFCURVE",
"76 -25 OFFCURVE",
"76 -19 CURVE SMOOTH",
"76 25 OFFCURVE",
"109 39 OFFCURVE",
"149 43 CURVE",
"174 12 OFFCURVE",
"211 -16 OFFCURVE",
"253 -16 CURVE SMOOTH",
"274 -16 OFFCURVE",
"296 -9 OFFCURVE",
"314 2 CURVE",
"417 -50 OFFCURVE",
"557 -161 OFFCURVE",
"673 -161 CURVE SMOOTH"
);
},
{
closed = 1;
nodes = (
"226 15 OFFCURVE",
"203 27 OFFCURVE",
"186 43 CURVE",
"216 43 OFFCURVE",
"250 31 OFFCURVE",
"277 19 CURVE",
"268 17 OFFCURVE",
"259 15 OFFCURVE",
"250 15 CURVE SMOOTH"
);
}
);
width = 538;
}
);
note = Q;
unicode = 0051;
},
{
glyphname = R;
lastChange = "2021-11-02 15:04:42 +0000";
layers = (
{
layerId = "747EDECB-6CB4-4831-9662-77535A1F4B33";
paths = (
{
closed = 1;
nodes = (
"533 -22 OFFCURVE",
"598 11 OFFCURVE",
"598 40 CURVE SMOOTH",
"598 44 OFFCURVE",
"595 48 OFFCURVE",
"590 48 CURVE SMOOTH",
"585 48 OFFCURVE",
"560 8 OFFCURVE",
"505 8 CURVE SMOOTH",
"404 8 OFFCURVE",
"300 196 OFFCURVE",
"252 272 CURVE",
"354 294 OFFCURVE",
"560 391 OFFCURVE",
"560 514 CURVE SMOOTH",
"560 649 OFFCURVE",
"360 690 OFFCURVE",
"257 690 CURVE SMOOTH",
"181 690 OFFCURVE",
"-16 641 OFFCURVE",
"-52 566 CURVE SMOOTH",
"-53 563 OFFCURVE",
"-55 559 OFFCURVE",
"-55 556 CURVE SMOOTH",
"-55 553 OFFCURVE",
"-53 548 OFFCURVE",
"-49 548 CURVE SMOOTH",
"-43 548 OFFCURVE",
"-40 554 OFFCURVE",
"-38 558 CURVE SMOOTH",
"3 625 OFFCURVE",
"187 659 OFFCURVE",
"260 659 CURVE SMOOTH",
"347 659 OFFCURVE",
"530 634 OFFCURVE",
"530 516 CURVE SMOOTH",
"530 423 OFFCURVE",
"325 305 OFFCURVE",
"244 285 CURVE",
"232 304 OFFCURVE",
"210 322 OFFCURVE",
"185 322 CURVE SMOOTH",
"174 322 OFFCURVE",
"155 319 OFFCURVE",
"155 304 CURVE SMOOTH",
"155 289 OFFCURVE",
"173 268 OFFCURVE",
"185 260 CURVE",
"192 253 OFFCURVE",
"211 247 OFFCURVE",
"221 243 CURVE",
"288 165 OFFCURVE",
"394 -22 OFFCURVE",
"508 -22 CURVE SMOOTH"
);
},
{
closed = 1;
nodes = (
"152 -11 OFFCURVE",
"160 -12 OFFCURVE",
"163 -6 CURVE",
"162 3 OFFCURVE",
"144 7 OFFCURVE",
"137 8 CURVE SMOOTH",
"95 16 OFFCURVE",
"89 91 OFFCURVE",
"89 123 CURVE SMOOTH",
"89 327 OFFCURVE",
"259 551 OFFCURVE",
"259 564 CURVE SMOOTH",
"259 576 OFFCURVE",
"245 584 OFFCURVE",
"235 584 CURVE SMOOTH",
"225 584 OFFCURVE",
"169 537 OFFCURVE",
"190 537 CURVE SMOOTH",
"191 537 OFFCURVE",
"192 537 OFFCURVE",
"192 530 CURVE SMOOTH",
"192 528 OFFCURVE",
"191 525 OFFCURVE",
"190 523 CURVE SMOOTH",
"120 400 OFFCURVE",
"59 271 OFFCURVE",
"59 126 CURVE SMOOTH",
"59 62 OFFCURVE",
"66 -11 OFFCURVE",
"147 -11 CURVE SMOOTH"
);
}
);
width = 520;
}
);
note = R;
unicode = 0052;
},
{
glyphname = S;
lastChange = "2021-11-02 15:04:40 +0000";
layers = (
{
layerId = "747EDECB-6CB4-4831-9662-77535A1F4B33";
paths = (
{
closed = 1;
nodes = (
"210 -57 OFFCURVE",
"483 100 OFFCURVE",
"483 241 CURVE SMOOTH",
"483 287 OFFCURVE",
"439 298 OFFCURVE",
"401 298 CURVE SMOOTH",
"314 298 OFFCURVE",
"227 277 OFFCURVE",
"138 277 CURVE SMOOTH",
"99 277 OFFCURVE",
"51 302 OFFCURVE",
"51 346 CURVE SMOOTH",
"51 496 OFFCURVE",
"295 632 OFFCURVE",
"428 632 CURVE SMOOTH",
"491 632 OFFCURVE",
"564 600 OFFCURVE",
"564 528 CURVE SMOOTH",
"564 510 OFFCURVE",
"554 493 OFFCURVE",
"554 476 CURVE SMOOTH",
"554 473 OFFCURVE",
"555 470 OFFCURVE",
"559 470 CURVE SMOOTH",
"580 470 OFFCURVE",
"587 530 OFFCURVE",
"587 546 CURVE SMOOTH",
"587 632 OFFCURVE",
"503 664 OFFCURVE",
"430 662 CURVE SMOOTH",
"416 662 LINE SMOOTH",
"367 661 OFFCURVE",
"321 648 OFFCURVE",
"275 630 CURVE SMOOTH",
"178 590 OFFCURVE",
"5 464 OFFCURVE",
"5 346 CURVE SMOOTH",
"5 274 OFFCURVE",
"68 250 OFFCURVE",
"130 250 CURVE SMOOTH",
"219 250 OFFCURVE",
"310 264 OFFCURVE",
"392 264 CURVE SMOOTH",
"413 264 OFFCURVE",
"446 260 OFFCURVE",
"446 231 CURVE SMOOTH",
"446 222 OFFCURVE",
"443 213 OFFCURVE",
"439 205 CURVE SMOOTH",
"387 94 OFFCURVE",
"192 -24 OFFCURVE",
"70 -24 CURVE SMOOTH",
"46 -24 OFFCURVE",
"30 -10 OFFCURVE",
"30 15 CURVE SMOOTH",
"30 43 OFFCURVE",
"50 60 OFFCURVE",
"50 72 CURVE SMOOTH",
"50 76 OFFCURVE",
"49 80 OFFCURVE",
"44 80 CURVE SMOOTH",
"26 80 OFFCURVE",
"11 25 OFFCURVE",
"11 10 CURVE SMOOTH",
"11 -33 OFFCURVE",
"42 -57 OFFCURVE",
"83 -57 CURVE SMOOTH"
);
}
);
width = 556;
}
);
note = S;
unicode = 0053;
},
{
glyphname = Germandbls;
lastChange = "2021-11-02 15:04:42 +0000";
layers = (
{
layerId = "747EDECB-6CB4-4831-9662-77535A1F4B33";
paths = (
{
closed = 1;
nodes = (
"8 -192 OFFCURVE",
"150 286 OFFCURVE",
"241 570 CURVE SMOOTH",
"277 684 OFFCURVE",
"359 729 OFFCURVE",
"425 729 CURVE SMOOTH",
"479 729 OFFCURVE",
"522 699 OFFCURVE",
"522 651 CURVE SMOOTH",
"522 595 OFFCURVE",
"463 513 OFFCURVE",
"294 426 CURVE SMOOTH",
"285 422 OFFCURVE",
"281 419 OFFCURVE",
"281 416 CURVE SMOOTH",
"281 412 OFFCURVE",
"290 408 OFFCURVE",
"303 406 CURVE SMOOTH",
"438 379 OFFCURVE",
"490 313 OFFCURVE",
"490 244 CURVE SMOOTH",
"490 139 OFFCURVE",
"370 26 OFFCURVE",
"235 26 CURVE SMOOTH",
"197 26 OFFCURVE",
"158 35 OFFCURVE",
"120 56 CURVE SMOOTH",
"107 63 OFFCURVE",
"100 65 OFFCURVE",
"96 65 CURVE SMOOTH",
"93 65 OFFCURVE",
"92 64 OFFCURVE",
"92 62 CURVE SMOOTH",
"92 54 OFFCURVE",
"114 29 OFFCURVE",
"117 27 CURVE SMOOTH",
"149 4 OFFCURVE",
"187 -6 OFFCURVE",
"227 -6 CURVE SMOOTH",
"368 -6 OFFCURVE",
"533 120 OFFCURVE",
"533 244 CURVE SMOOTH",
"533 313 OFFCURVE",
"483 380 OFFCURVE",
"352 426 CURVE",
"500 517 OFFCURVE",
"553 593 OFFCURVE",
"553 648 CURVE SMOOTH",
"553 708 OFFCURVE",
"490 742 OFFCURVE",
"416 742 CURVE SMOOTH",
"332 742 OFFCURVE",
"234 697 OFFCURVE",
"200 592 CURVE SMOOTH",
"169 494 OFFCURVE",
"132 374 OFFCURVE",
"68 179 CURVE SMOOTH",
"-21 -94 OFFCURVE",
"-83 -147 OFFCURVE",
"-120 -165 CURVE SMOOTH",
"-139 -176 OFFCURVE",
"-155 -176 OFFCURVE",
"-164 -176 CURVE SMOOTH",
"-168 -176 OFFCURVE",
"-171 -176 OFFCURVE",
"-172 -177 CURVE",
"-173 -186 OFFCURVE",
"-166 -192 OFFCURVE",
"-149 -192 CURVE SMOOTH"
);
}
);
width = 553;
}
);
unicode = 1E9E;
},
{
glyphname = Schwa;
lastChange = "2021-11-02 15:04:40 +0000";
layers = (
{
layerId = "747EDECB-6CB4-4831-9662-77535A1F4B33";
paths = (
{
closed = 1;
nodes = (
"345 -63 OFFCURVE",
"493 269 OFFCURVE",
"493 498 CURVE SMOOTH",
"493 518 OFFCURVE",
"492 537 OFFCURVE",
"490 555 CURVE SMOOTH",
"481 624 OFFCURVE",
"404 660 OFFCURVE",
"338 660 CURVE SMOOTH",
"256 660 OFFCURVE",
"123 584 OFFCURVE",
"80 521 CURVE SMOOTH",
"73 510 OFFCURVE",
"69 501 OFFCURVE",
"69 495 CURVE SMOOTH",
"69 491 OFFCURVE",
"71 489 OFFCURVE",
"74 489 CURVE SMOOTH",
"79 489 OFFCURVE",
"88 495 OFFCURVE",
"99 508 CURVE SMOOTH",
"147 563 OFFCURVE",
"272 636 OFFCURVE",
"317 636 CURVE SMOOTH",
"426 636 OFFCURVE",
"462 573 OFFCURVE",
"462 475 CURVE SMOOTH",
"462 427 OFFCURVE",
"454 370 OFFCURVE",
"441 309 CURVE",
"395 331 OFFCURVE",
"351 341 OFFCURVE",
"311 341 CURVE SMOOTH",
"192 341 OFFCURVE",
"107 251 OFFCURVE",
"107 108 CURVE SMOOTH",
"107 91 OFFCURVE",
"108 74 OFFCURVE",
"110 57 CURVE SMOOTH",
"116 16 OFFCURVE",
"150 -63 OFFCURVE",
"203 -63 CURVE SMOOTH"
);
},
{
closed = 1;
nodes = (
"178 -47 OFFCURVE",
"155 1 OFFCURVE",
"151 16 CURVE SMOOTH",
"145 38 OFFCURVE",
"142 61 OFFCURVE",
"142 84 CURVE SMOOTH",
"142 200 OFFCURVE",
"213 317 OFFCURVE",
"327 317 CURVE SMOOTH",
"359 317 OFFCURVE",
"395 307 OFFCURVE",
"433 286 CURVE",
"410 235 OFFCURVE",
"349 0 OFFCURVE",
"200 -41 CURVE SMOOTH"
);
}
);
width = 560;
}
);
unicode = 018F;
},
{
glyphname = T;
lastChange = "2021-11-02 15:04:42 +0000";
layers = (
{
layerId = "747EDECB-6CB4-4831-9662-77535A1F4B33";
paths = (
{
closed = 1;
nodes = (
"157 371 OFFCURVE",
"223 388 OFFCURVE",
"223 413 CURVE SMOOTH",
"223 416 OFFCURVE",
"221 419 OFFCURVE",
"217 419 CURVE SMOOTH",
"207 419 OFFCURVE",
"187 392 OFFCURVE",
"149 392 CURVE SMOOTH",
"86 392 OFFCURVE",
"32 458 OFFCURVE",
"32 518 CURVE SMOOTH",
"32 633 OFFCURVE",
"167 698 OFFCURVE",
"267 698 CURVE SMOOTH",
"437 698 OFFCURVE",
"539 571 OFFCURVE",
"674 571 CURVE SMOOTH",
"728 571 OFFCURVE",
"783 599 OFFCURVE",
"783 659 CURVE SMOOTH",
"783 668 OFFCURVE",
"783 692 OFFCURVE",
"770 692 CURVE SMOOTH",
"762 692 OFFCURVE",
"761 683 OFFCURVE",
"761 676 CURVE SMOOTH",
"761 673 LINE SMOOTH",
"761 625 OFFCURVE",
"741 589 OFFCURVE",
"685 589 CURVE SMOOTH",
"577 589 OFFCURVE",
"431 730 OFFCURVE",
"259 730 CURVE SMOOTH",
"141 730 OFFCURVE",
"-7 653 OFFCURVE",
"-7 520 CURVE SMOOTH",
"-7 443 OFFCURVE",
"60 371 OFFCURVE",
"138 371 CURVE SMOOTH"
);
},
{
closed = 1;
nodes = (
"348 -11 OFFCURVE",
"351 -8 OFFCURVE",
"351 -4 CURVE SMOOTH",
"351 5 OFFCURVE",
"339 8 OFFCURVE",
"333 10 CURVE SMOOTH",
"287 24 OFFCURVE",
"286 73 OFFCURVE",
"286 114 CURVE SMOOTH",
"286 251 OFFCURVE",
"335 395 OFFCURVE",
"405 511 CURVE SMOOTH",
"421 537 OFFCURVE",
"441 559 OFFCURVE",
"457 584 CURVE",
"460 592 LINE",
"459 603 OFFCURVE",
"443 607 OFFCURVE",
"434 607 CURVE SMOOTH",
"427 607 OFFCURVE",
"420 605 OFFCURVE",
"415 599 CURVE SMOOTH",
"315 494 OFFCURVE",
"257 243 OFFCURVE",
"257 103 CURVE SMOOTH",
"257 45 OFFCURVE",
"275 -11 OFFCURVE",
"344 -11 CURVE SMOOTH"
);
}
);
width = 464;
}
);
note = T;
unicode = 0054;
},
{
glyphname = U;
lastChange = "2021-11-02 15:04:40 +0000";
layers = (
{
layerId = "747EDECB-6CB4-4831-9662-77535A1F4B33";
paths = (
{
closed = 1;
nodes = (
"691 -70 OFFCURVE",
"751 -25 OFFCURVE",
"751 -3 CURVE SMOOTH",
"751 1 OFFCURVE",
"749 5 OFFCURVE",
"744 5 CURVE SMOOTH",
"730 5 OFFCURVE",
"706 -40 OFFCURVE",
"676 -40 CURVE SMOOTH",
"635 -40 OFFCURVE",
"630 76 OFFCURVE",
"630 104 CURVE SMOOTH",
"630 150 OFFCURVE",
"658 360 OFFCURVE",
"673 400 CURVE SMOOTH",
"703 480 OFFCURVE",
"784 586 OFFCURVE",
"784 674 CURVE SMOOTH",
"784 692 OFFCURVE",
"779 701 OFFCURVE",
"761 701 CURVE SMOOTH",
"751 701 OFFCURVE",
"744 698 OFFCURVE",
"737 691 CURVE SMOOTH",
"700 655 OFFCURVE",
"660 528 OFFCURVE",
"647 476 CURVE SMOOTH",
"642 453 OFFCURVE",
"639 424 OFFCURVE",
"631 403 CURVE SMOOTH",
"620 375 OFFCURVE",
"596 349 OFFCURVE",
"583 320 CURVE SMOOTH",
"546 239 OFFCURVE",
"409 0 OFFCURVE",
"313 0 CURVE SMOOTH",
"252 0 OFFCURVE",
"246 77 OFFCURVE",
"246 123 CURVE SMOOTH",
"246 298 OFFCURVE",
"391 474 OFFCURVE",
"391 633 CURVE SMOOTH",
"391 682 OFFCURVE",
"372 721 OFFCURVE",
"317 721 CURVE SMOOTH",
"185 721 OFFCURVE",
"-10 478 OFFCURVE",
"-10 354 CURVE SMOOTH",
"-10 302 OFFCURVE",
"31 255 OFFCURVE",
"85 255 CURVE SMOOTH",
"92 255 OFFCURVE",
"105 253 OFFCURVE",
"109 261 CURVE",
"107 270 OFFCURVE",
"93 272 OFFCURVE",
"86 272 CURVE SMOOTH",
"41 272 OFFCURVE",
"19 302 OFFCURVE",
"19 344 CURVE SMOOTH",
"19 459 OFFCURVE",
"196 688 OFFCURVE",
"319 688 CURVE SMOOTH",
"343 688 OFFCURVE",
"346 656 OFFCURVE",
"346 639 CURVE SMOOTH",
"346 460 OFFCURVE",
"212 307 OFFCURVE",
"212 127 CURVE SMOOTH",
"212 60 OFFCURVE",
"234 -30 OFFCURVE",
"317 -30 CURVE SMOOTH",
"354 -30 OFFCURVE",
"434 49 OFFCURVE",
"456 77 CURVE SMOOTH",
"516 154 OFFCURVE",
"569 235 OFFCURVE",
"612 322 CURVE",
"601 253 OFFCURVE",
"594 180 OFFCURVE",
"594 110 CURVE SMOOTH",
"594 64 OFFCURVE",
"602 -70 OFFCURVE",
"670 -70 CURVE SMOOTH"
);
}
);
width = 764;
}
);
note = U;
unicode = 0055;
},
{
glyphname = V;
lastChange = "2021-11-02 15:04:40 +0000";
layers = (
{
layerId = "747EDECB-6CB4-4831-9662-77535A1F4B33";
paths = (
{
closed = 1;
nodes = (
"390 -78 OFFCURVE",
"403 -30 OFFCURVE",
"406 -9 CURVE SMOOTH",
"411 27 OFFCURVE",
"409 65 OFFCURVE",
"415 101 CURVE SMOOTH",
"426 170 OFFCURVE",
"501 313 OFFCURVE",
"538 373 CURVE SMOOTH",
"594 465 OFFCURVE",
"716 639 OFFCURVE",
"834 639 CURVE SMOOTH",
"841 639 OFFCURVE",
"848 637 OFFCURVE",
"848 629 CURVE SMOOTH",
"848 618 OFFCURVE",
"840 609 OFFCURVE",
"840 599 CURVE SMOOTH",
"840 594 OFFCURVE",
"843 588 OFFCURVE",
"848 588 CURVE SMOOTH",
"862 588 OFFCURVE",
"869 629 OFFCURVE",
"869 640 CURVE SMOOTH",
"869 662 OFFCURVE",
"858 680 OFFCURVE",
"834 680 CURVE SMOOTH",
"662 680 OFFCURVE",
"479 338 OFFCURVE",
"416 192 CURVE",
"416 323 OFFCURVE",
"409 710 OFFCURVE",
"216 710 CURVE SMOOTH",
"70 710 OFFCURVE",
"-31 495 OFFCURVE",
"-31 370 CURVE SMOOTH",
"-31 306 OFFCURVE",
"-2 243 OFFCURVE",
"70 243 CURVE SMOOTH",
"104 243 OFFCURVE",
"199 303 OFFCURVE",
"199 339 CURVE SMOOTH",
"199 341 OFFCURVE",
"199 343 OFFCURVE",
"198 344 CURVE",
"184 343 OFFCURVE",
"133 265 OFFCURVE",
"70 265 CURVE SMOOTH",
"15 265 OFFCURVE",
"-1 323 OFFCURVE",
"-1 368 CURVE SMOOTH",
"-1 478 OFFCURVE",
"82 682 OFFCURVE",
"213 682 CURVE SMOOTH",
"346 682 OFFCURVE",
"385 374 OFFCURVE",
"385 278 CURVE SMOOTH",
"385 225 OFFCURVE",
"387 173 OFFCURVE",
"387 120 CURVE",
"374 86 OFFCURVE",
"341 -10 OFFCURVE",
"341 -44 CURVE SMOOTH",
"341 -57 OFFCURVE",
"344 -78 OFFCURVE",
"361 -78 CURVE SMOOTH"
);
}
);
width = 546;
}
);
note = V;
unicode = 0056;
},
{
glyphname = W;
lastChange = "2021-11-02 15:04:42 +0000";
layers = (
{
layerId = "747EDECB-6CB4-4831-9662-77535A1F4B33";
paths = (
{
closed = 1;
nodes = (
"394 -98 OFFCURVE",
"396 97 OFFCURVE",
"411 151 CURVE SMOOTH",
"427 210 OFFCURVE",
"566 397 OFFCURVE",
"621 419 CURVE",
"624 415 LINE",
"597 308 OFFCURVE",
"557 208 OFFCURVE",
"557 95 CURVE SMOOTH",
"557 55 OFFCURVE",
"572 -16 OFFCURVE",
"624 -16 CURVE SMOOTH",
"707 -16 OFFCURVE",
"813 175 OFFCURVE",
"844 243 CURVE SMOOTH",
"877 314 OFFCURVE",
"909 416 OFFCURVE",
"909 494 CURVE SMOOTH",
"909 557 OFFCURVE",
"886 609 OFFCURVE",
"816 609 CURVE SMOOTH",
"803 609 OFFCURVE",
"773 588 OFFCURVE",
"765 577 CURVE",
"771 573 LINE",
"786 575 OFFCURVE",
"799 583 OFFCURVE",
"813 583 CURVE SMOOTH",
"867 583 OFFCURVE",
"881 550 OFFCURVE",
"881 502 CURVE SMOOTH",
"881 429 OFFCURVE",
"844 319 OFFCURVE",
"813 252 CURVE SMOOTH",
"787 196 OFFCURVE",
"685 9 OFFCURVE",
"619 9 CURVE SMOOTH",
"587 9 OFFCURVE",
"585 75 OFFCURVE",
"585 97 CURVE SMOOTH",
"585 166 OFFCURVE",
"602 233 OFFCURVE",
"623 298 CURVE SMOOTH",
"630 316 OFFCURVE",
"669 422 OFFCURVE",
"669 430 CURVE SMOOTH",
"669 444 OFFCURVE",
"651 449 OFFCURVE",
"640 449 CURVE SMOOTH",
"581 449 OFFCURVE",
"444 270 OFFCURVE",
"417 217 CURVE",
"421 267 OFFCURVE",
"422 318 OFFCURVE",
"422 369 CURVE SMOOTH",
"422 465 OFFCURVE",
"422 749 OFFCURVE",
"281 749 CURVE SMOOTH",
"222 749 OFFCURVE",
"164 703 OFFCURVE",
"122 665 CURVE SMOOTH",
"26 578 OFFCURVE",
"-44 469 OFFCURVE",
"-48 336 CURVE SMOOTH",
"-49 307 LINE SMOOTH",
"-50 263 OFFCURVE",
"-34 215 OFFCURVE",
"19 215 CURVE SMOOTH",
"95 215 OFFCURVE",
"281 359 OFFCURVE",
"297 431 CURVE",
"291 439 LINE",
"273 436 OFFCURVE",
"161 253 OFFCURVE",
"37 253 CURVE SMOOTH",
"-5 253 OFFCURVE",
"-18 286 OFFCURVE",
"-18 323 CURVE SMOOTH",
"-18 443 OFFCURVE",
"50 568 OFFCURVE",
"137 648 CURVE SMOOTH",
"171 679 OFFCURVE",
"215 715 OFFCURVE",
"263 715 CURVE SMOOTH",
"390 715 OFFCURVE",
"392 432 OFFCURVE",
"392 333 CURVE SMOOTH",
"392 272 OFFCURVE",
"389 213 OFFCURVE",
"382 153 CURVE",
"353 98 OFFCURVE",
"297 -8 OFFCURVE",
"297 -68 CURVE SMOOTH",
"297 -80 OFFCURVE",
"299 -98 OFFCURVE",
"316 -98 CURVE SMOOTH"
);
}
);
width = 876;
}
);
note = W;
unicode = 0057;
},
{
glyphname = X;
lastChange = "2021-11-02 15:04:40 +0000";
layers = (
{
layerId = "747EDECB-6CB4-4831-9662-77535A1F4B33";
paths = (
{
closed = 1;
nodes = (
"72 -41 OFFCURVE",
"75 -38 OFFCURVE",
"75 -33 CURVE SMOOTH",
"75 -17 OFFCURVE",
"54 -22 OFFCURVE",
"54 10 CURVE SMOOTH",
"54 120 OFFCURVE",
"149 258 OFFCURVE",
"220 338 CURVE",
"250 269 OFFCURVE",
"360 -1 OFFCURVE",
"441 -1 CURVE SMOOTH",
"512 -1 OFFCURVE",
"518 170 OFFCURVE",
"518 221 CURVE SMOOTH",
"518 226 OFFCURVE",
"516 234 OFFCURVE",
"511 237 CURVE",
"490 234 OFFCURVE",
"507 43 OFFCURVE",
"444 43 CURVE SMOOTH",
"380 43 OFFCURVE",
"274 311 OFFCURVE",
"249 370 CURVE",
"325 449 OFFCURVE",
"408 521 OFFCURVE",
"505 574 CURVE SMOOTH",
"516 580 OFFCURVE",
"520 595 OFFCURVE",
"520 607 CURVE SMOOTH",
"520 618 OFFCURVE",
"515 628 OFFCURVE",
"503 628 CURVE SMOOTH",
"451 628 OFFCURVE",
"275 439 OFFCURVE",
"237 397 CURVE",
"202 478 OFFCURVE",
"158 560 OFFCURVE",
"77 603 CURVE SMOOTH",
"75 604 OFFCURVE",
"70 606 OFFCURVE",
"67 606 CURVE SMOOTH",
"56 606 OFFCURVE",
"49 597 OFFCURVE",
"49 587 CURVE SMOOTH",
"49 580 OFFCURVE",
"53 574 OFFCURVE",
"58 570 CURVE SMOOTH",
"124 508 OFFCURVE",
"172 449 OFFCURVE",
"209 365 CURVE",
"138 284 OFFCURVE",
"25 127 OFFCURVE",
"25 18 CURVE SMOOTH",
"25 -2 OFFCURVE",
"43 -41 OFFCURVE",
"68 -41 CURVE SMOOTH"
);
}
);
width = 534;
}
);
note = X;
unicode = 0058;
},
{
glyphname = Y;
lastChange = "2021-11-02 15:04:42 +0000";
layers = (
{
layerId = "747EDECB-6CB4-4831-9662-77535A1F4B33";
paths = (
{
closed = 1;
nodes = (
"293 -235 OFFCURVE",
"360 -158 OFFCURVE",
"389 -123 CURVE SMOOTH",
"480 -8 OFFCURVE",
"522 129 OFFCURVE",
"550 271 CURVE",
"579 285 OFFCURVE",
"617 298 OFFCURVE",
"650 298 CURVE SMOOTH",
"707 298 OFFCURVE",
"689 257 OFFCURVE",
"705 248 CURVE",
"710 249 OFFCURVE",
"711 256 OFFCURVE",
"711 261 CURVE SMOOTH",
"711 265 LINE SMOOTH",
"711 302 OFFCURVE",
"682 321 OFFCURVE",
"648 321 CURVE SMOOTH",
"617 321 OFFCURVE",
"585 311 OFFCURVE",
"556 300 CURVE",
"571 382 OFFCURVE",
"588 472 OFFCURVE",
"588 555 CURVE SMOOTH",
"588 578 OFFCURVE",
"587 626 OFFCURVE",
"554 626 CURVE SMOOTH",
"537 626 OFFCURVE",
"530 616 OFFCURVE",
"524 601 CURVE SMOOTH",
"494 522 OFFCURVE",
"474 443 OFFCURVE",
"425 372 CURVE SMOOTH",
"394 326 OFFCURVE",
"263 125 OFFCURVE",
"210 125 CURVE SMOOTH",
"190 125 OFFCURVE",
"186 156 OFFCURVE",
"186 171 CURVE SMOOTH",
"186 301 OFFCURVE",
"397 537 OFFCURVE",
"397 680 CURVE SMOOTH",
"397 723 OFFCURVE",
"377 755 OFFCURVE",
"330 755 CURVE SMOOTH",
"191 755 OFFCURVE",
"-18 551 OFFCURVE",
"-18 410 CURVE SMOOTH",
"-18 371 OFFCURVE",
"9 335 OFFCURVE",
"50 335 CURVE SMOOTH",
"76 335 OFFCURVE",
"167 381 OFFCURVE",
"167 409 CURVE SMOOTH",
"167 413 OFFCURVE",
"164 416 OFFCURVE",
"159 416 CURVE SMOOTH",
"152 416 OFFCURVE",
"99 365 OFFCURVE",
"50 365 CURVE SMOOTH",
"26 365 OFFCURVE",
"12 388 OFFCURVE",
"12 410 CURVE SMOOTH",
"12 538 OFFCURVE",
"201 725 OFFCURVE",
"328 725 CURVE SMOOTH",
"348 725 OFFCURVE",
"358 718 OFFCURVE",
"358 696 CURVE SMOOTH",
"358 554 OFFCURVE",
"156 313 OFFCURVE",
"156 165 CURVE SMOOTH",
"156 137 OFFCURVE",
"167 100 OFFCURVE",
"201 100 CURVE SMOOTH",
"274 100 OFFCURVE",
"409 296 OFFCURVE",
"450 355 CURVE SMOOTH",
"487 409 OFFCURVE",
"516 470 OFFCURVE",
"542 529 CURVE",
"542 504 LINE SMOOTH",
"543 430 OFFCURVE",
"529 355 OFFCURVE",
"516 282 CURVE",
"381 208 OFFCURVE",
"206 -20 OFFCURVE",
"206 -180 CURVE SMOOTH",
"206 -205 OFFCURVE",
"212 -235 OFFCURVE",
"242 -235 CURVE SMOOTH"
);
},
{
closed = 1;
nodes = (
"240 -202 OFFCURVE",
"237 -184 OFFCURVE",
"237 -172 CURVE SMOOTH",
"237 -31 OFFCURVE",
"394 177 OFFCURVE",
"510 250 CURVE",
"486 122 OFFCURVE",
"452 -6 OFFCURVE",
"368 -109 CURVE SMOOTH",
"348 -133 OFFCURVE",
"290 -202 OFFCURVE",
"256 -202 CURVE SMOOTH"
);
}
);
width = 639;
}
);
note = Y;
unicode = 0059;
},
{
glyphname = Z;
lastChange = "2021-11-02 15:04:40 +0000";
layers = (
{
layerId = "747EDECB-6CB4-4831-9662-77535A1F4B33";
paths = (
{
closed = 1;
nodes = (
"285 -244 OFFCURVE",
"453 55 OFFCURVE",
"468 167 CURVE",
"500 182 OFFCURVE",
"534 193 OFFCURVE",
"569 193 CURVE SMOOTH",
"617 193 OFFCURVE",
"597 162 OFFCURVE",
"617 145 CURVE",
"624 146 OFFCURVE",
"627 159 OFFCURVE",
"627 165 CURVE SMOOTH",
"627 194 OFFCURVE",
"603 221 OFFCURVE",
"574 221 CURVE SMOOTH",
"538 221 OFFCURVE",
"503 211 OFFCURVE",
"470 197 CURVE",
"471 257 OFFCURVE",
"445 309 OFFCURVE",
"380 315 CURVE",
"450 399 OFFCURVE",
"543 523 OFFCURVE",
"543 637 CURVE SMOOTH",
"543 702 OFFCURVE",
"509 736 OFFCURVE",
"444 736 CURVE SMOOTH",
"281 736 OFFCURVE",
"15 583 OFFCURVE",
"15 399 CURVE SMOOTH",
"15 357 OFFCURVE",
"44 331 OFFCURVE",
"85 331 CURVE SMOOTH",
"133 331 OFFCURVE",
"258 404 OFFCURVE",
"258 432 CURVE SMOOTH",
"258 436 OFFCURVE",
"253 438 OFFCURVE",
"249 438 CURVE SMOOTH",
"232 438 OFFCURVE",
"166 355 OFFCURVE",
"97 355 CURVE SMOOTH",
"68 355 OFFCURVE",
"53 373 OFFCURVE",
"53 402 CURVE SMOOTH",
"53 568 OFFCURVE",
"297 705 OFFCURVE",
"444 705 CURVE SMOOTH",
"489 705 OFFCURVE",
"514 683 OFFCURVE",
"514 638 CURVE SMOOTH",
"514 540 OFFCURVE",
"411 385 OFFCURVE",
"348 314 CURVE",
"290 305 OFFCURVE",
"177 224 OFFCURVE",
"177 160 CURVE SMOOTH",
"177 151 OFFCURVE",
"180 142 OFFCURVE",
"191 142 CURVE SMOOTH",
"233 142 OFFCURVE",
"337 262 OFFCURVE",
"362 293 CURVE",
"418 290 OFFCURVE",
"432 226 OFFCURVE",
"431 180 CURVE",
"374 151 OFFCURVE",
"303 101 OFFCURVE",
"263 50 CURVE SMOOTH",
"224 0 OFFCURVE",
"122 -140 OFFCURVE",
"122 -205 CURVE SMOOTH",
"122 -228 OFFCURVE",
"135 -244 OFFCURVE",
"158 -244 CURVE SMOOTH"
);
},
{
closed = 1;
nodes = (
"159 -219 OFFCURVE",
"154 -212 OFFCURVE",
"154 -202 CURVE SMOOTH",
"154 -151 OFFCURVE",
"261 -11 OFFCURVE",
"292 29 CURVE SMOOTH",
"327 73 OFFCURVE",
"380 116 OFFCURVE",
"428 146 CURVE",
"413 51 OFFCURVE",
"341 -82 OFFCURVE",
"274 -150 CURVE SMOOTH",
"253 -171 OFFCURVE",
"202 -219 OFFCURVE",
"170 -219 CURVE SMOOTH"
);
}
);
width = 590;
}
);
note = Z;
unicode = 005A;
},
{
glyphname = a;
lastChange = "2021-11-02 15:04:42 +0000";
layers = (
{
layerId = "747EDECB-6CB4-4831-9662-77535A1F4B33";
paths = (
{
closed = 1;
nodes = (
"122 -28 OFFCURVE",
"191 156 OFFCURVE",
"210 203 CURVE",
"209 195 OFFCURVE",
"209 184 OFFCURVE",
"209 172 CURVE SMOOTH",
"209 120 OFFCURVE",
"218 43 OFFCURVE",
"271 43 CURVE SMOOTH",
"325 43 OFFCURVE",
"424 194 OFFCURVE",
"424 233 CURVE SMOOTH",
"424 237 OFFCURVE",
"422 242 OFFCURVE",
"417 242 CURVE SMOOTH",
"405 242 OFFCURVE",
"329 74 OFFCURVE",
"276 74 CURVE SMOOTH",
"242 74 OFFCURVE",
"240 121 OFFCURVE",
"240 145 CURVE SMOOTH",
"240 211 OFFCURVE",
"267 290 OFFCURVE",
"267 336 CURVE SMOOTH",
"267 348 OFFCURVE",
"261 356 OFFCURVE",
"248 356 CURVE SMOOTH",
"246 356 OFFCURVE",
"244 356 OFFCURVE",
"243 355 CURVE SMOOTH",
"246 358 OFFCURVE",
"248 362 OFFCURVE",
"248 367 CURVE SMOOTH",
"248 391 OFFCURVE",
"213 415 OFFCURVE",
"191 415 CURVE SMOOTH",
"132 415 OFFCURVE",
"72 264 OFFCURVE",
"58 218 CURVE SMOOTH",
"43 169 OFFCURVE",
"33 109 OFFCURVE",
"33 58 CURVE SMOOTH",
"33 35 OFFCURVE",
"36 -28 OFFCURVE",
"70 -28 CURVE SMOOTH"
);
},
{
closed = 1;
nodes = (
"63 14 OFFCURVE",
"63 59 OFFCURVE",
"63 68 CURVE SMOOTH",
"63 115 OFFCURVE",
"70 165 OFFCURVE",
"83 210 CURVE SMOOTH",
"94 248 OFFCURVE",
"144 381 OFFCURVE",
"191 381 CURVE SMOOTH",
"218 381 OFFCURVE",
"217 352 OFFCURVE",
"232 352 CURVE",
"238 353 LINE",
"227 344 OFFCURVE",
"131 14 OFFCURVE",
"78 14 CURVE SMOOTH"
);
}
);
width = 337;
}
);
note = a;
unicode = 0061;
},
{
glyphname = ae;
lastChange = "2021-11-02 15:04:42 +0000";
layers = (
{
layerId = "747EDECB-6CB4-4831-9662-77535A1F4B33";
paths = (
{
closed = 1;
nodes = (
"276 -94 OFFCURVE",
"288 -84 OFFCURVE",
"288 -75 CURVE SMOOTH",
"288 -69 OFFCURVE",
"283 -64 OFFCURVE",
"271 -63 CURVE SMOOTH",
"243 -60 OFFCURVE",
"235 -2 OFFCURVE",
"236 69 CURVE",
"244 31 OFFCURVE",
"261 0 OFFCURVE",
"295 0 CURVE SMOOTH",
"328 0 OFFCURVE",
"370 48 OFFCURVE",
"404 102 CURVE SMOOTH",
"439 157 OFFCURVE",
"465 218 OFFCURVE",
"465 245 CURVE SMOOTH",
"465 250 OFFCURVE",
"462 255 OFFCURVE",
"457 255 CURVE SMOOTH",
"449 255 OFFCURVE",
"445 247 OFFCURVE",
"443 241 CURVE SMOOTH",
"425 193 OFFCURVE",
"357 30 OFFCURVE",
"295 30 CURVE SMOOTH",
"259 30 OFFCURVE",
"259 81 OFFCURVE",
"259 106 CURVE SMOOTH",
"259 138 OFFCURVE",
"259 171 OFFCURVE",
"263 203 CURVE",
"311 226 OFFCURVE",
"389 296 OFFCURVE",
"389 354 CURVE SMOOTH",
"389 383 OFFCURVE",
"364 397 OFFCURVE",
"339 403 CURVE",
"344 412 OFFCURVE",
"336 423 OFFCURVE",
"326 423 CURVE SMOOTH",
"316 423 OFFCURVE",
"309 411 OFFCURVE",
"303 405 CURVE",
"297 404 OFFCURVE",
"291 400 OFFCURVE",
"291 393 CURVE SMOOTH",
"291 392 LINE",
"291 387 LINE",
"282 373 OFFCURVE",
"274 358 OFFCURVE",
"267 343 CURVE",
"266 351 OFFCURVE",
"258 356 OFFCURVE",
"248 356 CURVE SMOOTH",
"246 356 OFFCURVE",
"244 356 OFFCURVE",
"243 355 CURVE SMOOTH",
"246 358 OFFCURVE",
"248 362 OFFCURVE",
"248 367 CURVE SMOOTH",
"248 391 OFFCURVE",
"213 415 OFFCURVE",
"191 415 CURVE SMOOTH",
"132 415 OFFCURVE",
"72 264 OFFCURVE",
"58 218 CURVE SMOOTH",
"43 169 OFFCURVE",
"33 109 OFFCURVE",
"33 58 CURVE SMOOTH",
"33 35 OFFCURVE",
"36 -28 OFFCURVE",
"70 -28 CURVE SMOOTH",
"122 -28 OFFCURVE",
"191 156 OFFCURVE",
"210 203 CURVE",
"209 186 OFFCURVE",
"204 134 OFFCURVE",
"204 78 CURVE SMOOTH",
"204 -4 OFFCURVE",
"215 -94 OFFCURVE",
"266 -94 CURVE SMOOTH"
);
},
{
closed = 1;
nodes = (
"63 14 OFFCURVE",
"63 59 OFFCURVE",
"63 68 CURVE SMOOTH",
"63 115 OFFCURVE",
"70 165 OFFCURVE",
"83 210 CURVE SMOOTH",
"94 248 OFFCURVE",
"144 381 OFFCURVE",
"191 381 CURVE SMOOTH",
"218 381 OFFCURVE",
"217 352 OFFCURVE",
"232 352 CURVE",
"238 353 LINE",
"227 344 OFFCURVE",
"131 14 OFFCURVE",
"78 14 CURVE SMOOTH"
);
},
{
closed = 1;
nodes = (
"276 282 OFFCURVE",
"292 333 OFFCURVE",
"318 375 CURVE",
"330 373 OFFCURVE",
"351 367 OFFCURVE",
"351 351 CURVE SMOOTH",
"351 304 OFFCURVE",
"305 257 OFFCURVE",
"268 234 CURVE"
);
}
);
width = 404;
}
);
note = ae;
unicode = 00E6;
},
{
glyphname = b;
lastChange = "2021-11-02 15:04:42 +0000";
layers = (
{
layerId = "747EDECB-6CB4-4831-9662-77535A1F4B33";
paths = (
{
closed = 1;
nodes = (
"98 -31 OFFCURVE",
"103 -19 OFFCURVE",
"103 -9 CURVE SMOOTH",
"103 17 OFFCURVE",
"104 31 OFFCURVE",
"110 57 CURVE",
"118 38 OFFCURVE",
"131 25 OFFCURVE",
"153 25 CURVE SMOOTH",
"241 25 OFFCURVE",
"292 244 OFFCURVE",
"292 311 CURVE SMOOTH",
"292 335 OFFCURVE",
"289 378 OFFCURVE",
"256 378 CURVE SMOOTH",
"186 378 OFFCURVE",
"95 162 OFFCURVE",
"82 101 CURVE",
"81 118 OFFCURVE",
"81 135 OFFCURVE",
"81 151 CURVE SMOOTH",
"81 299 OFFCURVE",
"120 455 OFFCURVE",
"187 586 CURVE SMOOTH",
"196 603 OFFCURVE",
"222 645 OFFCURVE",
"239 654 CURVE",
"244 652 OFFCURVE",
"250 651 OFFCURVE",
"254 651 CURVE SMOOTH",
"263 651 OFFCURVE",
"270 655 OFFCURVE",
"270 669 CURVE SMOOTH",
"270 686 OFFCURVE",
"261 701 OFFCURVE",
"243 701 CURVE SMOOTH",
"210 701 OFFCURVE",
"172 631 OFFCURVE",
"159 605 CURVE SMOOTH",
"93 474 OFFCURVE",
"53 284 OFFCURVE",
"53 138 CURVE SMOOTH",
"53 112 OFFCURVE",
"54 -31 OFFCURVE",
"86 -31 CURVE SMOOTH"
);
},
{
closed = 1;
nodes = (
"121 50 OFFCURVE",
"123 93 OFFCURVE",
"123 108 CURVE SMOOTH",
"123 149 OFFCURVE",
"206 341 OFFCURVE",
"248 341 CURVE SMOOTH",
"261 341 OFFCURVE",
"262 328 OFFCURVE",
"262 316 CURVE SMOOTH",
"262 312 LINE SMOOTH",
"262 256 OFFCURVE",
"215 50 OFFCURVE",
"144 50 CURVE SMOOTH"
);
}
);
width = 300;
}
);
note = b;
unicode = 0062;
},
{
glyphname = c;
lastChange = "2021-11-02 15:04:42 +0000";
layers = (
{
layerId = "747EDECB-6CB4-4831-9662-77535A1F4B33";
paths = (
{
closed = 1;
nodes = (
"196 13 OFFCURVE",
"280 160 OFFCURVE",
"290 219 CURVE SMOOTH",
"291 223 LINE SMOOTH",
"291 227 OFFCURVE",
"291 236 OFFCURVE",
"285 236 CURVE SMOOTH",
"273 236 OFFCURVE",
"195 41 OFFCURVE",
"126 41 CURVE SMOOTH",
"87 41 OFFCURVE",
"79 104 OFFCURVE",
"79 132 CURVE SMOOTH",
"79 182 OFFCURVE",
"116 388 OFFCURVE",
"170 409 CURVE",
"178 409 OFFCURVE",
"180 387 OFFCURVE",
"180 381 CURVE SMOOTH",
"180 374 OFFCURVE",
"178 360 OFFCURVE",
"178 346 CURVE SMOOTH",
"178 331 OFFCURVE",
"181 317 OFFCURVE",
"194 317 CURVE SMOOTH",
"201 317 OFFCURVE",
"212 326 OFFCURVE",
"212 333 CURVE SMOOTH",
"212 364 OFFCURVE",
"219 447 OFFCURVE",
"174 447 CURVE SMOOTH",
"93 447 OFFCURVE",
"49 190 OFFCURVE",
"49 134 CURVE SMOOTH",
"49 87 OFFCURVE",
"67 13 OFFCURVE",
"127 13 CURVE SMOOTH"
);
}
);
width = 249;
}
);
note = c;
unicode = 0063;
},
{
glyphname = d;
lastChange = "2021-11-02 15:04:42 +0000";
layers = (
{
layerId = "747EDECB-6CB4-4831-9662-77535A1F4B33";
paths = (
{
closed = 1;
nodes = (
"324 3 OFFCURVE",
"398 122 OFFCURVE",
"398 147 CURVE SMOOTH",
"398 153 OFFCURVE",
"394 159 OFFCURVE",
"388 159 CURVE SMOOTH",
"372 159 OFFCURVE",
"333 30 OFFCURVE",
"296 30 CURVE SMOOTH",
"264 30 OFFCURVE",
"263 148 OFFCURVE",
"263 170 CURVE SMOOTH",
"263 214 OFFCURVE",
"263 268 OFFCURVE",
"273 310 CURVE SMOOTH",
"276 325 OFFCURVE",
"284 341 OFFCURVE",
"289 355 CURVE SMOOTH",
"305 397 OFFCURVE",
"345 537 OFFCURVE",
"345 579 CURVE SMOOTH",
"345 588 OFFCURVE",
"343 606 OFFCURVE",
"330 606 CURVE SMOOTH",
"303 606 OFFCURVE",
"285 538 OFFCURVE",
"281 520 CURVE SMOOTH",
"245 367 OFFCURVE",
"245 277 OFFCURVE",
"170 131 CURVE SMOOTH",
"159 111 OFFCURVE",
"112 39 OFFCURVE",
"87 39 CURVE SMOOTH",
"66 39 OFFCURVE",
"64 70 OFFCURVE",
"64 85 CURVE SMOOTH",
"64 134 OFFCURVE",
"119 329 OFFCURVE",
"179 329 CURVE SMOOTH",
"203 329 OFFCURVE",
"189 296 OFFCURVE",
"203 296 CURVE SMOOTH",
"211 296 OFFCURVE",
"218 301 OFFCURVE",
"218 309 CURVE SMOOTH",
"218 334 OFFCURVE",
"208 359 OFFCURVE",
"179 359 CURVE SMOOTH",
"140 359 OFFCURVE",
"86 269 OFFCURVE",
"70 238 CURVE SMOOTH",
"49 198 OFFCURVE",
"33 131 OFFCURVE",
"33 86 CURVE SMOOTH",
"33 52 OFFCURVE",
"43 12 OFFCURVE",
"85 12 CURVE SMOOTH",
"150 12 OFFCURVE",
"210 163 OFFCURVE",
"235 215 CURVE",
"234 207 OFFCURVE",
"234 195 OFFCURVE",
"234 181 CURVE SMOOTH",
"234 116 OFFCURVE",
"244 3 OFFCURVE",
"296 3 CURVE SMOOTH"
);
}
);
width = 343;
}
);
note = d;
unicode = 0064;
},
{
glyphname = eth;
lastChange = "2021-11-02 15:04:42 +0000";
layers = (
{
layerId = "747EDECB-6CB4-4831-9662-77535A1F4B33";
paths = (
{
closed = 1;
nodes = (
"247 25 OFFCURVE",
"267 135 OFFCURVE",
"267 175 CURVE SMOOTH",
"267 292 OFFCURVE",
"221 443 OFFCURVE",
"144 552 CURVE",
"157 556 OFFCURVE",
"169 560 OFFCURVE",
"182 563 CURVE SMOOTH",
"187 564 OFFCURVE",
"217 565 OFFCURVE",
"215 574 CURVE",
"215 576 OFFCURVE",
"212 576 OFFCURVE",
"210 577 CURVE",
"204 578 OFFCURVE",
"197 578 OFFCURVE",
"191 578 CURVE SMOOTH",
"175 578 OFFCURVE",
"159 576 OFFCURVE",
"144 573 CURVE SMOOTH",
"131 569 LINE",
"112 595 OFFCURVE",
"71 641 OFFCURVE",
"36 641 CURVE SMOOTH",
"13 641 OFFCURVE",
"2 629 OFFCURVE",
"2 616 CURVE SMOOTH",
"2 604 OFFCURVE",
"10 600 OFFCURVE",
"21 600 CURVE SMOOTH",
"27 600 OFFCURVE",
"33 601 OFFCURVE",
"40 603 CURVE",
"56 596 OFFCURVE",
"80 572 OFFCURVE",
"95 556 CURVE",
"63 542 OFFCURVE",
"27 523 OFFCURVE",
"27 506 CURVE SMOOTH",
"27 499 OFFCURVE",
"33 490 OFFCURVE",
"39 490 CURVE SMOOTH",
"41 490 LINE SMOOTH",
"43 490 OFFCURVE",
"45 493 OFFCURVE",
"46 495 CURVE",
"56 508 OFFCURVE",
"68 517 OFFCURVE",
"82 524 CURVE SMOOTH",
"109 537 LINE",
"187 431 OFFCURVE",
"233 304 OFFCURVE",
"233 185 CURVE SMOOTH",
"233 177 LINE",
"209 279 OFFCURVE",
"138 378 OFFCURVE",
"89 378 CURVE SMOOTH",
"56 378 OFFCURVE",
"53 335 OFFCURVE",
"53 311 CURVE SMOOTH",
"53 244 OFFCURVE",
"104 25 OFFCURVE",
"192 25 CURVE SMOOTH"
);
},
{
closed = 1;
nodes = (
"130 50 OFFCURVE",
"83 256 OFFCURVE",
"83 312 CURVE SMOOTH",
"83 324 OFFCURVE",
"82 341 OFFCURVE",
"97 341 CURVE SMOOTH",
"139 341 OFFCURVE",
"222 149 OFFCURVE",
"222 108 CURVE SMOOTH",
"222 93 OFFCURVE",
"224 50 OFFCURVE",
"201 50 CURVE SMOOTH"
);
}
);
width = 300;
}
);
note = eth;
unicode = 00F0;
},
{
glyphname = e;
lastChange = "2021-11-02 15:04:42 +0000";
layers = (
{
layerId = "747EDECB-6CB4-4831-9662-77535A1F4B33";
paths = (
{
closed = 1;
nodes = (
"182 0 OFFCURVE",
"286 192 OFFCURVE",
"286 245 CURVE SMOOTH",
"286 250 OFFCURVE",
"283 255 OFFCURVE",
"278 255 CURVE SMOOTH",
"270 255 OFFCURVE",
"266 247 OFFCURVE",
"264 241 CURVE SMOOTH",
"246 193 OFFCURVE",
"178 30 OFFCURVE",
"116 30 CURVE SMOOTH",
"80 30 OFFCURVE",
"80 81 OFFCURVE",
"80 106 CURVE SMOOTH",
"80 138 OFFCURVE",
"80 171 OFFCURVE",
"84 203 CURVE",
"132 226 OFFCURVE",
"210 296 OFFCURVE",
"210 354 CURVE SMOOTH",
"210 383 OFFCURVE",
"185 397 OFFCURVE",
"160 403 CURVE",
"165 412 OFFCURVE",
"157 423 OFFCURVE",
"147 423 CURVE SMOOTH",
"137 423 OFFCURVE",
"130 411 OFFCURVE",
"124 405 CURVE",
"118 404 OFFCURVE",
"112 400 OFFCURVE",
"112 393 CURVE SMOOTH",
"112 392 LINE",
"112 387 LINE",
"80 337 OFFCURVE",
"62 272 OFFCURVE",
"55 214 CURVE",
"48 212 OFFCURVE",
"40 208 OFFCURVE",
"37 201 CURVE",
"37 194 OFFCURVE",
"43 192 OFFCURVE",
"49 192 CURVE SMOOTH",
"52 192 LINE",
"51 181 OFFCURVE",
"50 165 OFFCURVE",
"50 147 CURVE SMOOTH",
"50 86 OFFCURVE",
"61 0 OFFCURVE",
"116 0 CURVE SMOOTH"
);
},
{
closed = 1;
nodes = (
"97 282 OFFCURVE",
"113 333 OFFCURVE",
"139 375 CURVE",
"151 373 OFFCURVE",
"172 367 OFFCURVE",
"172 351 CURVE SMOOTH",
"172 304 OFFCURVE",
"126 257 OFFCURVE",
"89 234 CURVE"
);
}
);
width = 225;
}
);
note = e;
unicode = 0065;
},
{
glyphname = schwa;
lastChange = "2021-11-02 15:04:42 +0000";
layers = (
{
layerId = "747EDECB-6CB4-4831-9662-77535A1F4B33";
paths = (
{
closed = 1;
nodes = (
"148 -17 OFFCURVE",
"155 -5 OFFCURVE",
"161 1 CURVE",
"167 2 OFFCURVE",
"173 6 OFFCURVE",
"173 13 CURVE SMOOTH",
"173 14 LINE",
"173 19 LINE",
"205 69 OFFCURVE",
"223 134 OFFCURVE",
"230 192 CURVE",
"237 194 OFFCURVE",
"245 198 OFFCURVE",
"248 205 CURVE",
"248 212 OFFCURVE",
"242 214 OFFCURVE",
"236 214 CURVE SMOOTH",
"233 214 LINE",
"234 225 OFFCURVE",
"235 241 OFFCURVE",
"235 259 CURVE SMOOTH",
"235 320 OFFCURVE",
"224 406 OFFCURVE",
"169 406 CURVE SMOOTH",
"103 406 OFFCURVE",
"-1 214 OFFCURVE",
"-1 161 CURVE SMOOTH",
"-1 156 OFFCURVE",
"2 151 OFFCURVE",
"7 151 CURVE SMOOTH",
"15 151 OFFCURVE",
"19 159 OFFCURVE",
"21 165 CURVE SMOOTH",
"39 213 OFFCURVE",
"107 376 OFFCURVE",
"169 376 CURVE SMOOTH",
"205 376 OFFCURVE",
"205 325 OFFCURVE",
"205 300 CURVE SMOOTH",
"205 268 OFFCURVE",
"205 235 OFFCURVE",
"201 203 CURVE",
"153 180 OFFCURVE",
"75 110 OFFCURVE",
"75 52 CURVE SMOOTH",
"75 23 OFFCURVE",
"100 9 OFFCURVE",
"125 3 CURVE",
"120 -6 OFFCURVE",
"128 -17 OFFCURVE",
"138 -17 CURVE SMOOTH"
);
},
{
closed = 1;
nodes = (
"134 33 OFFCURVE",
"113 39 OFFCURVE",
"113 55 CURVE SMOOTH",
"113 102 OFFCURVE",
"159 149 OFFCURVE",
"196 172 CURVE",
"188 124 OFFCURVE",
"172 73 OFFCURVE",
"146 31 CURVE"
);
}
);
width = 248;
}
);
unicode = 0259;
},
{
glyphname = f;
lastChange = "2021-11-02 15:04:40 +0000";
layers = (
{
layerId = "747EDECB-6CB4-4831-9662-77535A1F4B33";
paths = (
{
closed = 1;
nodes = (
"184 -341 OFFCURVE",
"187 -239 OFFCURVE",
"187 -200 CURVE SMOOTH",
"187 -128 OFFCURVE",
"172 -59 OFFCURVE",
"130 0 CURVE",
"168 13 OFFCURVE",
"292 123 OFFCURVE",
"292 165 CURVE SMOOTH",
"292 167 OFFCURVE",
"291 172 OFFCURVE",
"288 172 CURVE SMOOTH",
"274 172 OFFCURVE",
"194 31 OFFCURVE",
"111 25 CURVE",
"101 37 OFFCURVE",
"90 48 OFFCURVE",
"77 57 CURVE",
"77 119 OFFCURVE",
"91 176 OFFCURVE",
"101 236 CURVE",
"148 237 OFFCURVE",
"230 415 OFFCURVE",
"243 452 CURVE SMOOTH",
"258 490 OFFCURVE",
"269 530 OFFCURVE",
"277 570 CURVE SMOOTH",
"280 587 OFFCURVE",
"282 605 OFFCURVE",
"282 622 CURVE SMOOTH",
"282 649 OFFCURVE",
"273 717 OFFCURVE",
"235 717 CURVE SMOOTH",
"166 717 OFFCURVE",
"71 288 OFFCURVE",
"63 226 CURVE SMOOTH",
"56 175 OFFCURVE",
"49 123 OFFCURVE",
"46 71 CURVE",
"34 71 OFFCURVE",
"27 61 OFFCURVE",
"27 50 CURVE SMOOTH",
"27 37 OFFCURVE",
"34 24 OFFCURVE",
"44 16 CURVE",
"44 -40 OFFCURVE",
"44 -341 OFFCURVE",
"128 -341 CURVE SMOOTH"
);
},
{
closed = 1;
nodes = (
"82 -315 OFFCURVE",
"76 -37 OFFCURVE",
"76 -1 CURVE",
"94 -5 LINE",
"148 -63 OFFCURVE",
"158 -149 OFFCURVE",
"158 -225 CURVE SMOOTH",
"158 -244 OFFCURVE",
"160 -315 OFFCURVE",
"130 -315 CURVE SMOOTH"
);
},
{
closed = 1;
nodes = (
"118 385 OFFCURVE",
"171 571 OFFCURVE",
"226 666 CURVE",
"229 668 OFFCURVE",
"236 672 OFFCURVE",
"240 672 CURVE SMOOTH",
"254 672 OFFCURVE",
"254 647 OFFCURVE",
"254 639 CURVE SMOOTH",
"254 612 OFFCURVE",
"249 584 OFFCURVE",
"244 557 CURVE SMOOTH",
"235 504 OFFCURVE",
"163 295 OFFCURVE",
"108 278 CURVE"
);
}
);
width = 237;
}
);
note = f;
unicode = 0066;
},
{
glyphname = g;
lastChange = "2021-11-02 15:04:42 +0000";
layers = (
{
layerId = "747EDECB-6CB4-4831-9662-77535A1F4B33";
paths = (
{
closed = 1;
nodes = (
"97 -377 OFFCURVE",
"157 -288 OFFCURVE",
"174 -254 CURVE SMOOTH",
"225 -150 OFFCURVE",
"246 -34 OFFCURVE",
"258 80 CURVE",
"261 79 OFFCURVE",
"264 79 OFFCURVE",
"267 79 CURVE SMOOTH",
"276 79 OFFCURVE",
"283 82 OFFCURVE",
"283 94 CURVE SMOOTH",
"283 105 OFFCURVE",
"272 110 OFFCURVE",
"263 110 CURVE SMOOTH",
"260 110 LINE",
"260 117 OFFCURVE",
"261 130 OFFCURVE",
"261 146 CURVE SMOOTH",
"261 226 OFFCURVE",
"254 387 OFFCURVE",
"215 387 CURVE SMOOTH",
"212 387 OFFCURVE",
"209 386 OFFCURVE",
"208 384 CURVE",
"201 400 OFFCURVE",
"189 416 OFFCURVE",
"170 416 CURVE SMOOTH",
"91 416 OFFCURVE",
"10 164 OFFCURVE",
"10 99 CURVE SMOOTH",
"10 66 OFFCURVE",
"18 20 OFFCURVE",
"59 20 CURVE SMOOTH",
"120 20 OFFCURVE",
"185 273 OFFCURVE",
"216 321 CURVE",
"225 307 OFFCURVE",
"230 170 OFFCURVE",
"230 142 CURVE SMOOTH",
"229 103 LINE",
"113 49 OFFCURVE",
"4 -171 OFFCURVE",
"4 -299 CURVE SMOOTH",
"4 -333 OFFCURVE",
"10 -377 OFFCURVE",
"54 -377 CURVE SMOOTH"
);
},
{
closed = 1;
nodes = (
"35 -347 OFFCURVE",
"34 -310 OFFCURVE",
"34 -298 CURVE SMOOTH",
"34 -195 OFFCURVE",
"136 20 OFFCURVE",
"228 71 CURVE",
"218 -36 OFFCURVE",
"197 -144 OFFCURVE",
"148 -240 CURVE SMOOTH",
"134 -266 OFFCURVE",
"87 -347 OFFCURVE",
"54 -347 CURVE SMOOTH"
);
},
{
closed = 1;
nodes = (
"42 53 OFFCURVE",
"42 80 OFFCURVE",
"42 92 CURVE SMOOTH",
"42 143 OFFCURVE",
"109 384 OFFCURVE",
"170 384 CURVE SMOOTH",
"188 384 OFFCURVE",
"185 355 OFFCURVE",
"185 348 CURVE SMOOTH",
"185 344 OFFCURVE",
"185 340 OFFCURVE",
"188 335 CURVE",
"174 290 OFFCURVE",
"102 53 OFFCURVE",
"59 53 CURVE SMOOTH"
);
}
);
width = 292;
}
);
note = g;
unicode = 0067;
},
{
glyphname = h;
lastChange = "2021-11-02 15:04:42 +0000";
layers = (
{
layerId = "747EDECB-6CB4-4831-9662-77535A1F4B33";
paths = (
{
closed = 1;
nodes = (
"76 7 OFFCURVE",
"81 22 OFFCURVE",
"83 33 CURVE SMOOTH",
"98 119 OFFCURVE",
"149 234 OFFCURVE",
"203 303 CURVE SMOOTH",
"208 309 OFFCURVE",
"227 335 OFFCURVE",
"235 335 CURVE SMOOTH",
"240 335 OFFCURVE",
"241 326 OFFCURVE",
"241 318 CURVE SMOOTH",
"241 310 LINE SMOOTH",
"241 262 OFFCURVE",
"234 214 OFFCURVE",
"234 166 CURVE SMOOTH",
"234 143 OFFCURVE",
"239 67 OFFCURVE",
"276 67 CURVE SMOOTH",
"306 67 OFFCURVE",
"340 136 OFFCURVE",
"340 162 CURVE SMOOTH",
"340 165 OFFCURVE",
"339 173 OFFCURVE",
"335 173 CURVE SMOOTH",
"326 173 OFFCURVE",
"303 98 OFFCURVE",
"278 98 CURVE SMOOTH",
"265 98 OFFCURVE",
"263 161 OFFCURVE",
"263 169 CURVE SMOOTH",
"263 223 OFFCURVE",
"275 277 OFFCURVE",
"275 330 CURVE SMOOTH",
"275 348 OFFCURVE",
"270 379 OFFCURVE",
"246 379 CURVE SMOOTH",
"189 379 OFFCURVE",
"79 149 OFFCURVE",
"62 96 CURVE",
"58 127 OFFCURVE",
"56 159 OFFCURVE",
"56 191 CURVE SMOOTH",
"56 256 OFFCURVE",
"63 322 OFFCURVE",
"77 386 CURVE SMOOTH",
"98 482 OFFCURVE",
"135 563 OFFCURVE",
"174 652 CURVE SMOOTH",
"176 656 OFFCURVE",
"178 661 OFFCURVE",
"178 666 CURVE SMOOTH",
"178 675 OFFCURVE",
"170 680 OFFCURVE",
"162 680 CURVE SMOOTH",
"153 680 OFFCURVE",
"145 675 OFFCURVE",
"141 668 CURVE SMOOTH",
"59 527 OFFCURVE",
"32 303 OFFCURVE",
"32 141 CURVE SMOOTH",
"32 121 OFFCURVE",
"32 7 OFFCURVE",
"63 7 CURVE SMOOTH"
);
}
);
width = 334;
}
);
note = h;
unicode = 0068;
},
{
glyphname = i;
lastChange = "2021-11-02 15:04:40 +0000";
layers = (
{
layerId = "747EDECB-6CB4-4831-9662-77535A1F4B33";
paths = (
{
closed = 1;
nodes = (
"153 10 OFFCURVE",
"259 203 OFFCURVE",
"259 248 CURVE SMOOTH",
"259 253 OFFCURVE",
"257 259 OFFCURVE",
"251 259 CURVE SMOOTH",
"239 259 OFFCURVE",
"155 41 OFFCURVE",
"105 41 CURVE SMOOTH",
"83 41 OFFCURVE",
"81 96 OFFCURVE",
"81 111 CURVE SMOOTH",
"81 182 OFFCURVE",
"129 304 OFFCURVE",
"129 335 CURVE SMOOTH",
"129 346 OFFCURVE",
"120 353 OFFCURVE",
"109 353 CURVE SMOOTH",
"74 353 OFFCURVE",
"54 149 OFFCURVE",
"54 116 CURVE SMOOTH",
"54 83 OFFCURVE",
"59 10 OFFCURVE",
"105 10 CURVE SMOOTH"
);
},
{
closed = 1;
nodes = (
"133 393 OFFCURVE",
"141 397 OFFCURVE",
"143 405 CURVE SMOOTH",
"148 423 OFFCURVE",
"155 466 OFFCURVE",
"172 477 CURVE SMOOTH",
"179 481 OFFCURVE",
"185 488 OFFCURVE",
"185 496 CURVE SMOOTH",
"185 501 OFFCURVE",
"182 506 OFFCURVE",
"177 506 CURVE SMOOTH",
"150 506 OFFCURVE",
"106 429 OFFCURVE",
"106 407 CURVE SMOOTH",
"106 397 OFFCURVE",
"116 393 OFFCURVE",
"125 393 CURVE SMOOTH"
);
}
);
width = 186;
}
);
note = i;
unicode = 0069;
},
{
color = 11;
glyphname = idotless;
lastChange = "2021-11-02 15:04:40 +0000";
layers = (
{
layerId = "747EDECB-6CB4-4831-9662-77535A1F4B33";
paths = (
{
closed = 1;
nodes = (
"153 10 OFFCURVE",
"259 203 OFFCURVE",
"259 248 CURVE SMOOTH",
"259 253 OFFCURVE",
"257 259 OFFCURVE",
"251 259 CURVE SMOOTH",
"239 259 OFFCURVE",
"155 41 OFFCURVE",
"105 41 CURVE SMOOTH",
"83 41 OFFCURVE",
"81 96 OFFCURVE",
"81 111 CURVE SMOOTH",
"81 182 OFFCURVE",
"129 304 OFFCURVE",
"129 335 CURVE SMOOTH",
"129 346 OFFCURVE",
"120 353 OFFCURVE",
"109 353 CURVE SMOOTH",
"74 353 OFFCURVE",
"54 149 OFFCURVE",
"54 116 CURVE SMOOTH",
"54 83 OFFCURVE",
"59 10 OFFCURVE",
"105 10 CURVE SMOOTH"
);
}
);
width = 186;
}
);
unicode = 0131;
},
{
glyphname = j;
lastChange = "2021-11-02 15:04:42 +0000";
layers = (
{
layerId = "747EDECB-6CB4-4831-9662-77535A1F4B33";
paths = (
{
closed = 1;
nodes = (
"-25 -385 OFFCURVE",
"-22 -385 OFFCURVE",
"-19 -384 CURVE SMOOTH",
"61 -362 OFFCURVE",
"133 -107 OFFCURVE",
"140 -36 CURVE SMOOTH",
"144 7 OFFCURVE",
"147 50 OFFCURVE",
"146 93 CURVE SMOOTH",
"145 144 LINE",
"164 160 OFFCURVE",
"213 175 OFFCURVE",
"213 182 CURVE SMOOTH",
"213 188 OFFCURVE",
"206 189 OFFCURVE",
"202 189 CURVE SMOOTH",
"182 189 OFFCURVE",
"162 178 OFFCURVE",
"144 169 CURVE",
"143 192 OFFCURVE",
"133 366 OFFCURVE",
"110 366 CURVE SMOOTH",
"95 366 OFFCURVE",
"83 354 OFFCURVE",
"83 340 CURVE SMOOTH",
"83 321 OFFCURVE",
"94 292 OFFCURVE",
"98 273 CURVE SMOOTH",
"105 232 OFFCURVE",
"110 190 OFFCURVE",
"113 148 CURVE",
"110 144 LINE SMOOTH",
"3 25 OFFCURVE",
"-70 -128 OFFCURVE",
"-70 -291 CURVE SMOOTH",
"-70 -318 OFFCURVE",
"-67 -385 OFFCURVE",
"-28 -385 CURVE SMOOTH"
);
},
{
closed = 1;
nodes = (
"-39 -355 OFFCURVE",
"-40 -320 OFFCURVE",
"-40 -305 CURVE SMOOTH",
"-40 -167 OFFCURVE",
"12 18 OFFCURVE",
"115 117 CURVE",
"116 78 LINE SMOOTH",
"117 42 OFFCURVE",
"114 5 OFFCURVE",
"110 -32 CURVE SMOOTH",
"101 -121 OFFCURVE",
"66 -267 OFFCURVE",
"4 -335 CURVE",
"-2 -340 OFFCURVE",
"-18 -355 OFFCURVE",
"-26 -355 CURVE SMOOTH"
);
},
{
closed = 1;
nodes = (
"144 451 OFFCURVE",
"152 455 OFFCURVE",
"154 463 CURVE SMOOTH",
"159 480 OFFCURVE",
"166 525 OFFCURVE",
"183 535 CURVE SMOOTH",
"190 539 OFFCURVE",
"196 545 OFFCURVE",
"196 554 CURVE SMOOTH",
"196 559 OFFCURVE",
"193 563 OFFCURVE",
"188 563 CURVE SMOOTH",
"162 563 OFFCURVE",
"117 486 OFFCURVE",
"117 465 CURVE SMOOTH",
"117 455 OFFCURVE",
"127 451 OFFCURVE",
"136 451 CURVE SMOOTH"
);
}
);
width = 186;
}
);
note = j;
unicode = 006A;
},
{
color = 11;
glyphname = jdotless;
lastChange = "2021-11-02 15:04:42 +0000";
layers = (
{
layerId = "747EDECB-6CB4-4831-9662-77535A1F4B33";
paths = (
{
closed = 1;
nodes = (
"-25 -385 OFFCURVE",
"-22 -385 OFFCURVE",
"-19 -384 CURVE SMOOTH",
"61 -362 OFFCURVE",
"133 -107 OFFCURVE",
"140 -36 CURVE SMOOTH",
"144 7 OFFCURVE",
"147 50 OFFCURVE",
"146 93 CURVE SMOOTH",
"145 144 LINE",
"164 160 OFFCURVE",
"213 175 OFFCURVE",
"213 182 CURVE SMOOTH",
"213 188 OFFCURVE",
"206 189 OFFCURVE",
"202 189 CURVE SMOOTH",
"182 189 OFFCURVE",
"162 178 OFFCURVE",
"144 169 CURVE",
"143 192 OFFCURVE",
"133 366 OFFCURVE",
"110 366 CURVE SMOOTH",
"95 366 OFFCURVE",
"83 354 OFFCURVE",
"83 340 CURVE SMOOTH",
"83 321 OFFCURVE",
"94 292 OFFCURVE",
"98 273 CURVE SMOOTH",
"105 232 OFFCURVE",
"110 190 OFFCURVE",
"113 148 CURVE",
"110 144 LINE SMOOTH",
"3 25 OFFCURVE",
"-70 -128 OFFCURVE",
"-70 -291 CURVE SMOOTH",
"-70 -318 OFFCURVE",
"-67 -385 OFFCURVE",
"-28 -385 CURVE SMOOTH"
);
},
{
closed = 1;
nodes = (
"-39 -355 OFFCURVE",
"-40 -320 OFFCURVE",
"-40 -305 CURVE SMOOTH",
"-40 -167 OFFCURVE",
"12 18 OFFCURVE",
"115 117 CURVE",
"116 78 LINE SMOOTH",
"117 42 OFFCURVE",
"114 5 OFFCURVE",
"110 -32 CURVE SMOOTH",
"101 -121 OFFCURVE",
"66 -267 OFFCURVE",
"4 -335 CURVE",
"-2 -340 OFFCURVE",
"-18 -355 OFFCURVE",
"-26 -355 CURVE SMOOTH"
);
}
);
width = 186;
}
);
unicode = 0237;
},
{
glyphname = k;
lastChange = "2021-11-02 15:04:42 +0000";
layers = (
{
layerId = "747EDECB-6CB4-4831-9662-77535A1F4B33";
paths = (
{
closed = 1;
nodes = (
"66 -20 OFFCURVE",
"70 -12 OFFCURVE",
"70 -4 CURVE SMOOTH",
"70 71 OFFCURVE",
"93 143 OFFCURVE",
"110 216 CURVE",
"113 217 LINE",
"120 161 OFFCURVE",
"128 21 OFFCURVE",
"207 21 CURVE SMOOTH",
"258 21 OFFCURVE",
"310 131 OFFCURVE",
"310 174 CURVE SMOOTH",
"310 177 OFFCURVE",
"309 185 OFFCURVE",
"304 185 CURVE SMOOTH",
"284 185 OFFCURVE",
"268 51 OFFCURVE",
"207 51 CURVE SMOOTH",
"156 51 OFFCURVE",
"148 180 OFFCURVE",
"144 217 CURVE",
"148 216 OFFCURVE",
"151 216 OFFCURVE",
"155 216 CURVE SMOOTH",
"226 216 OFFCURVE",
"247 372 OFFCURVE",
"247 422 CURVE SMOOTH",
"247 446 OFFCURVE",
"245 491 OFFCURVE",
"212 491 CURVE SMOOTH",
"178 491 OFFCURVE",
"122 345 OFFCURVE",
"113 318 CURVE",
"94 327 OFFCURVE",
"87 299 OFFCURVE",
"87 286 CURVE SMOOTH",
"87 274 OFFCURVE",
"90 262 OFFCURVE",
"97 253 CURVE",
"83 202 OFFCURVE",
"64 150 OFFCURVE",
"57 97 CURVE",
"53 114 OFFCURVE",
"52 131 OFFCURVE",
"52 148 CURVE SMOOTH",
"52 212 OFFCURVE",
"61 278 OFFCURVE",
"69 341 CURVE SMOOTH",
"81 435 OFFCURVE",
"116 525 OFFCURVE",
"148 614 CURVE SMOOTH",
"149 617 OFFCURVE",
"151 622 OFFCURVE",
"151 625 CURVE SMOOTH",
"151 635 OFFCURVE",
"143 641 OFFCURVE",
"134 641 CURVE SMOOTH",
"122 641 OFFCURVE",
"114 634 OFFCURVE",
"110 624 CURVE SMOOTH",
"57 505 OFFCURVE",
"28 242 OFFCURVE",
"28 108 CURVE SMOOTH",
"28 79 OFFCURVE",
"29 -20 OFFCURVE",
"57 -20 CURVE SMOOTH"
);
},
{
closed = 1;
nodes = (
"150 246 OFFCURVE",
"145 246 OFFCURVE",
"141 247 CURVE",
"138 263 OFFCURVE",
"136 280 OFFCURVE",
"130 296 CURVE",
"137 316 OFFCURVE",
"184 452 OFFCURVE",
"207 452 CURVE SMOOTH",
"214 452 OFFCURVE",
"214 424 OFFCURVE",
"214 420 CURVE SMOOTH",
"214 381 OFFCURVE",
"208 246 OFFCURVE",
"154 246 CURVE SMOOTH"
);
}
);
width = 296;
}
);
note = k;
unicode = 006B;
},
{
glyphname = kgreenlandic;
lastChange = "2021-11-02 15:04:42 +0000";
layers = (
{
layerId = "747EDECB-6CB4-4831-9662-77535A1F4B33";
paths = (
{
closed = 1;
nodes = (
"286 -7 OFFCURVE",
"289 -5 OFFCURVE",
"289 -1 CURVE SMOOTH",
"289 3 OFFCURVE",
"286 9 OFFCURVE",
"279 18 CURVE SMOOTH",
"260 43 OFFCURVE",
"126 187 OFFCURVE",
"105 213 CURVE",
"113 235 OFFCURVE",
"284 398 OFFCURVE",
"290 406 CURVE",
"293 412 OFFCURVE",
"295 418 OFFCURVE",
"295 423 CURVE SMOOTH",
"295 426 OFFCURVE",
"294 429 OFFCURVE",
"290 429 CURVE SMOOTH",
"283 429 OFFCURVE",
"278 427 OFFCURVE",
"272 422 CURVE SMOOTH",
"265 416 OFFCURVE",
"103 248 OFFCURVE",
"84 229 CURVE SMOOTH",
"76 221 OFFCURVE",
"72 215 OFFCURVE",
"72 211 CURVE SMOOTH",
"72 209 OFFCURVE",
"73 207 OFFCURVE",
"74 206 CURVE SMOOTH",
"84 195 OFFCURVE",
"95 184 OFFCURVE",
"105 174 CURVE SMOOTH",
"116 164 OFFCURVE",
"247 7 OFFCURVE",
"257 -1 CURVE",
"264 -3 OFFCURVE",
"274 -7 OFFCURVE",
"281 -7 CURVE SMOOTH"
);
},
{
closed = 1;
nodes = (
"52 -20 OFFCURVE",
"57 -13 OFFCURVE",
"57 -6 CURVE SMOOTH",
"57 -4 LINE SMOOTH",
"51 44 OFFCURVE",
"49 90 OFFCURVE",
"49 135 CURVE SMOOTH",
"49 314 OFFCURVE",
"89 466 OFFCURVE",
"129 548 CURVE SMOOTH",
"131 553 OFFCURVE",
"131 560 OFFCURVE",
"131 563 CURVE SMOOTH",
"131 577 OFFCURVE",
"123 584 OFFCURVE",
"113 584 CURVE SMOOTH",
"100 584 OFFCURVE",
"91 575 OFFCURVE",
"87 562 CURVE SMOOTH",
"28 404 OFFCURVE",
"15 244 OFFCURVE",
"15 108 CURVE SMOOTH",
"15 79 OFFCURVE",
"16 -20 OFFCURVE",
"44 -20 CURVE SMOOTH"
);
}
);
width = 280;
}
);
unicode = 0138;
},
{
glyphname = l;
lastChange = "2021-11-02 15:04:42 +0000";
layers = (
{
layerId = "747EDECB-6CB4-4831-9662-77535A1F4B33";
paths = (
{
closed = 1;
nodes = (
"202 -13 OFFCURVE",
"284 172 OFFCURVE",
"284 228 CURVE SMOOTH",
"284 232 OFFCURVE",
"283 237 OFFCURVE",
"281 240 CURVE",
"267 238 OFFCURVE",
"205 15 OFFCURVE",
"136 15 CURVE SMOOTH",
"85 15 OFFCURVE",
"80 139 OFFCURVE",
"80 173 CURVE SMOOTH",
"80 196 OFFCURVE",
"81 220 OFFCURVE",
"83 243 CURVE",
"97 243 OFFCURVE",
"112 258 OFFCURVE",
"122 266 CURVE",
"197 339 OFFCURVE",
"240 469 OFFCURVE",
"255 570 CURVE SMOOTH",
"257 584 OFFCURVE",
"258 597 OFFCURVE",
"258 611 CURVE SMOOTH",
"258 642 OFFCURVE",
"249 711 OFFCURVE",
"207 711 CURVE SMOOTH",
"193 711 OFFCURVE",
"167 699 OFFCURVE",
"167 683 CURVE SMOOTH",
"167 676 OFFCURVE",
"172 667 OFFCURVE",
"180 667 CURVE SMOOTH",
"183 667 LINE",
"129 556 OFFCURVE",
"105 504 OFFCURVE",
"76 377 CURVE SMOOTH",
"61 310 OFFCURVE",
"53 241 OFFCURVE",
"53 173 CURVE SMOOTH",
"53 124 OFFCURVE",
"57 -13 OFFCURVE",
"130 -13 CURVE SMOOTH"
);
},
{
closed = 1;
nodes = (
"93 334 OFFCURVE",
"161 615 OFFCURVE",
"202 658 CURVE SMOOTH",
"205 661 OFFCURVE",
"210 663 OFFCURVE",
"212 668 CURVE",
"229 663 OFFCURVE",
"229 636 OFFCURVE",
"229 623 CURVE SMOOTH",
"229 556 OFFCURVE",
"163 284 OFFCURVE",
"85 263 CURVE"
);
}
);
width = 212;
}
);
note = l;
unicode = 006C;
},
{
glyphname = m;
lastChange = "2021-11-02 15:04:42 +0000";
layers = (
{
layerId = "747EDECB-6CB4-4831-9662-77535A1F4B33";
paths = (
{
closed = 1;
nodes = (
"69 -14 OFFCURVE",
"74 -9 OFFCURVE",
"76 -2 CURVE SMOOTH",
"98 61 OFFCURVE",
"102 130 OFFCURVE",
"123 194 CURVE SMOOTH",
"135 229 OFFCURVE",
"151 263 OFFCURVE",
"170 295 CURVE SMOOTH",
"176 305 OFFCURVE",
"183 319 OFFCURVE",
"196 319 CURVE SMOOTH",
"208 319 OFFCURVE",
"210 247 OFFCURVE",
"210 237 CURVE SMOOTH",
"210 226 OFFCURVE",
"207 195 OFFCURVE",
"207 165 CURVE SMOOTH",
"207 132 OFFCURVE",
"210 101 OFFCURVE",
"224 101 CURVE SMOOTH",
"231 101 OFFCURVE",
"235 107 OFFCURVE",
"238 113 CURVE SMOOTH",
"276 191 OFFCURVE",
"300 269 OFFCURVE",
"351 341 CURVE SMOOTH",
"358 351 OFFCURVE",
"386 395 OFFCURVE",
"398 395 CURVE",
"400 394 LINE",
"402 391 OFFCURVE",
"404 386 OFFCURVE",
"404 382 CURVE SMOOTH",
"404 355 OFFCURVE",
"392 325 OFFCURVE",
"387 298 CURVE SMOOTH",
"377 247 OFFCURVE",
"370 196 OFFCURVE",
"370 144 CURVE SMOOTH",
"370 117 OFFCURVE",
"378 45 OFFCURVE",
"417 45 CURVE SMOOTH",
"447 45 OFFCURVE",
"517 139 OFFCURVE",
"517 166 CURVE SMOOTH",
"517 169 OFFCURVE",
"516 173 OFFCURVE",
"513 176 CURVE",
"506 175 OFFCURVE",
"457 76 OFFCURVE",
"417 76 CURVE SMOOTH",
"398 76 OFFCURVE",
"400 133 OFFCURVE",
"400 144 CURVE SMOOTH",
"400 230 OFFCURVE",
"430 313 OFFCURVE",
"430 393 CURVE SMOOTH",
"430 406 OFFCURVE",
"428 433 OFFCURVE",
"409 433 CURVE SMOOTH",
"353 433 OFFCURVE",
"260 246 OFFCURVE",
"240 197 CURVE",
"239 229 OFFCURVE",
"242 349 OFFCURVE",
"196 349 CURVE SMOOTH",
"151 349 OFFCURVE",
"116 260 OFFCURVE",
"102 226 CURVE",
"104 256 OFFCURVE",
"106 285 OFFCURVE",
"106 315 CURVE SMOOTH",
"106 346 OFFCURVE",
"106 430 OFFCURVE",
"82 453 CURVE",
"73 457 LINE",
"61 456 OFFCURVE",
"48 445 OFFCURVE",
"48 433 CURVE SMOOTH",
"48 429 OFFCURVE",
"49 426 OFFCURVE",
"52 423 CURVE SMOOTH",
"74 398 OFFCURVE",
"77 342 OFFCURVE",
"77 310 CURVE SMOOTH",
"77 194 OFFCURVE",
"46 115 OFFCURVE",
"46 7 CURVE SMOOTH",
"46 5 LINE SMOOTH",
"46 -5 OFFCURVE",
"49 -14 OFFCURVE",
"61 -14 CURVE SMOOTH"
);
}
);
width = 494;
}
);
note = m;
unicode = 006D;
},
{
glyphname = n;
lastChange = "2021-11-02 15:04:42 +0000";
layers = (
{
layerId = "747EDECB-6CB4-4831-9662-77535A1F4B33";
paths = (
{
closed = 1;
nodes = (
"76 -4 OFFCURVE",
"80 2 OFFCURVE",
"83 8 CURVE SMOOTH",
"99 46 OFFCURVE",
"191 290 OFFCURVE",
"223 290 CURVE SMOOTH",
"230 290 OFFCURVE",
"230 247 OFFCURVE",
"230 241 CURVE SMOOTH",
"230 197 OFFCURVE",
"223 153 OFFCURVE",
"223 109 CURVE SMOOTH",
"223 81 OFFCURVE",
"228 22 OFFCURVE",
"268 22 CURVE SMOOTH",
"304 22 OFFCURVE",
"372 152 OFFCURVE",
"372 178 CURVE SMOOTH",
"372 181 OFFCURVE",
"371 195 OFFCURVE",
"365 195 CURVE SMOOTH",
"362 195 OFFCURVE",
"361 190 OFFCURVE",
"360 188 CURVE SMOOTH",
"350 165 OFFCURVE",
"293 50 OFFCURVE",
"272 50 CURVE SMOOTH",
"252 50 OFFCURVE",
"250 105 OFFCURVE",
"250 118 CURVE SMOOTH",
"250 180 OFFCURVE",
"259 241 OFFCURVE",
"259 303 CURVE SMOOTH",
"259 317 OFFCURVE",
"251 349 OFFCURVE",
"232 349 CURVE SMOOTH",
"199 349 OFFCURVE",
"103 141 OFFCURVE",
"91 104 CURVE",
"95 167 OFFCURVE",
"97 231 OFFCURVE",
"97 293 CURVE SMOOTH",
"97 332 OFFCURVE",
"93 388 OFFCURVE",
"60 388 CURVE SMOOTH",
"52 388 OFFCURVE",
"43 383 OFFCURVE",
"43 375 CURVE SMOOTH",
"43 367 OFFCURVE",
"49 362 OFFCURVE",
"54 358 CURVE SMOOTH",
"65 348 OFFCURVE",
"67 255 OFFCURVE",
"67 239 CURVE SMOOTH",
"67 164 OFFCURVE",
"54 88 OFFCURVE",
"54 14 CURVE SMOOTH",
"54 5 OFFCURVE",
"58 -4 OFFCURVE",
"68 -4 CURVE SMOOTH"
);
}
);
width = 286;
}
);
note = n;
unicode = 006E;
},
{
glyphname = eng;
lastChange = "2021-11-02 15:04:42 +0000";
layers = (
{
layerId = "747EDECB-6CB4-4831-9662-77535A1F4B33";
paths = (
{
closed = 1;
nodes = (
"70 -299 OFFCURVE",
"87 -292 OFFCURVE",
"101 -282 CURVE SMOOTH",
"189 -218 OFFCURVE",
"215 -117 OFFCURVE",
"254 127 CURVE SMOOTH",
"263 181 OFFCURVE",
"270 246 OFFCURVE",
"270 293 CURVE SMOOTH",
"270 336 OFFCURVE",
"251 349 OFFCURVE",
"232 349 CURVE SMOOTH",
"199 349 OFFCURVE",
"103 141 OFFCURVE",
"91 104 CURVE",
"95 167 OFFCURVE",
"97 231 OFFCURVE",
"97 293 CURVE SMOOTH",
"97 332 OFFCURVE",
"93 388 OFFCURVE",
"60 388 CURVE SMOOTH",
"52 388 OFFCURVE",
"43 383 OFFCURVE",
"43 375 CURVE SMOOTH",
"43 367 OFFCURVE",
"49 362 OFFCURVE",
"54 358 CURVE SMOOTH",
"65 348 OFFCURVE",
"67 255 OFFCURVE",
"67 239 CURVE SMOOTH",
"67 164 OFFCURVE",
"54 88 OFFCURVE",
"54 14 CURVE SMOOTH",
"54 5 OFFCURVE",
"58 -4 OFFCURVE",
"68 -4 CURVE SMOOTH",
"76 -4 OFFCURVE",
"80 2 OFFCURVE",
"83 8 CURVE SMOOTH",
"99 46 OFFCURVE",
"191 290 OFFCURVE",
"223 290 CURVE SMOOTH",
"231 290 OFFCURVE",
"234 267 OFFCURVE",
"234 233 CURVE SMOOTH",
"234 195 OFFCURVE",
"230 144 OFFCURVE",
"226 97 CURVE",
"200 -83 OFFCURVE",
"180 -192 OFFCURVE",
"101 -253 CURVE SMOOTH",
"83 -266 OFFCURVE",
"64 -273 OFFCURVE",
"43 -273 CURVE SMOOTH",
"8 -273 OFFCURVE",
"-14 -250 OFFCURVE",
"-30 -214 CURVE SMOOTH",
"-34 -204 OFFCURVE",
"-37 -197 OFFCURVE",
"-38 -191 CURVE",
"-41 -186 OFFCURVE",
"-46 -188 OFFCURVE",
"-46 -194 CURVE SMOOTH",
"-46 -197 LINE",
"-37 -232 OFFCURVE",
"-25 -251 OFFCURVE",
"-9 -270 CURVE SMOOTH",
"10 -289 OFFCURVE",
"30 -299 OFFCURVE",
"53 -299 CURVE SMOOTH"
);
}
);
width = 286;
}
);
unicode = 014B;
},
{
glyphname = o;
lastChange = "2021-11-02 15:04:42 +0000";
layers = (
{
layerId = "747EDECB-6CB4-4831-9662-77535A1F4B33";
paths = (
{
closed = 1;
nodes = (
"191 -16 OFFCURVE",
"238 109 OFFCURVE",
"252 165 CURVE",
"276 160 OFFCURVE",
"356 184 OFFCURVE",
"356 215 CURVE SMOOTH",
"356 219 OFFCURVE",
"354 222 OFFCURVE",
"350 222 CURVE SMOOTH",
"337 222 OFFCURVE",
"322 187 OFFCURVE",
"265 187 CURVE",
"257 188 LINE",
"263 218 OFFCURVE",
"266 248 OFFCURVE",
"266 279 CURVE SMOOTH",
"266 318 OFFCURVE",
"237 426 OFFCURVE",
"185 426 CURVE SMOOTH",
"172 426 OFFCURVE",
"164 416 OFFCURVE",
"160 404 CURVE",
"88 396 OFFCURVE",
"58 160 OFFCURVE",
"58 109 CURVE SMOOTH",
"58 71 OFFCURVE",
"70 -16 OFFCURVE",
"121 -16 CURVE SMOOTH"
);
},
{
closed = 1;
nodes = (
"95 10 OFFCURVE",
"89 77 OFFCURVE",
"89 97 CURVE SMOOTH",
"89 181 OFFCURVE",
"109 303 OFFCURVE",
"151 375 CURVE",
"149 363 OFFCURVE",
"148 350 OFFCURVE",
"148 337 CURVE SMOOTH",
"148 276 OFFCURVE",
"172 212 OFFCURVE",
"223 177 CURVE",
"215 143 OFFCURVE",
"163 10 OFFCURVE",
"124 10 CURVE SMOOTH"
);
},
{
closed = 1;
nodes = (
"193 249 OFFCURVE",
"177 312 OFFCURVE",
"177 366 CURVE SMOOTH",
"177 372 OFFCURVE",
"178 402 OFFCURVE",
"188 402 CURVE SMOOTH",
"215 402 OFFCURVE",
"236 300 OFFCURVE",
"236 279 CURVE SMOOTH",
"236 255 OFFCURVE",
"234 231 OFFCURVE",
"230 208 CURVE"
);
}
);
width = 297;
}
);
note = o;
unicode = 006F;
},
{
glyphname = oslash;
lastChange = "2021-11-02 15:04:42 +0000";
layers = (
{
layerId = "747EDECB-6CB4-4831-9662-77535A1F4B33";
paths = (
{
closed = 1;
nodes = (
"24 -80 OFFCURVE",
"28 -63 OFFCURVE",
"31 -54 CURVE SMOOTH",
"39 -31 OFFCURVE",
"52 0 OFFCURVE",
"70 33 CURVE",
"79 6 OFFCURVE",
"95 -16 OFFCURVE",
"121 -16 CURVE SMOOTH",
"191 -16 OFFCURVE",
"238 109 OFFCURVE",
"252 165 CURVE",
"276 160 OFFCURVE",
"356 184 OFFCURVE",
"356 215 CURVE SMOOTH",
"356 219 OFFCURVE",
"354 222 OFFCURVE",
"350 222 CURVE SMOOTH",
"337 222 OFFCURVE",
"322 187 OFFCURVE",
"265 187 CURVE",
"257 188 LINE",
"263 218 OFFCURVE",
"266 248 OFFCURVE",
"266 279 CURVE SMOOTH",
"266 293 OFFCURVE",
"261 317 OFFCURVE",
"254 342 CURVE",
"272 370 OFFCURVE",
"289 395 OFFCURVE",
"303 414 CURVE SMOOTH",
"304 415 OFFCURVE",
"306 418 OFFCURVE",
"306 420 CURVE SMOOTH",
"306 422 OFFCURVE",
"303 422 OFFCURVE",
"301 422 CURVE SMOOTH",
"290 422 OFFCURVE",
"266 410 OFFCURVE",
"258 401 CURVE",
"241 375 LINE",
"228 403 OFFCURVE",
"209 426 OFFCURVE",
"185 426 CURVE SMOOTH",
"172 426 OFFCURVE",
"164 416 OFFCURVE",
"160 404 CURVE",
"88 396 OFFCURVE",
"58 160 OFFCURVE",
"58 109 CURVE SMOOTH",
"58 95 OFFCURVE",
"59 74 OFFCURVE",
"64 54 CURVE",
"30 -11 OFFCURVE",
"7 -62 OFFCURVE",
"7 -74 CURVE SMOOTH",
"7 -79 OFFCURVE",
"9 -80 OFFCURVE",
"13 -82 CURVE"
);
},
{
closed = 1;
nodes = (
"103 10 OFFCURVE",
"94 45 OFFCURVE",
"90 72 CURVE",
"116 120 OFFCURVE",
"148 172 OFFCURVE",
"179 223 CURVE",
"190 205 OFFCURVE",
"205 189 OFFCURVE",
"223 177 CURVE",
"215 143 OFFCURVE",
"163 10 OFFCURVE",
"124 10 CURVE SMOOTH"
);
},
{
closed = 1;
nodes = (
"89 185 OFFCURVE",
"109 304 OFFCURVE",
"151 375 CURVE",
"149 363 OFFCURVE",
"148 350 OFFCURVE",
"148 338 CURVE SMOOTH",
"148 306 OFFCURVE",
"154 273 OFFCURVE",
"167 245 CURVE",
"141 199 OFFCURVE",
"114 148 OFFCURVE",
"89 101 CURVE"
);
},
{
closed = 1;
nodes = (
"217 222 OFFCURVE",
"207 238 OFFCURVE",
"199 256 CURVE",
"210 274 OFFCURVE",
"222 291 OFFCURVE",
"232 308 CURVE",
"235 295 OFFCURVE",
"236 284 OFFCURVE",
"236 279 CURVE SMOOTH",
"236 255 OFFCURVE",
"234 231 OFFCURVE",
"230 208 CURVE"
);
},
{
closed = 1;
nodes = (
"180 311 OFFCURVE",
"177 340 OFFCURVE",
"177 366 CURVE SMOOTH",
"177 372 OFFCURVE",
"178 402 OFFCURVE",
"188 402 CURVE SMOOTH",
"202 402 OFFCURVE",
"215 374 OFFCURVE",
"223 344 CURVE",
"188 284 LINE"
);
}
);
width = 297;
}
);
note = oslash;
unicode = 00F8;
},
{
glyphname = oe;
lastChange = "2021-11-02 15:04:42 +0000";
layers = (
{
layerId = "747EDECB-6CB4-4831-9662-77535A1F4B33";
paths = (
{
closed = 1;
nodes = (
"170 -16 OFFCURVE",
"206 42 OFFCURVE",
"230 100 CURVE",
"235 49 OFFCURVE",
"251 0 OFFCURVE",
"293 0 CURVE SMOOTH",
"360 0 OFFCURVE",
"463 192 OFFCURVE",
"463 245 CURVE SMOOTH",
"463 250 OFFCURVE",
"461 255 OFFCURVE",
"455 255 CURVE SMOOTH",
"447 255 OFFCURVE",
"444 247 OFFCURVE",
"441 241 CURVE SMOOTH",
"423 193 OFFCURVE",
"355 30 OFFCURVE",
"293 30 CURVE SMOOTH",
"258 30 OFFCURVE",
"257 81 OFFCURVE",
"257 106 CURVE SMOOTH",
"257 138 OFFCURVE",
"257 171 OFFCURVE",
"261 203 CURVE",
"310 226 OFFCURVE",
"387 296 OFFCURVE",
"387 354 CURVE SMOOTH",
"387 383 OFFCURVE",
"363 397 OFFCURVE",
"337 403 CURVE",
"342 412 OFFCURVE",
"334 423 OFFCURVE",
"324 423 CURVE SMOOTH",
"315 423 OFFCURVE",
"307 411 OFFCURVE",
"301 405 CURVE",
"295 404 OFFCURVE",
"289 399 OFFCURVE",
"289 393 CURVE SMOOTH",
"289 392 LINE",
"289 387 LINE",
"277 368 OFFCURVE",
"267 346 OFFCURVE",
"258 323 CURVE",
"250 378 OFFCURVE",
"229 426 OFFCURVE",
"185 426 CURVE SMOOTH",
"172 426 OFFCURVE",
"164 416 OFFCURVE",
"160 404 CURVE",
"88 396 OFFCURVE",
"58 160 OFFCURVE",
"58 109 CURVE SMOOTH",
"58 71 OFFCURVE",
"70 -16 OFFCURVE",
"121 -16 CURVE SMOOTH"
);
},
{
closed = 1;
nodes = (
"95 10 OFFCURVE",
"89 77 OFFCURVE",
"89 97 CURVE SMOOTH",
"89 181 OFFCURVE",
"109 303 OFFCURVE",
"151 375 CURVE",
"161 389 OFFCURVE",
"178 402 OFFCURVE",
"188 402 CURVE SMOOTH",
"215 402 OFFCURVE",
"236 300 OFFCURVE",
"236 279 CURVE SMOOTH",
"236 260 OFFCURVE",
"234 235 OFFCURVE",
"231 214 CURVE",
"224 211 OFFCURVE",
"217 207 OFFCURVE",
"215 201 CURVE",
"215 194 OFFCURVE",
"221 192 OFFCURVE",
"227 192 CURVE",
"208 113 OFFCURVE",
"162 10 OFFCURVE",
"124 10 CURVE SMOOTH"
);
},
{
closed = 1;
nodes = (
"275 282 OFFCURVE",
"291 333 OFFCURVE",
"316 375 CURVE",
"328 373 OFFCURVE",
"350 367 OFFCURVE",
"350 351 CURVE SMOOTH",
"350 304 OFFCURVE",
"303 257 OFFCURVE",
"266 234 CURVE"
);
}
);
width = 395;
}
);
note = oe;
unicode = 0153;
},
{
glyphname = p;
lastChange = "2021-11-02 15:04:42 +0000";
layers = (
{
layerId = "747EDECB-6CB4-4831-9662-77535A1F4B33";
paths = (
{
closed = 1;
nodes = (
"120 -258 OFFCURVE",
"161 -217 OFFCURVE",
"161 -194 CURVE SMOOTH",
"161 -191 OFFCURVE",
"161 -187 OFFCURVE",
"157 -187 CURVE SMOOTH",
"146 -187 OFFCURVE",
"129 -235 OFFCURVE",
"103 -235 CURVE SMOOTH",
"57 -235 OFFCURVE",
"56 -94 OFFCURVE",
"56 -64 CURVE SMOOTH",
"56 78 OFFCURVE",
"88 232 OFFCURVE",
"129 368 CURVE",
"175 344 OFFCURVE",
"222 310 OFFCURVE",
"220 253 CURVE SMOOTH",
"220 246 LINE",
"178 211 OFFCURVE",
"68 96 OFFCURVE",
"68 42 CURVE SMOOTH",
"68 31 OFFCURVE",
"75 26 OFFCURVE",
"85 26 CURVE SMOOTH",
"171 26 OFFCURVE",
"250 169 OFFCURVE",
"250 245 CURVE",
"260 255 OFFCURVE",
"311 294 OFFCURVE",
"311 303 CURVE SMOOTH",
"311 306 OFFCURVE",
"309 308 OFFCURVE",
"306 308 CURVE SMOOTH",
"300 308 OFFCURVE",
"257 276 OFFCURVE",
"249 270 CURVE",
"242 332 OFFCURVE",
"192 375 OFFCURVE",
"141 404 CURVE",
"143 409 OFFCURVE",
"148 420 OFFCURVE",
"148 425 CURVE SMOOTH",
"148 434 OFFCURVE",
"140 440 OFFCURVE",
"132 440 CURVE SMOOTH",
"120 440 OFFCURVE",
"117 425 OFFCURVE",
"113 416 CURVE",
"107 418 OFFCURVE",
"102 419 OFFCURVE",
"97 419 CURVE SMOOTH",
"90 419 OFFCURVE",
"85 415 OFFCURVE",
"85 401 CURVE SMOOTH",
"85 391 OFFCURVE",
"89 375 OFFCURVE",
"100 373 CURVE",
"63 242 OFFCURVE",
"30 85 OFFCURVE",
"30 -52 CURVE SMOOTH",
"30 -94 OFFCURVE",
"33 -258 OFFCURVE",
"98 -258 CURVE SMOOTH"
);
},
{
closed = 1;
nodes = (
"91 49 OFFCURVE",
"89 48 OFFCURVE",
"89 51 CURVE SMOOTH",
"89 68 OFFCURVE",
"195 190 OFFCURVE",
"215 211 CURVE",
"204 167 OFFCURVE",
"148 49 OFFCURVE",
"93 49 CURVE SMOOTH"
);
}
);
width = 260;
}
);
note = p;
unicode = 0070;
},
{
glyphname = thorn;
lastChange = "2021-11-02 15:04:42 +0000";
layers = (
{
layerId = "747EDECB-6CB4-4831-9662-77535A1F4B33";
paths = (
{
closed = 1;
nodes = (
"149 -253 OFFCURVE",
"187 -211 OFFCURVE",
"186 -188 CURVE",
"185 -185 OFFCURVE",
"185 -181 OFFCURVE",
"181 -181 CURVE SMOOTH",
"170 -181 OFFCURVE",
"157 -229 OFFCURVE",
"131 -230 CURVE SMOOTH",
"85 -231 OFFCURVE",
"77 -84 OFFCURVE",
"75 -54 CURVE SMOOTH",
"72 -15 OFFCURVE",
"70 23 OFFCURVE",
"71 61 CURVE",
"80 40 OFFCURVE",
"98 25 OFFCURVE",
"124 25 CURVE SMOOTH",
"212 25 OFFCURVE",
"263 244 OFFCURVE",
"263 311 CURVE SMOOTH",
"263 335 OFFCURVE",
"260 378 OFFCURVE",
"227 378 CURVE SMOOTH",
"175 378 OFFCURVE",
"109 262 OFFCURVE",
"77 175 CURVE",
"92 325 OFFCURVE",
"107 413 OFFCURVE",
"162 521 CURVE SMOOTH",
"170 536 OFFCURVE",
"192 572 OFFCURVE",
"207 580 CURVE",
"212 578 OFFCURVE",
"217 577 OFFCURVE",
"221 577 CURVE SMOOTH",
"228 577 OFFCURVE",
"234 581 OFFCURVE",
"234 592 CURVE SMOOTH",
"234 607 OFFCURVE",
"226 620 OFFCURVE",
"210 620 CURVE SMOOTH",
"182 620 OFFCURVE",
"149 560 OFFCURVE",
"138 538 CURVE SMOOTH",
"71 408 OFFCURVE",
"41 220 OFFCURVE",
"41 49 CURVE SMOOTH",
"41 16 OFFCURVE",
"42 -17 OFFCURVE",
"44 -48 CURVE SMOOTH",
"47 -90 OFFCURVE",
"62 -254 OFFCURVE",
"127 -253 CURVE SMOOTH"
);
},
{
closed = 1;
nodes = (
"92 50 OFFCURVE",
"94 93 OFFCURVE",
"94 108 CURVE SMOOTH",
"94 149 OFFCURVE",
"177 341 OFFCURVE",
"219 341 CURVE SMOOTH",
"232 341 OFFCURVE",
"233 328 OFFCURVE",
"233 316 CURVE SMOOTH",
"233 312 LINE SMOOTH",
"233 256 OFFCURVE",
"186 50 OFFCURVE",
"115 50 CURVE SMOOTH"
);
}
);
width = 300;
}
);
note = thorn;
unicode = 00FE;
},
{
glyphname = q;
lastChange = "2021-11-02 15:04:40 +0000";
layers = (
{
layerId = "747EDECB-6CB4-4831-9662-77535A1F4B33";
paths = (
{
closed = 1;
nodes = (
"243 -263 OFFCURVE",
"300 -158 OFFCURVE",
"300 -127 CURVE SMOOTH",
"300 -124 OFFCURVE",
"299 -115 OFFCURVE",
"294 -115 CURVE SMOOTH",
"284 -115 OFFCURVE",
"248 -232 OFFCURVE",
"206 -232 CURVE SMOOTH",
"167 -232 OFFCURVE",
"167 -112 OFFCURVE",
"167 -87 CURVE SMOOTH",
"167 -10 OFFCURVE",
"178 118 OFFCURVE",
"204 191 CURVE SMOOTH",
"221 238 OFFCURVE",
"263 312 OFFCURVE",
"263 363 CURVE SMOOTH",
"263 368 OFFCURVE",
"263 374 OFFCURVE",
"259 377 CURVE SMOOTH",
"257 378 OFFCURVE",
"255 379 OFFCURVE",
"253 379 CURVE SMOOTH",
"219 379 OFFCURVE",
"191 230 OFFCURVE",
"180 200 CURVE SMOOTH",
"169 170 OFFCURVE",
"109 36 OFFCURVE",
"76 36 CURVE SMOOTH",
"49 36 OFFCURVE",
"48 85 OFFCURVE",
"48 103 CURVE SMOOTH",
"48 163 OFFCURVE",
"89 393 OFFCURVE",
"168 393 CURVE SMOOTH",
"206 393 OFFCURVE",
"181 360 OFFCURVE",
"204 360 CURVE SMOOTH",
"215 360 OFFCURVE",
"223 370 OFFCURVE",
"223 380 CURVE SMOOTH",
"223 416 OFFCURVE",
"207 432 OFFCURVE",
"171 432 CURVE SMOOTH",
"118 432 OFFCURVE",
"65 327 OFFCURVE",
"50 285 CURVE SMOOTH",
"32 232 OFFCURVE",
"20 164 OFFCURVE",
"20 108 CURVE SMOOTH",
"20 74 OFFCURVE",
"24 5 OFFCURVE",
"72 5 CURVE SMOOTH",
"109 5 OFFCURVE",
"142 63 OFFCURVE",
"157 91 CURVE",
"146 33 OFFCURVE",
"139 -27 OFFCURVE",
"139 -86 CURVE SMOOTH",
"139 -129 OFFCURVE",
"142 -263 OFFCURVE",
"206 -263 CURVE SMOOTH"
);
}
);
width = 260;
}
);
note = q;
unicode = 0071;
},
{
glyphname = r;
lastChange = "2021-11-02 15:04:42 +0000";
layers = (
{
layerId = "747EDECB-6CB4-4831-9662-77535A1F4B33";
paths = (
{
closed = 1;
nodes = (
"94 3 OFFCURVE",
"103 9 OFFCURVE",
"107 17 CURVE",
"106 98 OFFCURVE",
"148 209 OFFCURVE",
"178 284 CURVE SMOOTH",
"184 300 OFFCURVE",
"216 373 OFFCURVE",
"233 373 CURVE SMOOTH",
"245 373 OFFCURVE",
"248 307 OFFCURVE",
"248 297 CURVE SMOOTH",
"248 292 OFFCURVE",
"246 281 OFFCURVE",
"246 271 CURVE SMOOTH",
"246 261 OFFCURVE",
"248 253 OFFCURVE",
"254 253 CURVE SMOOTH",
"272 253 OFFCURVE",
"272 307 OFFCURVE",
"272 321 CURVE SMOOTH",
"272 342 OFFCURVE",
"267 414 OFFCURVE",
"238 414 CURVE SMOOTH",
"188 414 OFFCURVE",
"119 210 OFFCURVE",
"105 164 CURVE",
"105 177 OFFCURVE",
"104 189 OFFCURVE",
"104 202 CURVE SMOOTH",
"104 230 OFFCURVE",
"109 388 OFFCURVE",
"63 388 CURVE SMOOTH",
"57 388 OFFCURVE",
"47 385 OFFCURVE",
"47 377 CURVE SMOOTH",
"47 374 OFFCURVE",
"49 372 OFFCURVE",
"50 370 CURVE SMOOTH",
"76 329 OFFCURVE",
"77 223 OFFCURVE",
"77 173 CURVE SMOOTH",
"77 122 OFFCURVE",
"70 70 OFFCURVE",
"70 20 CURVE SMOOTH",
"70 11 OFFCURVE",
"75 3 OFFCURVE",
"85 3 CURVE SMOOTH"
);
}
);
width = 260;
}
);
note = r;
unicode = 0072;
},
{
glyphname = s;
lastChange = "2021-11-02 15:04:40 +0000";
layers = (
{
layerId = "747EDECB-6CB4-4831-9662-77535A1F4B33";
paths = (
{
closed = 1;
nodes = (
"130 -3 OFFCURVE",
"224 98 OFFCURVE",
"224 143 CURVE SMOOTH",
"224 154 OFFCURVE",
"221 165 OFFCURVE",
"215 175 CURVE",
"228 188 OFFCURVE",
"290 244 OFFCURVE",
"290 257 CURVE SMOOTH",
"290 259 OFFCURVE",
"288 261 OFFCURVE",
"286 261 CURVE SMOOTH",
"273 261 OFFCURVE",
"209 202 OFFCURVE",
"197 190 CURVE",
"172 206 OFFCURVE",
"83 216 OFFCURVE",
"83 249 CURVE SMOOTH",
"83 296 OFFCURVE",
"174 384 OFFCURVE",
"220 384 CURVE SMOOTH",
"228 384 OFFCURVE",
"233 369 OFFCURVE",
"242 369 CURVE SMOOTH",
"248 369 OFFCURVE",
"251 381 OFFCURVE",
"251 387 CURVE SMOOTH",
"251 407 OFFCURVE",
"230 415 OFFCURVE",
"213 415 CURVE SMOOTH",
"157 415 OFFCURVE",
"53 307 OFFCURVE",
"53 249 CURVE SMOOTH",
"53 192 OFFCURVE",
"139 189 OFFCURVE",
"176 170 CURVE",
"144 138 OFFCURVE",
"66 60 OFFCURVE",
"66 15 CURVE SMOOTH",
"66 4 OFFCURVE",
"73 -3 OFFCURVE",
"84 -3 CURVE SMOOTH"
);
},
{
closed = 1;
nodes = (
"118 48 OFFCURVE",
"116 50 OFFCURVE",
"116 54 CURVE SMOOTH",
"116 72 OFFCURVE",
"178 136 OFFCURVE",
"193 151 CURVE",
"196 147 OFFCURVE",
"197 141 OFFCURVE",
"197 136 CURVE SMOOTH",
"197 113 OFFCURVE",
"145 48 OFFCURVE",
"122 48 CURVE SMOOTH"
);
}
);
width = 246;
}
);
note = s;
unicode = 0073;
},
{
glyphname = germandbls;
lastChange = "2021-11-02 15:04:42 +0000";
layers = (
{
layerId = "747EDECB-6CB4-4831-9662-77535A1F4B33";
paths = (
{
closed = 1;
nodes = (
"-98 -336 OFFCURVE",
"-85 -333 OFFCURVE",
"-75 -327 CURVE SMOOTH",
"49 -252 OFFCURVE",
"72 99 OFFCURVE",
"119 315 CURVE SMOOTH",
"149 470 OFFCURVE",
"162 539 OFFCURVE",
"199 581 CURVE SMOOTH",
"223 608 OFFCURVE",
"245 619 OFFCURVE",
"265 619 CURVE SMOOTH",
"300 619 OFFCURVE",
"324 582 OFFCURVE",
"324 529 CURVE SMOOTH",
"324 516 OFFCURVE",
"323 503 OFFCURVE",
"320 489 CURVE SMOOTH",
"314 458 OFFCURVE",
"287 383 OFFCURVE",
"244 357 CURVE",
"204 321 OFFCURVE",
"168 270 OFFCURVE",
"168 236 CURVE SMOOTH",
"168 179 OFFCURVE",
"254 176 OFFCURVE",
"291 157 CURVE",
"259 125 OFFCURVE",
"181 47 OFFCURVE",
"181 2 CURVE SMOOTH",
"181 -9 OFFCURVE",
"188 -16 OFFCURVE",
"199 -16 CURVE SMOOTH",
"245 -16 OFFCURVE",
"339 85 OFFCURVE",
"339 130 CURVE SMOOTH",
"339 141 OFFCURVE",
"336 152 OFFCURVE",
"330 162 CURVE",
"343 175 OFFCURVE",
"405 231 OFFCURVE",
"405 244 CURVE SMOOTH",
"405 246 OFFCURVE",
"403 248 OFFCURVE",
"401 248 CURVE SMOOTH",
"388 248 OFFCURVE",
"324 189 OFFCURVE",
"312 177 CURVE",
"287 193 OFFCURVE",
"198 203 OFFCURVE",
"198 236 CURVE SMOOTH",
"198 263 OFFCURVE",
"222 311 OFFCURVE",
"256 341 CURVE",
"324 386 OFFCURVE",
"341 449 OFFCURVE",
"353 489 CURVE SMOOTH",
"358 505 OFFCURVE",
"360 520 OFFCURVE",
"360 533 CURVE SMOOTH",
"360 605 OFFCURVE",
"297 634 OFFCURVE",
"247 634 CURVE SMOOTH",
"231 634 OFFCURVE",
"217 631 OFFCURVE",
"206 625 CURVE SMOOTH",
"133 586 OFFCURVE",
"104 447 OFFCURVE",
"81 303 CURVE",
"60 302 OFFCURVE",
"36 300 OFFCURVE",
"11 297 CURVE SMOOTH",
"4 296 OFFCURVE",
"24 271 OFFCURVE",
"30 272 CURVE SMOOTH",
"45 273 OFFCURVE",
"61 275 OFFCURVE",
"77 277 CURVE",
"69 214 OFFCURVE",
"44 93 OFFCURVE",
"24 0 CURVE SMOOTH",
"-2 -120 OFFCURVE",
"-46 -238 OFFCURVE",
"-87 -277 CURVE SMOOTH",
"-102 -290 OFFCURVE",
"-115 -296 OFFCURVE",
"-125 -296 CURVE SMOOTH",
"-139 -296 OFFCURVE",
"-148 -286 OFFCURVE",
"-148 -270 CURVE SMOOTH",
"-148 -255 OFFCURVE",
"-140 -234 OFFCURVE",
"-122 -212 CURVE SMOOTH",
"-118 -207 OFFCURVE",
"-116 -201 OFFCURVE",
"-116 -197 CURVE SMOOTH",
"-116 -194 OFFCURVE",
"-118 -191 OFFCURVE",
"-120 -191 CURVE SMOOTH",
"-122 -191 OFFCURVE",
"-123 -192 OFFCURVE",
"-125 -194 CURVE SMOOTH",
"-158 -233 OFFCURVE",
"-171 -263 OFFCURVE",
"-171 -285 CURVE SMOOTH",
"-171 -320 OFFCURVE",
"-140 -336 OFFCURVE",
"-110 -336 CURVE SMOOTH"
);
},
{
closed = 1;
nodes = (
"233 35 OFFCURVE",
"231 37 OFFCURVE",
"231 41 CURVE SMOOTH",
"231 59 OFFCURVE",
"293 123 OFFCURVE",
"308 138 CURVE",
"311 134 OFFCURVE",
"312 128 OFFCURVE",
"312 123 CURVE SMOOTH",
"312 100 OFFCURVE",
"260 35 OFFCURVE",
"237 35 CURVE SMOOTH"
);
}
);
width = 361;
}
);
note = germandbls;
unicode = 00DF;
},
{
glyphname = t;
lastChange = "2021-11-02 15:04:42 +0000";
layers = (
{
layerId = "747EDECB-6CB4-4831-9662-77535A1F4B33";
paths = (
{
closed = 1;
nodes = (
"192 17 OFFCURVE",
"289 189 OFFCURVE",
"285 239 CURVE SMOOTH",
"285 242 LINE",
"270 238 OFFCURVE",
"194 47 OFFCURVE",
"139 47 CURVE SMOOTH",
"105 47 OFFCURVE",
"104 129 OFFCURVE",
"104 158 CURVE SMOOTH",
"104 234 OFFCURVE",
"111 313 OFFCURVE",
"121 389 CURVE",
"180 411 OFFCURVE",
"234 433 OFFCURVE",
"298 438 CURVE SMOOTH",
"313 439 OFFCURVE",
"329 441 OFFCURVE",
"342 447 CURVE",
"341 452 OFFCURVE",
"302 452 OFFCURVE",
"295 452 CURVE SMOOTH",
"235 452 OFFCURVE",
"183 440 OFFCURVE",
"125 423 CURVE",
"129 450 OFFCURVE",
"163 584 OFFCURVE",
"163 591 CURVE SMOOTH",
"163 600 OFFCURVE",
"151 608 OFFCURVE",
"142 608 CURVE SMOOTH",
"118 608 OFFCURVE",
"94 437 OFFCURVE",
"90 410 CURVE",
"73 404 OFFCURVE",
"-6 375 OFFCURVE",
"-6 351 CURVE SMOOTH",
"-6 341 OFFCURVE",
"4 330 OFFCURVE",
"14 330 CURVE SMOOTH",
"19 330 OFFCURVE",
"22 333 OFFCURVE",
"25 336 CURVE SMOOTH",
"42 355 OFFCURVE",
"63 365 OFFCURVE",
"86 375 CURVE",
"79 303 OFFCURVE",
"72 229 OFFCURVE",
"72 157 CURVE SMOOTH",
"72 116 OFFCURVE",
"79 17 OFFCURVE",
"137 17 CURVE SMOOTH"
);
}
);
width = 237;
}
);
note = t;
unicode = 0074;
},
{
glyphname = u;
lastChange = "2021-11-02 15:04:42 +0000";
layers = (
{
layerId = "747EDECB-6CB4-4831-9662-77535A1F4B33";
paths = (
{
closed = 1;
nodes = (
"119 23 OFFCURVE",
"175 178 OFFCURVE",
"189 219 CURVE",
"189 179 OFFCURVE",
"183 57 OFFCURVE",
"244 57 CURVE SMOOTH",
"274 57 OFFCURVE",
"334 152 OFFCURVE",
"334 177 CURVE SMOOTH",
"334 181 OFFCURVE",
"332 185 OFFCURVE",
"328 185 CURVE SMOOTH",
"318 185 OFFCURVE",
"281 85 OFFCURVE",
"246 85 CURVE SMOOTH",
"217 85 OFFCURVE",
"219 157 OFFCURVE",
"219 175 CURVE SMOOTH",
"219 197 LINE SMOOTH",
"219 253 OFFCURVE",
"233 315 OFFCURVE",
"233 357 CURVE SMOOTH",
"233 367 OFFCURVE",
"229 375 OFFCURVE",
"218 375 CURVE SMOOTH",
"210 375 OFFCURVE",
"206 370 OFFCURVE",
"203 363 CURVE SMOOTH",
"187 319 OFFCURVE",
"196 275 OFFCURVE",
"168 213 CURVE SMOOTH",
"157 189 OFFCURVE",
"94 52 OFFCURVE",
"70 52 CURVE SMOOTH",
"50 52 OFFCURVE",
"49 124 OFFCURVE",
"49 136 CURVE SMOOTH",
"49 208 OFFCURVE",
"77 276 OFFCURVE",
"77 348 CURVE SMOOTH",
"77 359 OFFCURVE",
"76 375 OFFCURVE",
"61 375 CURVE SMOOTH",
"53 375 OFFCURVE",
"51 368 OFFCURVE",
"50 361 CURVE SMOOTH",
"48 340 OFFCURVE",
"48 320 OFFCURVE",
"45 299 CURVE SMOOTH",
"39 258 OFFCURVE",
"28 217 OFFCURVE",
"23 176 CURVE SMOOTH",
"21 163 OFFCURVE",
"21 149 OFFCURVE",
"21 136 CURVE SMOOTH",
"21 107 OFFCURVE",
"27 23 OFFCURVE",
"69 23 CURVE SMOOTH"
);
}
);
width = 304;
}
);
note = u;
unicode = 0075;
},
{
glyphname = v;
lastChange = "2021-11-02 15:04:40 +0000";
layers = (
{
layerId = "747EDECB-6CB4-4831-9662-77535A1F4B33";
paths = (
{
closed = 1;
nodes = (
"111 13 OFFCURVE",
"114 18 OFFCURVE",
"117 25 CURVE SMOOTH",
"144 99 OFFCURVE",
"170 169 OFFCURVE",
"204 241 CURVE",
"269 363 LINE",
"269 368 OFFCURVE",
"265 373 OFFCURVE",
"260 373 CURVE SMOOTH",
"237 373 OFFCURVE",
"138 158 OFFCURVE",
"122 122 CURVE",
"119 154 OFFCURVE",
"91 359 OFFCURVE",
"48 359 CURVE SMOOTH",
"38 359 OFFCURVE",
"27 358 OFFCURVE",
"27 345 CURVE SMOOTH",
"27 338 OFFCURVE",
"32 334 OFFCURVE",
"37 330 CURVE SMOOTH",
"65 309 OFFCURVE",
"93 138 OFFCURVE",
"93 102 CURVE SMOOTH",
"93 79 OFFCURVE",
"88 56 OFFCURVE",
"88 33 CURVE SMOOTH",
"88 23 OFFCURVE",
"90 13 OFFCURVE",
"102 13 CURVE SMOOTH"
);
}
);
width = 214;
}
);
note = v;
unicode = 0076;
},
{
glyphname = w;
lastChange = "2021-11-02 15:04:40 +0000";
layers = (
{
layerId = "747EDECB-6CB4-4831-9662-77535A1F4B33";
paths = (
{
closed = 1;
nodes = (
"214 18 OFFCURVE",
"256 73 OFFCURVE",
"267 92 CURVE SMOOTH",
"299 152 OFFCURVE",
"317 219 OFFCURVE",
"317 287 CURVE SMOOTH",
"317 323 OFFCURVE",
"288 406 OFFCURVE",
"243 406 CURVE SMOOTH",
"239 406 OFFCURVE",
"236 401 OFFCURVE",
"236 398 CURVE SMOOTH",
"236 389 OFFCURVE",
"244 387 OFFCURVE",
"250 384 CURVE SMOOTH",
"277 373 OFFCURVE",
"290 314 OFFCURVE",
"290 288 CURVE SMOOTH",
"290 226 OFFCURVE",
"274 164 OFFCURVE",
"245 109 CURVE SMOOTH",
"237 94 OFFCURVE",
"207 48 OFFCURVE",
"190 48 CURVE SMOOTH",
"160 48 OFFCURVE",
"149 152 OFFCURVE",
"148 173 CURVE",
"160 203 OFFCURVE",
"180 261 OFFCURVE",
"180 293 CURVE SMOOTH",
"180 306 OFFCURVE",
"176 323 OFFCURVE",
"160 323 CURVE SMOOTH",
"122 323 OFFCURVE",
"122 211 OFFCURVE",
"122 185 CURVE SMOOTH",
"122 178 OFFCURVE",
"122 172 OFFCURVE",
"123 165 CURVE",
"116 148 OFFCURVE",
"76 61 OFFCURVE",
"59 61 CURVE SMOOTH",
"43 61 OFFCURVE",
"43 92 OFFCURVE",
"43 102 CURVE SMOOTH",
"43 170 OFFCURVE",
"57 232 OFFCURVE",
"72 297 CURVE",
"73 299 OFFCURVE",
"73 302 OFFCURVE",
"73 305 CURVE SMOOTH",
"73 310 OFFCURVE",
"70 315 OFFCURVE",
"64 315 CURVE SMOOTH",
"34 315 OFFCURVE",
"17 125 OFFCURVE",
"17 99 CURVE SMOOTH",
"17 77 OFFCURVE",
"26 21 OFFCURVE",
"56 21 CURVE SMOOTH",
"84 21 OFFCURVE",
"118 99 OFFCURVE",
"128 123 CURVE",
"133 93 OFFCURVE",
"151 18 OFFCURVE",
"191 18 CURVE SMOOTH"
);
}
);
width = 320;
}
);
note = w;
unicode = 0077;
},
{
glyphname = x;
lastChange = "2021-11-02 15:04:40 +0000";
layers = (
{
layerId = "747EDECB-6CB4-4831-9662-77535A1F4B33";
paths = (
{
closed = 1;
nodes = (
"51 -23 OFFCURVE",
"52 -12 OFFCURVE",
"52 -5 CURVE SMOOTH",
"52 60 OFFCURVE",
"87 122 OFFCURVE",
"117 178 CURVE",
"133 138 OFFCURVE",
"148 99 OFFCURVE",
"163 59 CURVE SMOOTH",
"165 54 OFFCURVE",
"168 48 OFFCURVE",
"174 48 CURVE SMOOTH",
"180 48 OFFCURVE",
"185 53 OFFCURVE",
"185 58 CURVE SMOOTH",
"185 85 OFFCURVE",
"147 183 OFFCURVE",
"134 210 CURVE",
"144 227 OFFCURVE",
"239 359 OFFCURVE",
"239 360 CURVE SMOOTH",
"239 368 OFFCURVE",
"232 376 OFFCURVE",
"224 376 CURVE SMOOTH",
"195 376 OFFCURVE",
"131 266 OFFCURVE",
"117 242 CURVE",
"105 264 OFFCURVE",
"67 318 OFFCURVE",
"38 318 CURVE SMOOTH",
"29 318 OFFCURVE",
"23 307 OFFCURVE",
"23 298 CURVE SMOOTH",
"23 292 OFFCURVE",
"26 288 OFFCURVE",
"32 285 CURVE SMOOTH",
"66 267 OFFCURVE",
"84 248 OFFCURVE",
"102 213 CURVE",
"73 180 OFFCURVE",
"29 49 OFFCURVE",
"29 5 CURVE SMOOTH",
"29 -4 OFFCURVE",
"29 -23 OFFCURVE",
"41 -23 CURVE SMOOTH"
);
}
);
width = 214;
}
);
note = x;
unicode = 0078;
},
{
glyphname = y;
lastChange = "2021-11-02 15:04:40 +0000";
layers = (
{
layerId = "747EDECB-6CB4-4831-9662-77535A1F4B33";
paths = (
{
closed = 1;
nodes = (
"78 -365 OFFCURVE",
"152 -237 OFFCURVE",
"173 -190 CURVE SMOOTH",
"230 -61 OFFCURVE",
"265 79 OFFCURVE",
"265 221 CURVE SMOOTH",
"265 235 OFFCURVE",
"263 377 OFFCURVE",
"238 377 CURVE SMOOTH",
"231 377 OFFCURVE",
"229 370 OFFCURVE",
"228 365 CURVE SMOOTH",
"212 297 OFFCURVE",
"159 131 OFFCURVE",
"87 105 CURVE SMOOTH",
"85 104 OFFCURVE",
"84 105 OFFCURVE",
"82 105 CURVE SMOOTH",
"77 105 OFFCURVE",
"76 132 OFFCURVE",
"76 136 CURVE SMOOTH",
"76 213 OFFCURVE",
"121 301 OFFCURVE",
"121 370 CURVE SMOOTH",
"121 380 OFFCURVE",
"111 388 OFFCURVE",
"102 388 CURVE SMOOTH",
"94 388 OFFCURVE",
"90 383 OFFCURVE",
"87 376 CURVE SMOOTH",
"74 338 OFFCURVE",
"44 154 OFFCURVE",
"44 117 CURVE SMOOTH",
"44 100 OFFCURVE",
"46 65 OFFCURVE",
"70 65 CURVE SMOOTH",
"132 65 OFFCURVE",
"208 223 OFFCURVE",
"229 275 CURVE",
"231 250 OFFCURVE",
"232 226 OFFCURVE",
"232 201 CURVE SMOOTH",
"232 72 OFFCURVE",
"201 -46 OFFCURVE",
"157 -167 CURVE SMOOTH",
"142 -209 OFFCURVE",
"69 -335 OFFCURVE",
"21 -335 CURVE SMOOTH",
"-5 -335 OFFCURVE",
"-5 -269 OFFCURVE",
"-5 -251 CURVE SMOOTH",
"-5 -158 OFFCURVE",
"32 -46 OFFCURVE",
"105 14 CURVE SMOOTH",
"113 21 OFFCURVE",
"138 38 OFFCURVE",
"149 38 CURVE SMOOTH",
"165 38 OFFCURVE",
"166 30 OFFCURVE",
"166 15 CURVE SMOOTH",
"166 -4 OFFCURVE",
"156 -23 OFFCURVE",
"156 -41 CURVE SMOOTH",
"156 -46 OFFCURVE",
"159 -52 OFFCURVE",
"165 -52 CURVE SMOOTH",
"183 -52 OFFCURVE",
"189 2 OFFCURVE",
"189 15 CURVE SMOOTH",
"189 36 OFFCURVE",
"182 65 OFFCURVE",
"156 65 CURVE SMOOTH",
"153 65 OFFCURVE",
"150 65 OFFCURVE",
"147 64 CURVE SMOOTH",
"23 34 OFFCURVE",
"-32 -159 OFFCURVE",
"-32 -269 CURVE SMOOTH",
"-32 -304 OFFCURVE",
"-27 -365 OFFCURVE",
"21 -365 CURVE SMOOTH"
);
}
);
width = 283;
}
);
note = y;
unicode = 0079;
},
{
glyphname = z;
lastChange = "2021-11-02 15:04:40 +0000";
layers = (
{
layerId = "747EDECB-6CB4-4831-9662-77535A1F4B33";
paths = (
{
closed = 1;
nodes = (
"54 6 OFFCURVE",
"59 11 OFFCURVE",
"63 16 CURVE SMOOTH",
"96 58 OFFCURVE",
"159 81 OFFCURVE",
"213 81 CURVE SMOOTH",
"232 81 OFFCURVE",
"255 80 OFFCURVE",
"273 72 CURVE",
"276 74 OFFCURVE",
"280 78 OFFCURVE",
"280 82 CURVE SMOOTH",
"280 101 OFFCURVE",
"204 105 OFFCURVE",
"191 105 CURVE SMOOTH",
"143 105 OFFCURVE",
"119 93 OFFCURVE",
"79 69 CURVE",
"136 151 OFFCURVE",
"206 223 OFFCURVE",
"274 295 CURVE SMOOTH",
"278 299 OFFCURVE",
"282 305 OFFCURVE",
"282 311 CURVE SMOOTH",
"282 333 OFFCURVE",
"228 333 OFFCURVE",
"214 333 CURVE SMOOTH",
"193 333 OFFCURVE",
"111 320 OFFCURVE",
"111 290 CURVE SMOOTH",
"111 283 OFFCURVE",
"118 277 OFFCURVE",
"125 277 CURVE SMOOTH",
"127 277 OFFCURVE",
"177 303 OFFCURVE",
"228 303 CURVE SMOOTH",
"240 303 LINE",
"198 261 OFFCURVE",
"28 82 OFFCURVE",
"28 30 CURVE SMOOTH",
"28 19 OFFCURVE",
"36 6 OFFCURVE",
"48 6 CURVE SMOOTH"
);
}
);
width = 275;
}
);
note = z;
unicode = 007A;
},
{
glyphname = fi;
lastChange = "2021-11-02 15:04:40 +0000";
layers = (
{
layerId = "747EDECB-6CB4-4831-9662-77535A1F4B33";
paths = (
{
closed = 1;
nodes = (
"184 -341 OFFCURVE",
"187 -239 OFFCURVE",
"187 -200 CURVE SMOOTH",
"187 -128 OFFCURVE",
"172 -59 OFFCURVE",
"130 0 CURVE",
"184 9 OFFCURVE",
"256 123 OFFCURVE",
"300 214 CURVE",
"294 170 OFFCURVE",
"291 129 OFFCURVE",
"291 116 CURVE SMOOTH",
"291 83 OFFCURVE",
"296 10 OFFCURVE",
"342 10 CURVE SMOOTH",
"390 10 OFFCURVE",
"496 203 OFFCURVE",
"496 248 CURVE SMOOTH",
"496 253 OFFCURVE",
"494 259 OFFCURVE",
"488 259 CURVE SMOOTH",
"476 259 OFFCURVE",
"392 41 OFFCURVE",
"342 41 CURVE SMOOTH",
"320 41 OFFCURVE",
"318 96 OFFCURVE",
"318 111 CURVE SMOOTH",
"318 182 OFFCURVE",
"366 304 OFFCURVE",
"366 335 CURVE SMOOTH",
"366 346 OFFCURVE",
"357 353 OFFCURVE",
"346 353 CURVE SMOOTH",
"334 353 OFFCURVE",
"325 331 OFFCURVE",
"317 301 CURVE",
"274 225 OFFCURVE",
"178 30 OFFCURVE",
"111 25 CURVE",
"101 37 OFFCURVE",
"90 48 OFFCURVE",
"77 57 CURVE",
"77 119 OFFCURVE",
"91 176 OFFCURVE",
"101 236 CURVE",
"148 237 OFFCURVE",
"230 415 OFFCURVE",
"243 452 CURVE SMOOTH",
"258 490 OFFCURVE",
"269 530 OFFCURVE",
"277 570 CURVE SMOOTH",
"280 587 OFFCURVE",
"282 605 OFFCURVE",
"282 622 CURVE SMOOTH",
"282 649 OFFCURVE",
"273 717 OFFCURVE",
"235 717 CURVE SMOOTH",
"166 717 OFFCURVE",
"71 288 OFFCURVE",
"63 226 CURVE SMOOTH",
"56 175 OFFCURVE",
"49 123 OFFCURVE",
"46 71 CURVE",
"34 71 OFFCURVE",
"27 61 OFFCURVE",
"27 50 CURVE SMOOTH",
"27 37 OFFCURVE",
"34 24 OFFCURVE",
"44 16 CURVE",
"44 -40 OFFCURVE",
"44 -341 OFFCURVE",
"128 -341 CURVE SMOOTH"
);
},
{
closed = 1;
nodes = (
"82 -315 OFFCURVE",
"76 -37 OFFCURVE",
"76 -1 CURVE",
"94 -5 LINE",
"148 -63 OFFCURVE",
"158 -149 OFFCURVE",
"158 -225 CURVE SMOOTH",
"158 -244 OFFCURVE",
"160 -315 OFFCURVE",
"130 -315 CURVE SMOOTH"
);
},
{
closed = 1;
nodes = (
"118 385 OFFCURVE",
"171 571 OFFCURVE",
"226 666 CURVE",
"229 668 OFFCURVE",
"236 672 OFFCURVE",
"240 672 CURVE SMOOTH",
"254 672 OFFCURVE",
"254 647 OFFCURVE",
"254 639 CURVE SMOOTH",
"254 612 OFFCURVE",
"249 584 OFFCURVE",
"244 557 CURVE SMOOTH",
"235 504 OFFCURVE",
"163 295 OFFCURVE",
"108 278 CURVE"
);
},
{
closed = 1;
nodes = (
"370 393 OFFCURVE",
"378 397 OFFCURVE",
"380 405 CURVE SMOOTH",
"385 423 OFFCURVE",
"392 466 OFFCURVE",
"409 477 CURVE SMOOTH",
"416 481 OFFCURVE",
"422 488 OFFCURVE",
"422 496 CURVE SMOOTH",
"422 501 OFFCURVE",
"419 506 OFFCURVE",
"414 506 CURVE SMOOTH",
"387 506 OFFCURVE",
"343 429 OFFCURVE",
"343 407 CURVE SMOOTH",
"343 397 OFFCURVE",
"353 393 OFFCURVE",
"362 393 CURVE SMOOTH"
);
}
);
width = 423;
}
);
note = fi;
unicode = FB01;
},
{
glyphname = fl;
lastChange = "2021-11-02 15:04:42 +0000";
layers = (
{
layerId = "747EDECB-6CB4-4831-9662-77535A1F4B33";
paths = (
{
closed = 1;
nodes = (
"184 -341 OFFCURVE",
"187 -239 OFFCURVE",
"187 -200 CURVE SMOOTH",
"187 -128 OFFCURVE",
"172 -59 OFFCURVE",
"130 0 CURVE",
"160 10 OFFCURVE",
"252 92 OFFCURVE",
"290 146 CURVE",
"292 87 OFFCURVE",
"304 -13 OFFCURVE",
"367 -13 CURVE SMOOTH",
"439 -13 OFFCURVE",
"521 172 OFFCURVE",
"521 228 CURVE SMOOTH",
"521 232 OFFCURVE",
"520 237 OFFCURVE",
"518 240 CURVE",
"504 238 OFFCURVE",
"442 15 OFFCURVE",
"373 15 CURVE SMOOTH",
"322 15 OFFCURVE",
"317 139 OFFCURVE",
"317 173 CURVE SMOOTH",
"317 196 OFFCURVE",
"318 220 OFFCURVE",
"320 243 CURVE",
"334 243 OFFCURVE",
"349 258 OFFCURVE",
"359 266 CURVE",
"434 339 OFFCURVE",
"477 469 OFFCURVE",
"492 570 CURVE SMOOTH",
"494 584 OFFCURVE",
"495 597 OFFCURVE",
"495 611 CURVE SMOOTH",
"495 642 OFFCURVE",
"486 711 OFFCURVE",
"444 711 CURVE SMOOTH",
"430 711 OFFCURVE",
"404 699 OFFCURVE",
"404 683 CURVE SMOOTH",
"404 676 OFFCURVE",
"409 667 OFFCURVE",
"417 667 CURVE SMOOTH",
"420 667 LINE",
"366 556 OFFCURVE",
"342 504 OFFCURVE",
"313 377 CURVE SMOOTH",
"298 312 OFFCURVE",
"290 245 OFFCURVE",
"290 179 CURVE",
"258 143 OFFCURVE",
"180 30 OFFCURVE",
"111 25 CURVE",
"101 37 OFFCURVE",
"90 48 OFFCURVE",
"77 57 CURVE",
"77 119 OFFCURVE",
"91 176 OFFCURVE",
"101 236 CURVE",
"148 237 OFFCURVE",
"230 415 OFFCURVE",
"243 452 CURVE SMOOTH",
"258 490 OFFCURVE",
"269 530 OFFCURVE",
"277 570 CURVE SMOOTH",
"280 587 OFFCURVE",
"282 605 OFFCURVE",
"282 622 CURVE SMOOTH",
"282 649 OFFCURVE",
"273 717 OFFCURVE",
"235 717 CURVE SMOOTH",
"166 717 OFFCURVE",
"71 288 OFFCURVE",
"63 226 CURVE SMOOTH",
"56 175 OFFCURVE",
"49 123 OFFCURVE",
"46 71 CURVE",
"34 71 OFFCURVE",
"27 61 OFFCURVE",
"27 50 CURVE SMOOTH",
"27 37 OFFCURVE",
"34 24 OFFCURVE",
"44 16 CURVE",
"44 -40 OFFCURVE",
"44 -341 OFFCURVE",
"128 -341 CURVE SMOOTH"
);
},
{
closed = 1;
nodes = (
"82 -315 OFFCURVE",
"76 -37 OFFCURVE",
"76 -1 CURVE",
"94 -5 LINE",
"148 -63 OFFCURVE",
"158 -149 OFFCURVE",
"158 -225 CURVE SMOOTH",
"158 -244 OFFCURVE",
"160 -315 OFFCURVE",
"130 -315 CURVE SMOOTH"
);
},
{
closed = 1;
nodes = (
"118 385 OFFCURVE",
"171 571 OFFCURVE",
"226 666 CURVE",
"229 668 OFFCURVE",
"236 672 OFFCURVE",
"240 672 CURVE SMOOTH",
"254 672 OFFCURVE",
"254 647 OFFCURVE",
"254 639 CURVE SMOOTH",
"254 612 OFFCURVE",
"249 584 OFFCURVE",
"244 557 CURVE SMOOTH",
"235 504 OFFCURVE",
"163 295 OFFCURVE",
"108 278 CURVE"
);
},
{
closed = 1;
nodes = (
"330 334 OFFCURVE",
"398 615 OFFCURVE",
"439 658 CURVE SMOOTH",
"442 661 OFFCURVE",
"447 663 OFFCURVE",
"449 668 CURVE",
"466 663 OFFCURVE",
"466 636 OFFCURVE",
"466 623 CURVE SMOOTH",
"466 556 OFFCURVE",
"400 284 OFFCURVE",
"322 263 CURVE"
);
}
);
width = 449;
}
);
note = fl;
unicode = FB02;
},
{
glyphname = ordfeminine;
lastChange = "2021-11-02 15:04:40 +0000";
layers = (
{
layerId = "747EDECB-6CB4-4831-9662-77535A1F4B33";
paths = (
{
closed = 1;
nodes = (
"88 320 OFFCURVE",
"137 452 OFFCURVE",
"151 485 CURVE",
"143 486 LINE",
"141 456 OFFCURVE",
"140 370 OFFCURVE",
"190 370 CURVE SMOOTH",
"230 370 OFFCURVE",
"301 479 OFFCURVE",
"301 507 CURVE SMOOTH",
"301 512 OFFCURVE",
"297 517 OFFCURVE",
"292 517 CURVE SMOOTH",
"286 517 OFFCURVE",
"280 505 OFFCURVE",
"268 487 CURVE SMOOTH",
"247 452 OFFCURVE",
"216 400 OFFCURVE",
"193 400 CURVE SMOOTH",
"179 400 OFFCURVE",
"172 415 OFFCURVE",
"172 445 CURVE SMOOTH",
"172 470 OFFCURVE",
"178 498 OFFCURVE",
"183 523 CURVE SMOOTH",
"187 544 OFFCURVE",
"191 564 OFFCURVE",
"191 579 CURVE SMOOTH",
"191 591 OFFCURVE",
"184 597 OFFCURVE",
"174 597 CURVE SMOOTH",
"171 597 OFFCURVE",
"168 596 OFFCURVE",
"167 595 CURVE",
"173 590 LINE",
"176 593 OFFCURVE",
"178 597 OFFCURVE",
"178 601 CURVE SMOOTH",
"178 618 OFFCURVE",
"154 638 OFFCURVE",
"134 638 CURVE SMOOTH",
"90 638 OFFCURVE",
"47 530 OFFCURVE",
"37 498 CURVE SMOOTH",
"26 462 OFFCURVE",
"19 420 OFFCURVE",
"19 385 CURVE SMOOTH",
"19 345 OFFCURVE",
"29 320 OFFCURVE",
"49 320 CURVE SMOOTH"
);
},
{
closed = 1;
nodes = (
"51 358 OFFCURVE",
"48 371 OFFCURVE",
"48 392 CURVE SMOOTH",
"48 424 OFFCURVE",
"53 459 OFFCURVE",
"62 490 CURVE SMOOTH",
"70 516 OFFCURVE",
"104 607 OFFCURVE",
"134 607 CURVE SMOOTH",
"142 607 OFFCURVE",
"146 602 OFFCURVE",
"149 596 CURVE",
"154 590 OFFCURVE",
"157 586 OFFCURVE",
"163 586 CURVE SMOOTH",
"159 586 LINE",
"157 579 OFFCURVE",
"152 566 OFFCURVE",
"145 545 CURVE SMOOTH",
"99 416 OFFCURVE",
"71 358 OFFCURVE",
"55 358 CURVE SMOOTH"
);
}
);
width = 236;
}
);
note = ordfeminine;
unicode = 00AA;
},
{
glyphname = ordmasculine;
lastChange = "2021-11-02 15:04:42 +0000";
layers = (
{
layerId = "747EDECB-6CB4-4831-9662-77535A1F4B33";
paths = (
{
closed = 1;
nodes = (
"135 342 OFFCURVE",
"169 427 OFFCURVE",
"179 468 CURVE",
"201 467 OFFCURVE",
"253 484 OFFCURVE",
"253 507 CURVE SMOOTH",
"253 513 OFFCURVE",
"250 516 OFFCURVE",
"245 516 CURVE SMOOTH",
"242 516 OFFCURVE",
"238 514 OFFCURVE",
"232 509 CURVE SMOOTH",
"223 502 OFFCURVE",
"211 492 OFFCURVE",
"186 492 CURVE SMOOTH",
"185 492 LINE",
"188 513 OFFCURVE",
"190 533 OFFCURVE",
"190 552 CURVE SMOOTH",
"190 580 OFFCURVE",
"169 659 OFFCURVE",
"129 659 CURVE SMOOTH",
"120 659 OFFCURVE",
"113 653 OFFCURVE",
"109 643 CURVE",
"57 633 OFFCURVE",
"37 469 OFFCURVE",
"37 433 CURVE SMOOTH",
"37 406 OFFCURVE",
"46 342 OFFCURVE",
"85 342 CURVE SMOOTH"
);
},
{
closed = 1;
nodes = (
"75 368 OFFCURVE",
"66 396 OFFCURVE",
"66 425 CURVE SMOOTH",
"66 483 OFFCURVE",
"80 568 OFFCURVE",
"109 617 CURVE",
"102 620 LINE",
"100 610 OFFCURVE",
"99 601 OFFCURVE",
"99 591 CURVE SMOOTH",
"99 545 OFFCURVE",
"119 502 OFFCURVE",
"152 479 CURVE",
"144 452 OFFCURVE",
"111 368 OFFCURVE",
"87 368 CURVE SMOOTH"
);
},
{
closed = 1;
nodes = (
"140 537 OFFCURVE",
"128 574 OFFCURVE",
"128 613 CURVE SMOOTH",
"128 624 OFFCURVE",
"130 634 OFFCURVE",
"132 634 CURVE SMOOTH",
"142 634 OFFCURVE",
"161 580 OFFCURVE",
"161 552 CURVE SMOOTH",
"161 538 OFFCURVE",
"160 525 OFFCURVE",
"158 512 CURVE"
);
}
);
width = 208;
}
);
note = ordmasculine;
unicode = 00BA;
},
{
glyphname = pi;
lastChange = "2021-11-02 15:04:40 +0000";
layers = (
{
layerId = "747EDECB-6CB4-4831-9662-77535A1F4B33";
paths = (
{
closed = 1;
nodes = (
"198 -15 OFFCURVE",
"204 -14 OFFCURVE",
"210 -12 CURVE SMOOTH",
"233 -6 OFFCURVE",
"280 60 OFFCURVE",
"280 78 CURVE SMOOTH",
"280 79 OFFCURVE",
"279 80 OFFCURVE",
"278 80 CURVE SMOOTH",
"275 80 OFFCURVE",
"273 75 OFFCURVE",
"272 73 CURVE SMOOTH",
"260 52 OFFCURVE",
"249 26 OFFCURVE",
"229 10 CURVE",
"221 5 OFFCURVE",
"209 -4 OFFCURVE",
"199 -4 CURVE SMOOTH",
"182 -4 OFFCURVE",
"180 22 OFFCURVE",
"180 34 CURVE SMOOTH",
"180 81 OFFCURVE",
"198 127 OFFCURVE",
"209 172 CURVE",
"240 170 OFFCURVE",
"260 176 OFFCURVE",
"283 197 CURVE SMOOTH",
"287 201 OFFCURVE",
"291 206 OFFCURVE",
"291 211 CURVE SMOOTH",
"291 213 OFFCURVE",
"290 215 OFFCURVE",
"288 215 CURVE SMOOTH",
"283 215 OFFCURVE",
"267 192 OFFCURVE",
"231 192 CURVE SMOOTH",
"186 192 OFFCURVE",
"147 219 OFFCURVE",
"101 219 CURVE SMOOTH",
"67 219 OFFCURVE",
"42 205 OFFCURVE",
"18 181 CURVE",
"14 178 OFFCURVE",
"11 173 OFFCURVE",
"11 167 CURVE SMOOTH",
"11 166 OFFCURVE",
"12 164 OFFCURVE",
"14 164 CURVE SMOOTH",
"16 164 OFFCURVE",
"17 165 OFFCURVE",
"19 166 CURVE",
"45 188 OFFCURVE",
"59 193 OFFCURVE",
"93 193 CURVE SMOOTH",
"95 193 LINE",
"95 147 OFFCURVE",
"94 99 OFFCURVE",
"84 54 CURVE SMOOTH",
"81 39 OFFCURVE",
"74 27 OFFCURVE",
"70 13 CURVE",
"70 10 LINE SMOOTH",
"70 8 OFFCURVE",
"75 7 OFFCURVE",
"76 7 CURVE SMOOTH",
"78 7 OFFCURVE",
"80 8 OFFCURVE",
"81 10 CURVE SMOOTH",
"105 55 OFFCURVE",
"118 140 OFFCURVE",
"119 191 CURVE",
"140 188 OFFCURVE",
"161 181 OFFCURVE",
"182 176 CURVE",
"170 142 OFFCURVE",
"161 69 OFFCURVE",
"161 32 CURVE SMOOTH",
"161 10 OFFCURVE",
"164 -15 OFFCURVE",
"193 -15 CURVE SMOOTH"
);
}
);
width = 330;
}
);
note = pi;
unicode = 03C0;
},
{
glyphname = zero;
lastChange = "2021-11-02 15:04:40 +0000";
layers = (
{
layerId = "747EDECB-6CB4-4831-9662-77535A1F4B33";
paths = (
{
closed = 1;
nodes = (
"403 -1 OFFCURVE",
"487 292 OFFCURVE",
"487 424 CURVE SMOOTH",
"487 516 OFFCURVE",
"432 620 OFFCURVE",
"328 620 CURVE SMOOTH",
"159 620 OFFCURVE",
"21 428 OFFCURVE",
"21 269 CURVE SMOOTH",
"21 201 OFFCURVE",
"48 147 OFFCURVE",
"116 124 CURVE",
"123 67 OFFCURVE",
"175 -1 OFFCURVE",
"237 -1 CURVE SMOOTH"
);
},
{
closed = 1;
nodes = (
"191 22 OFFCURVE",
"156 77 OFFCURVE",
"148 117 CURVE",
"167 114 OFFCURVE",
"254 136 OFFCURVE",
"254 158 CURVE SMOOTH",
"254 162 OFFCURVE",
"251 165 OFFCURVE",
"247 165 CURVE SMOOTH",
"237 165 OFFCURVE",
"194 140 OFFCURVE",
"159 140 CURVE SMOOTH",
"154 140 OFFCURVE",
"150 140 OFFCURVE",
"146 141 CURVE",
"146 159 LINE SMOOTH",
"143 250 OFFCURVE",
"183 343 OFFCURVE",
"233 418 CURVE SMOOTH",
"245 436 OFFCURVE",
"261 452 OFFCURVE",
"272 470 CURVE",
"275 477 LINE",
"274 487 OFFCURVE",
"265 493 OFFCURVE",
"256 493 CURVE SMOOTH",
"251 493 OFFCURVE",
"247 492 OFFCURVE",
"244 488 CURVE",
"170 412 OFFCURVE",
"113 266 OFFCURVE",
"115 161 CURVE SMOOTH",
"115 150 LINE",
"69 174 OFFCURVE",
"54 220 OFFCURVE",
"54 269 CURVE SMOOTH",
"54 424 OFFCURVE",
"180 596 OFFCURVE",
"345 596 CURVE SMOOTH",
"424 596 OFFCURVE",
"457 497 OFFCURVE",
"457 432 CURVE SMOOTH",
"457 321 OFFCURVE",
"377 22 OFFCURVE",
"236 22 CURVE SMOOTH"
);
}
);
width = 511;
}
);
note = zero;
unicode = 0030;
},
{
glyphname = one;
lastChange = "2021-11-02 15:04:40 +0000";
layers = (
{
layerId = "747EDECB-6CB4-4831-9662-77535A1F4B33";
paths = (
{
closed = 1;
nodes = (
"136 -49 OFFCURVE",
"142 -49 OFFCURVE",
"145 -44 CURVE",
"144 -35 OFFCURVE",
"132 -32 OFFCURVE",
"125 -30 CURVE SMOOTH",
"78 -16 OFFCURVE",
"74 33 OFFCURVE",
"74 76 CURVE SMOOTH",
"74 214 OFFCURVE",
"129 379 OFFCURVE",
"198 498 CURVE SMOOTH",
"215 527 OFFCURVE",
"235 551 OFFCURVE",
"253 579 CURVE",
"255 581 OFFCURVE",
"255 584 OFFCURVE",
"256 587 CURVE",
"256 599 OFFCURVE",
"240 602 OFFCURVE",
"231 602 CURVE SMOOTH",
"225 602 OFFCURVE",
"213 600 OFFCURVE",
"210 594 CURVE",
"191 570 OFFCURVE",
"178 543 OFFCURVE",
"161 519 CURVE SMOOTH",
"132 481 OFFCURVE",
"86 462 OFFCURVE",
"47 440 CURVE SMOOTH",
"44 438 OFFCURVE",
"41 434 OFFCURVE",
"41 430 CURVE SMOOTH",
"41 417 OFFCURVE",
"51 410 OFFCURVE",
"63 410 CURVE SMOOTH",
"72 410 OFFCURVE",
"116 436 OFFCURVE",
"125 442 CURVE",
"80 331 OFFCURVE",
"50 191 OFFCURVE",
"50 71 CURVE SMOOTH",
"50 21 OFFCURVE",
"67 -49 OFFCURVE",
"131 -49 CURVE SMOOTH"
);
}
);
width = 246;
}
);
note = one;
unicode = 0031;
},
{
glyphname = two;
lastChange = "2021-11-02 15:04:40 +0000";
layers = (
{
layerId = "747EDECB-6CB4-4831-9662-77535A1F4B33";
paths = (
{
closed = 1;
nodes = (
"458 -44 OFFCURVE",
"487 35 OFFCURVE",
"487 57 CURVE SMOOTH",
"487 99 OFFCURVE",
"452 113 OFFCURVE",
"415 113 CURVE SMOOTH",
"298 113 OFFCURVE",
"185 78 OFFCURVE",
"77 35 CURVE",
"199 128 OFFCURVE",
"519 415 OFFCURVE",
"519 571 CURVE SMOOTH",
"519 635 OFFCURVE",
"488 675 OFFCURVE",
"422 675 CURVE SMOOTH",
"334 675 OFFCURVE",
"125 568 OFFCURVE",
"89 493 CURVE",
"86 481 LINE",
"86 475 OFFCURVE",
"89 461 OFFCURVE",
"97 461 CURVE SMOOTH",
"100 461 OFFCURVE",
"102 462 OFFCURVE",
"103 464 CURVE",
"161 535 OFFCURVE",
"317 641 OFFCURVE",
"410 641 CURVE SMOOTH",
"457 641 OFFCURVE",
"478 612 OFFCURVE",
"478 567 CURVE SMOOTH",
"478 423 OFFCURVE",
"135 117 OFFCURVE",
"22 25 CURVE SMOOTH",
"10 16 OFFCURVE",
"-5 2 OFFCURVE",
"-5 -15 CURVE SMOOTH",
"-5 -21 OFFCURVE",
"-2 -26 OFFCURVE",
"5 -26 CURVE SMOOTH",
"11 -26 OFFCURVE",
"17 -23 OFFCURVE",
"22 -20 CURVE SMOOTH",
"120 39 OFFCURVE",
"273 82 OFFCURVE",
"388 82 CURVE SMOOTH",
"417 82 OFFCURVE",
"452 72 OFFCURVE",
"452 37 CURVE SMOOTH",
"452 1 OFFCURVE",
"425 -12 OFFCURVE",
"421 -31 CURVE",
"421 -38 OFFCURVE",
"427 -44 OFFCURVE",
"434 -44 CURVE SMOOTH"
);
}
);
width = 535;
}
);
note = two;
unicode = 0032;
},
{
glyphname = three;
lastChange = "2021-11-02 15:04:40 +0000";
layers = (
{
layerId = "747EDECB-6CB4-4831-9662-77535A1F4B33";
paths = (
{
closed = 1;
nodes = (
"301 -23 OFFCURVE",
"530 67 OFFCURVE",
"530 241 CURVE SMOOTH",
"530 371 OFFCURVE",
"416 393 OFFCURVE",
"310 392 CURVE SMOOTH",
"295 392 LINE",
"373 425 OFFCURVE",
"508 480 OFFCURVE",
"508 583 CURVE SMOOTH",
"508 647 OFFCURVE",
"450 679 OFFCURVE",
"392 679 CURVE SMOOTH",
"329 679 OFFCURVE",
"148 600 OFFCURVE",
"148 538 CURVE SMOOTH",
"148 533 OFFCURVE",
"151 529 OFFCURVE",
"156 529 CURVE SMOOTH",
"175 529 OFFCURVE",
"266 647 OFFCURVE",
"376 647 CURVE SMOOTH",
"421 647 OFFCURVE",
"472 624 OFFCURVE",
"472 573 CURVE SMOOTH",
"472 476 OFFCURVE",
"258 389 OFFCURVE",
"175 389 CURVE SMOOTH",
"166 389 OFFCURVE",
"162 379 OFFCURVE",
"162 372 CURVE SMOOTH",
"162 359 OFFCURVE",
"166 354 OFFCURVE",
"178 354 CURVE SMOOTH",
"192 354 OFFCURVE",
"212 361 OFFCURVE",
"226 363 CURVE SMOOTH",
"257 367 OFFCURVE",
"289 367 OFFCURVE",
"320 367 CURVE SMOOTH",
"412 367 OFFCURVE",
"484 340 OFFCURVE",
"484 235 CURVE SMOOTH",
"484 78 OFFCURVE",
"294 7 OFFCURVE",
"162 7 CURVE SMOOTH",
"92 7 OFFCURVE",
"14 28 OFFCURVE",
"14 111 CURVE SMOOTH",
"14 136 OFFCURVE",
"28 160 OFFCURVE",
"28 182 CURVE SMOOTH",
"28 186 OFFCURVE",
"21 188 OFFCURVE",
"19 188 CURVE SMOOTH",
"-6 188 OFFCURVE",
"-14 121 OFFCURVE",
"-14 103 CURVE SMOOTH",
"-14 6 OFFCURVE",
"72 -23 OFFCURVE",
"155 -23 CURVE SMOOTH"
);
}
);
width = 573;
}
);
note = three;
unicode = 0033;
},
{
glyphname = four;
lastChange = "2021-11-02 15:04:40 +0000";
layers = (
{
layerId = "747EDECB-6CB4-4831-9662-77535A1F4B33";
paths = (
{
closed = 1;
nodes = (
"438 -24 OFFCURVE",
"451 -24 OFFCURVE",
"451 -12 CURVE SMOOTH",
"451 -4 OFFCURVE",
"443 -2 OFFCURVE",
"437 0 CURVE SMOOTH",
"390 15 OFFCURVE",
"380 58 OFFCURVE",
"380 103 CURVE SMOOTH",
"380 170 OFFCURVE",
"386 236 OFFCURVE",
"404 301 CURVE",
"449 288 OFFCURVE",
"496 279 OFFCURVE",
"543 279 CURVE SMOOTH",
"585 279 OFFCURVE",
"660 300 OFFCURVE",
"660 353 CURVE SMOOTH",
"660 371 OFFCURVE",
"645 400 OFFCURVE",
"627 404 CURVE",
"620 404 OFFCURVE",
"616 397 OFFCURVE",
"616 391 CURVE SMOOTH",
"616 380 OFFCURVE",
"627 371 OFFCURVE",
"627 354 CURVE SMOOTH",
"627 313 OFFCURVE",
"555 311 OFFCURVE",
"527 311 CURVE SMOOTH",
"489 311 OFFCURVE",
"448 314 OFFCURVE",
"411 324 CURVE",
"435 401 OFFCURVE",
"467 475 OFFCURVE",
"509 543 CURVE SMOOTH",
"522 564 OFFCURVE",
"540 583 OFFCURVE",
"552 604 CURVE",
"554 606 OFFCURVE",
"555 609 OFFCURVE",
"556 612 CURVE",
"555 624 OFFCURVE",
"537 627 OFFCURVE",
"528 627 CURVE SMOOTH",
"521 627 OFFCURVE",
"512 626 OFFCURVE",
"509 619 CURVE",
"452 549 OFFCURVE",
"410 418 OFFCURVE",
"388 331 CURVE",
"336 347 OFFCURVE",
"284 365 OFFCURVE",
"234 384 CURVE",
"304 440 OFFCURVE",
"420 577 OFFCURVE",
"463 656 CURVE SMOOTH",
"466 663 LINE",
"466 670 OFFCURVE",
"459 676 OFFCURVE",
"453 676 CURVE SMOOTH",
"449 676 OFFCURVE",
"445 673 OFFCURVE",
"443 670 CURVE SMOOTH",
"369 573 OFFCURVE",
"315 463 OFFCURVE",
"213 391 CURVE",
"188 399 OFFCURVE",
"152 402 OFFCURVE",
"127 402 CURVE SMOOTH",
"85 402 OFFCURVE",
"-16 366 OFFCURVE",
"-16 315 CURVE SMOOTH",
"-16 298 OFFCURVE",
"1 290 OFFCURVE",
"15 286 CURVE",
"86 297 OFFCURVE",
"152 325 OFFCURVE",
"210 366 CURVE",
"268 347 OFFCURVE",
"323 324 OFFCURVE",
"381 307 CURVE",
"365 239 OFFCURVE",
"349 166 OFFCURVE",
"349 96 CURVE SMOOTH",
"349 46 OFFCURVE",
"366 -24 OFFCURVE",
"430 -24 CURVE SMOOTH"
);
},
{
closed = 1;
nodes = (
"65 369 OFFCURVE",
"87 376 OFFCURVE",
"146 376 CURVE SMOOTH",
"158 376 OFFCURVE",
"171 375 OFFCURVE",
"183 373 CURVE",
"126 340 OFFCURVE",
"86 340 OFFCURVE",
"31 319 CURVE"
);
}
);
width = 644;
}
);
note = four;
unicode = 0034;
},
{
glyphname = five;
lastChange = "2021-11-02 15:04:40 +0000";
layers = (
{
layerId = "747EDECB-6CB4-4831-9662-77535A1F4B33";
paths = (
{
closed = 1;
nodes = (
"233 10 OFFCURVE",
"526 179 OFFCURVE",
"526 326 CURVE SMOOTH",
"526 408 OFFCURVE",
"445 433 OFFCURVE",
"376 433 CURVE SMOOTH",
"287 433 OFFCURVE",
"209 394 OFFCURVE",
"133 353 CURVE",
"184 428 OFFCURVE",
"226 502 OFFCURVE",
"269 582 CURVE SMOOTH",
"274 591 OFFCURVE",
"281 599 OFFCURVE",
"292 599 CURVE SMOOTH",
"378 599 OFFCURVE",
"467 558 OFFCURVE",
"559 558 CURVE SMOOTH",
"596 558 OFFCURVE",
"671 571 OFFCURVE",
"671 622 CURVE SMOOTH",
"671 631 OFFCURVE",
"668 638 OFFCURVE",
"658 638 CURVE SMOOTH",
"652 638 OFFCURVE",
"648 633 OFFCURVE",
"646 628 CURVE SMOOTH",
"632 586 OFFCURVE",
"606 583 OFFCURVE",
"565 583 CURVE SMOOTH",
"467 583 OFFCURVE",
"388 637 OFFCURVE",
"294 637 CURVE SMOOTH",
"261 637 OFFCURVE",
"174 613 OFFCURVE",
"167 574 CURVE",
"167 567 OFFCURVE",
"173 561 OFFCURVE",
"180 561 CURVE SMOOTH",
"184 561 OFFCURVE",
"219 594 OFFCURVE",
"243 600 CURVE",
"242 598 LINE SMOOTH",
"207 533 OFFCURVE",
"171 471 OFFCURVE",
"128 409 CURVE SMOOTH",
"105 376 OFFCURVE",
"69 332 OFFCURVE",
"55 294 CURVE SMOOTH",
"54 291 OFFCURVE",
"54 289 OFFCURVE",
"54 286 CURVE SMOOTH",
"54 281 OFFCURVE",
"67 279 OFFCURVE",
"69 279 CURVE SMOOTH",
"84 279 OFFCURVE",
"92 297 OFFCURVE",
"101 308 CURVE",
"187 353 OFFCURVE",
"264 403 OFFCURVE",
"366 403 CURVE SMOOTH",
"419 403 OFFCURVE",
"483 389 OFFCURVE",
"483 323 CURVE SMOOTH",
"483 191 OFFCURVE",
"220 35 OFFCURVE",
"101 35 CURVE SMOOTH",
"61 35 OFFCURVE",
"16 59 OFFCURVE",
"10 59 CURVE SMOOTH",
"3 59 OFFCURVE",
"-2 52 OFFCURVE",
"-2 46 CURVE SMOOTH",
"-2 20 OFFCURVE",
"83 10 OFFCURVE",
"102 10 CURVE SMOOTH"
);
}
);
width = 606;
}
);
note = five;
unicode = 0035;
},
{
glyphname = six;
lastChange = "2021-11-02 15:04:40 +0000";
layers = (
{
layerId = "747EDECB-6CB4-4831-9662-77535A1F4B33";
paths = (
{
closed = 1;
nodes = (
"321 -7 OFFCURVE",
"569 104 OFFCURVE",
"569 251 CURVE SMOOTH",
"569 302 OFFCURVE",
"526 319 OFFCURVE",
"482 319 CURVE SMOOTH",
"333 319 OFFCURVE",
"197 162 OFFCURVE",
"188 18 CURVE",
"124 22 OFFCURVE",
"82 55 OFFCURVE",
"82 123 CURVE SMOOTH",
"82 345 OFFCURVE",
"363 531 OFFCURVE",
"531 633 CURVE",
"536 637 OFFCURVE",
"541 642 OFFCURVE",
"541 649 CURVE SMOOTH",
"541 652 OFFCURVE",
"539 658 OFFCURVE",
"535 658 CURVE SMOOTH",
"532 658 OFFCURVE",
"531 658 OFFCURVE",
"528 656 CURVE",
"343 579 OFFCURVE",
"41 342 OFFCURVE",
"41 121 CURVE SMOOTH",
"41 27 OFFCURVE",
"114 -7 OFFCURVE",
"198 -7 CURVE SMOOTH"
);
},
{
closed = 1;
nodes = (
"230 146 OFFCURVE",
"337 288 OFFCURVE",
"473 288 CURVE SMOOTH",
"508 288 OFFCURVE",
"528 256 OFFCURVE",
"528 224 CURVE SMOOTH",
"528 101 OFFCURVE",
"317 26 OFFCURVE",
"220 19 CURVE"
);
}
);
width = 590;
}
);
note = six;
unicode = 0036;
},
{
glyphname = seven;
lastChange = "2021-11-02 15:04:40 +0000";
layers = (
{
layerId = "747EDECB-6CB4-4831-9662-77535A1F4B33";
paths = (
{
closed = 1;
nodes = (
"105 -18 OFFCURVE",
"111 -11 OFFCURVE",
"111 -5 CURVE SMOOTH",
"111 7 OFFCURVE",
"89 7 OFFCURVE",
"89 56 CURVE SMOOTH",
"89 165 OFFCURVE",
"148 275 OFFCURVE",
"221 354 CURVE",
"279 361 OFFCURVE",
"344 363 OFFCURVE",
"400 376 CURVE SMOOTH",
"407 377 OFFCURVE",
"412 381 OFFCURVE",
"412 388 CURVE SMOOTH",
"412 396 OFFCURVE",
"406 400 OFFCURVE",
"398 400 CURVE SMOOTH",
"352 400 OFFCURVE",
"303 393 OFFCURVE",
"257 391 CURVE",
"308 440 OFFCURVE",
"363 484 OFFCURVE",
"419 526 CURVE SMOOTH",
"445 546 OFFCURVE",
"481 567 OFFCURVE",
"504 590 CURVE",
"505 592 OFFCURVE",
"507 593 OFFCURVE",
"507 595 CURVE SMOOTH",
"507 602 OFFCURVE",
"494 608 OFFCURVE",
"489 609 CURVE",
"504 616 OFFCURVE",
"551 638 OFFCURVE",
"551 656 CURVE SMOOTH",
"551 660 OFFCURVE",
"550 664 OFFCURVE",
"546 664 CURVE SMOOTH",
"545 664 OFFCURVE",
"475 619 OFFCURVE",
"410 619 CURVE SMOOTH",
"316 619 OFFCURVE",
"229 666 OFFCURVE",
"137 666 CURVE SMOOTH",
"70 666 OFFCURVE",
"32 589 OFFCURVE",
"23 531 CURVE SMOOTH",
"22 527 OFFCURVE",
"23 525 OFFCURVE",
"23 522 CURVE SMOOTH",
"23 517 OFFCURVE",
"32 514 OFFCURVE",
"35 514 CURVE SMOOTH",
"60 514 OFFCURVE",
"54 628 OFFCURVE",
"137 628 CURVE SMOOTH",
"223 628 OFFCURVE",
"305 590 OFFCURVE",
"391 590 CURVE SMOOTH",
"411 590 OFFCURVE",
"430 592 OFFCURVE",
"448 596 CURVE",
"359 536 OFFCURVE",
"273 469 OFFCURVE",
"202 388 CURVE",
"182 387 OFFCURVE",
"85 384 OFFCURVE",
"73 380 CURVE SMOOTH",
"63 377 OFFCURVE",
"62 368 OFFCURVE",
"62 359 CURVE SMOOTH",
"62 351 OFFCURVE",
"64 337 OFFCURVE",
"75 337 CURVE SMOOTH",
"105 337 OFFCURVE",
"138 344 OFFCURVE",
"168 347 CURVE",
"106 266 OFFCURVE",
"64 159 OFFCURVE",
"64 56 CURVE SMOOTH",
"64 37 OFFCURVE",
"72 -18 OFFCURVE",
"99 -18 CURVE SMOOTH"
);
}
);
width = 502;
}
);
note = seven;
unicode = 0037;
},
{
glyphname = eight;
lastChange = "2021-11-02 15:04:40 +0000";
layers = (
{
layerId = "747EDECB-6CB4-4831-9662-77535A1F4B33";
paths = (
{
closed = 1;
nodes = (
"255 -26 OFFCURVE",
"378 9 OFFCURVE",
"378 121 CURVE SMOOTH",
"378 186 OFFCURVE",
"345 241 OFFCURVE",
"298 285 CURVE",
"343 321 OFFCURVE",
"657 567 OFFCURVE",
"657 607 CURVE SMOOTH",
"657 614 OFFCURVE",
"650 620 OFFCURVE",
"644 620 CURVE SMOOTH",
"639 620 OFFCURVE",
"636 617 OFFCURVE",
"634 614 CURVE SMOOTH",
"539 492 OFFCURVE",
"398 399 OFFCURVE",
"278 303 CURVE",
"241 333 OFFCURVE",
"65 426 OFFCURVE",
"65 469 CURVE SMOOTH",
"65 574 OFFCURVE",
"275 627 OFFCURVE",
"356 627 CURVE SMOOTH",
"405 627 OFFCURVE",
"455 600 OFFCURVE",
"459 600 CURVE SMOOTH",
"466 600 OFFCURVE",
"472 607 OFFCURVE",
"472 613 CURVE SMOOTH",
"472 642 OFFCURVE",
"375 651 OFFCURVE",
"356 651 CURVE SMOOTH",
"260 651 OFFCURVE",
"16 588 OFFCURVE",
"16 463 CURVE SMOOTH",
"16 393 OFFCURVE",
"196 319 OFFCURVE",
"248 279 CURVE",
"199 239 OFFCURVE",
"50 120 OFFCURVE",
"50 52 CURVE SMOOTH",
"50 -6 OFFCURVE",
"115 -26 OFFCURVE",
"163 -26 CURVE SMOOTH"
);
},
{
closed = 1;
nodes = (
"131 -1 OFFCURVE",
"75 9 OFFCURVE",
"75 52 CURVE SMOOTH",
"75 104 OFFCURVE",
"231 229 OFFCURVE",
"270 261 CURVE",
"312 223 OFFCURVE",
"341 175 OFFCURVE",
"341 117 CURVE SMOOTH",
"341 22 OFFCURVE",
"240 -1 OFFCURVE",
"163 -1 CURVE SMOOTH"
);
}
);
width = 556;
}
);
note = eight;
unicode = 0038;
},
{
glyphname = nine;
lastChange = "2021-11-02 15:04:42 +0000";
layers = (
{
layerId = "747EDECB-6CB4-4831-9662-77535A1F4B33";
paths = (
{
closed = 1;
nodes = (
"251 -111 OFFCURVE",
"256 -104 OFFCURVE",
"256 -98 CURVE SMOOTH",
"256 -82 OFFCURVE",
"219 -84 OFFCURVE",
"219 -25 CURVE SMOOTH",
"219 150 OFFCURVE",
"575 596 OFFCURVE",
"575 609 CURVE SMOOTH",
"575 624 OFFCURVE",
"565 627 OFFCURVE",
"551 627 CURVE SMOOTH",
"532 627 OFFCURVE",
"504 575 OFFCURVE",
"494 560 CURVE",
"487 564 OFFCURVE",
"481 560 OFFCURVE",
"477 554 CURVE SMOOTH",
"418 468 OFFCURVE",
"200 288 OFFCURVE",
"95 288 CURVE SMOOTH",
"73 288 OFFCURVE",
"60 300 OFFCURVE",
"60 322 CURVE SMOOTH",
"60 497 OFFCURVE",
"294 611 OFFCURVE",
"446 611 CURVE SMOOTH",
"465 611 OFFCURVE",
"486 616 OFFCURVE",
"486 642 CURVE SMOOTH",
"486 649 OFFCURVE",
"480 650 OFFCURVE",
"473 650 CURVE SMOOTH",
"463 650 LINE SMOOTH",
"295 650 OFFCURVE",
"23 521 OFFCURVE",
"23 326 CURVE SMOOTH",
"23 287 OFFCURVE",
"40 264 OFFCURVE",
"80 264 CURVE SMOOTH",
"178 264 OFFCURVE",
"349 389 OFFCURVE",
"420 452 CURVE",
"346 342 OFFCURVE",
"194 109 OFFCURVE",
"194 -24 CURVE SMOOTH",
"194 -49 OFFCURVE",
"210 -111 OFFCURVE",
"244 -111 CURVE SMOOTH"
);
}
);
width = 537;
}
);
note = nine;
unicode = 0039;
},
{
glyphname = onesuperior;
lastChange = "2021-11-02 15:04:40 +0000";
layers = (
{
layerId = "747EDECB-6CB4-4831-9662-77535A1F4B33";
paths = (
{
closed = 1;
nodes = (
"89 197 OFFCURVE",
"94 199 OFFCURVE",
"96 203 CURVE",
"97 211 OFFCURVE",
"90 216 OFFCURVE",
"79 218 CURVE",
"50 227 OFFCURVE",
"47 258 OFFCURVE",
"47 288 CURVE SMOOTH",
"47 384 OFFCURVE",
"85 498 OFFCURVE",
"133 582 CURVE SMOOTH",
"141 595 OFFCURVE",
"150 607 OFFCURVE",
"159 620 CURVE SMOOTH",
"171 638 LINE SMOOTH",
"172 640 OFFCURVE",
"173 641 OFFCURVE",
"173 642 CURVE SMOOTH",
"173 643 OFFCURVE",
"173 644 OFFCURVE",
"174 645 CURVE",
"175 655 OFFCURVE",
"165 660 OFFCURVE",
"153 660 CURVE SMOOTH",
"145 660 OFFCURVE",
"137 658 OFFCURVE",
"135 653 CURVE",
"127 644 OFFCURVE",
"121 634 OFFCURVE",
"115 624 CURVE SMOOTH",
"111 616 OFFCURVE",
"106 608 OFFCURVE",
"101 600 CURVE",
"84 580 OFFCURVE",
"60 567 OFFCURVE",
"36 554 CURVE SMOOTH",
"31 552 OFFCURVE",
"27 549 OFFCURVE",
"22 547 CURVE SMOOTH",
"19 545 OFFCURVE",
"16 540 OFFCURVE",
"16 536 CURVE SMOOTH",
"16 525 OFFCURVE",
"24 518 OFFCURVE",
"35 518 CURVE SMOOTH",
"40 518 OFFCURVE",
"58 528 OFFCURVE",
"70 534 CURVE",
"41 459 OFFCURVE",
"22 365 OFFCURVE",
"22 285 CURVE SMOOTH",
"22 250 OFFCURVE",
"35 197 OFFCURVE",
"83 197 CURVE SMOOTH"
);
}
);
width = 190;
}
);
note = onesuperior;
unicode = 00B9;
},
{
glyphname = twosuperior;
lastChange = "2021-11-02 15:04:40 +0000";
layers = (
{
layerId = "747EDECB-6CB4-4831-9662-77535A1F4B33";
paths = (
{
closed = 1;
nodes = (
"354 169 OFFCURVE",
"368 223 OFFCURVE",
"368 240 CURVE SMOOTH",
"368 267 OFFCURVE",
"347 283 OFFCURVE",
"313 283 CURVE SMOOTH",
"231 283 OFFCURVE",
"134 259 OFFCURVE",
"58 228 CURVE",
"62 221 LINE",
"148 287 OFFCURVE",
"390 488 OFFCURVE",
"390 600 CURVE SMOOTH",
"390 649 OFFCURVE",
"365 676 OFFCURVE",
"318 676 CURVE SMOOTH",
"225 676 OFFCURVE",
"107 601 OFFCURVE",
"81 546 CURVE",
"79 537 LINE",
"79 527 OFFCURVE",
"81 527 OFFCURVE",
"88 527 CURVE SMOOTH",
"92 527 OFFCURVE",
"94 528 OFFCURVE",
"95 531 CURVE",
"136 579 OFFCURVE",
"203 645 OFFCURVE",
"310 645 CURVE SMOOTH",
"338 645 OFFCURVE",
"354 640 OFFCURVE",
"354 609 CURVE SMOOTH",
"354 510 OFFCURVE",
"114 285 OFFCURVE",
"36 220 CURVE",
"23 211 OFFCURVE",
"16 200 OFFCURVE",
"16 190 CURVE SMOOTH",
"16 183 OFFCURVE",
"20 178 OFFCURVE",
"26 178 CURVE SMOOTH",
"31 178 OFFCURVE",
"35 179 OFFCURVE",
"40 183 CURVE",
"109 223 OFFCURVE",
"215 253 OFFCURVE",
"295 253 CURVE SMOOTH",
"314 253 OFFCURVE",
"347 246 OFFCURVE",
"347 225 CURVE SMOOTH",
"347 211 OFFCURVE",
"341 203 OFFCURVE",
"335 195 CURVE SMOOTH",
"331 190 OFFCURVE",
"327 184 OFFCURVE",
"326 177 CURVE SMOOTH",
"326 170 OFFCURVE",
"327 169 OFFCURVE",
"334 169 CURVE SMOOTH"
);
}
);
width = 406;
}
);
note = twosuperior;
unicode = 00B2;
},
{
glyphname = threesuperior;
lastChange = "2021-11-02 15:04:40 +0000";
layers = (
{
layerId = "747EDECB-6CB4-4831-9662-77535A1F4B33";
paths = (
{
closed = 1;
nodes = (
"242 190 OFFCURVE",
"405 254 OFFCURVE",
"405 379 CURVE SMOOTH",
"405 473 OFFCURVE",
"312 483 OFFCURVE",
"230 483 CURVE SMOOTH",
"219 483 LINE",
"221 475 LINE",
"297 498 OFFCURVE",
"390 543 OFFCURVE",
"390 618 CURVE SMOOTH",
"390 660 OFFCURVE",
"354 689 OFFCURVE",
"304 689 CURVE SMOOTH",
"213 689 OFFCURVE",
"130 618 OFFCURVE",
"130 587 CURVE SMOOTH",
"130 581 OFFCURVE",
"134 576 OFFCURVE",
"139 576 CURVE SMOOTH",
"144 576 OFFCURVE",
"158 595 OFFCURVE",
"174 609 CURVE SMOOTH",
"202 633 OFFCURVE",
"240 659 OFFCURVE",
"293 659 CURVE SMOOTH",
"330 659 OFFCURVE",
"363 640 OFFCURVE",
"363 611 CURVE SMOOTH",
"363 546 OFFCURVE",
"210 486 OFFCURVE",
"152 486 CURVE SMOOTH",
"145 486 OFFCURVE",
"139 479 OFFCURVE",
"139 470 CURVE SMOOTH",
"139 459 OFFCURVE",
"144 454 OFFCURVE",
"155 454 CURVE SMOOTH",
"160 454 OFFCURVE",
"167 456 OFFCURVE",
"174 457 CURVE SMOOTH",
"179 458 OFFCURVE",
"184 460 OFFCURVE",
"188 460 CURVE SMOOTH",
"210 463 OFFCURVE",
"232 463 OFFCURVE",
"254 463 CURVE SMOOTH",
"329 463 OFFCURVE",
"365 436 OFFCURVE",
"365 374 CURVE SMOOTH",
"365 268 OFFCURVE",
"229 209 OFFCURVE",
"137 209 CURVE SMOOTH",
"73 209 OFFCURVE",
"44 243 OFFCURVE",
"44 288 CURVE SMOOTH",
"44 296 OFFCURVE",
"46 304 OFFCURVE",
"49 313 CURVE SMOOTH",
"51 321 OFFCURVE",
"54 329 OFFCURVE",
"54 337 CURVE SMOOTH",
"54 342 OFFCURVE",
"48 346 OFFCURVE",
"43 346 CURVE SMOOTH",
"22 346 OFFCURVE",
"16 295 OFFCURVE",
"16 282 CURVE SMOOTH",
"16 223 OFFCURVE",
"60 190 OFFCURVE",
"138 190 CURVE SMOOTH"
);
}
);
width = 421;
}
);
note = threesuperior;
unicode = 00B3;
},
{
glyphname = foursuperior;
lastChange = "2021-11-02 15:04:42 +0000";
layers = (
{
layerId = "747EDECB-6CB4-4831-9662-77535A1F4B33";
paths = (
{
closed = 1;
nodes = (
"340 184 OFFCURVE",
"344 186 OFFCURVE",
"344 189 CURVE SMOOTH",
"344 192 OFFCURVE",
"342 194 OFFCURVE",
"338 196 CURVE SMOOTH",
"308 210 OFFCURVE",
"297 246 OFFCURVE",
"297 288 CURVE SMOOTH",
"297 327 OFFCURVE",
"306 372 OFFCURVE",
"317 411 CURVE",
"353 401 OFFCURVE",
"383 396 OFFCURVE",
"411 396 CURVE SMOOTH",
"441 396 OFFCURVE",
"497 412 OFFCURVE",
"497 452 CURVE SMOOTH",
"497 468 OFFCURVE",
"484 489 OFFCURVE",
"470 492 CURVE",
"463 492 OFFCURVE",
"458 486 OFFCURVE",
"458 479 CURVE SMOOTH",
"458 475 OFFCURVE",
"459 472 OFFCURVE",
"462 467 CURVE SMOOTH",
"464 463 OFFCURVE",
"466 459 OFFCURVE",
"466 453 CURVE SMOOTH",
"466 435 OFFCURVE",
"442 427 OFFCURVE",
"400 427 CURVE SMOOTH",
"371 427 OFFCURVE",
"346 429 OFFCURVE",
"324 435 CURVE",
"339 485 OFFCURVE",
"378 572 OFFCURVE",
"407 620 CURVE SMOOTH",
"411 627 OFFCURVE",
"416 633 OFFCURVE",
"421 639 CURVE SMOOTH",
"427 647 OFFCURVE",
"433 654 OFFCURVE",
"437 662 CURVE",
"438 663 OFFCURVE",
"439 665 OFFCURVE",
"440 667 CURVE",
"440 667 OFFCURVE",
"440 668 OFFCURVE",
"441 668 CURVE",
"441 670 LINE SMOOTH",
"441 679 OFFCURVE",
"431 685 OFFCURVE",
"418 685 CURVE SMOOTH",
"410 685 OFFCURVE",
"403 682 OFFCURVE",
"401 677 CURVE",
"370 629 OFFCURVE",
"312 492 OFFCURVE",
"300 442 CURVE",
"264 453 OFFCURVE",
"226 464 OFFCURVE",
"196 475 CURVE",
"245 517 OFFCURVE",
"329 609 OFFCURVE",
"359 662 CURVE",
"361 668 LINE SMOOTH",
"363 675 OFFCURVE",
"355 682 OFFCURVE",
"348 682 CURVE SMOOTH",
"344 682 OFFCURVE",
"339 679 OFFCURVE",
"338 676 CURVE",
"323 657 OFFCURVE",
"310 637 OFFCURVE",
"296 617 CURVE SMOOTH",
"262 568 OFFCURVE",
"205 501 OFFCURVE",
"179 483 CURVE",
"162 488 OFFCURVE",
"137 490 OFFCURVE",
"126 490 CURVE SMOOTH",
"107 490 OFFCURVE",
"60 472 OFFCURVE",
"60 444 CURVE SMOOTH",
"60 436 OFFCURVE",
"65 427 OFFCURVE",
"76 427 CURVE SMOOTH",
"114 427 OFFCURVE",
"138 446 OFFCURVE",
"179 457 CURVE",
"230 439 LINE SMOOTH",
"251 431 OFFCURVE",
"272 424 OFFCURVE",
"293 417 CURVE",
"276 371 OFFCURVE",
"266 322 OFFCURVE",
"266 282 CURVE SMOOTH",
"266 225 OFFCURVE",
"285 184 OFFCURVE",
"332 184 CURVE SMOOTH"
);
}
);
width = 513;
}
);
unicode = 2074;
},
{
glyphname = fraction;
lastChange = "2021-11-02 15:04:40 +0000";
layers = (
{
layerId = "747EDECB-6CB4-4831-9662-77535A1F4B33";
paths = (
{
closed = 1;
nodes = (
"63 -56 OFFCURVE",
"69 -34 OFFCURVE",
"73 -23 CURVE SMOOTH",
"127 116 OFFCURVE",
"357 443 OFFCURVE",
"457 571 CURVE SMOOTH",
"458 572 OFFCURVE",
"461 576 OFFCURVE",
"461 578 CURVE SMOOTH",
"461 581 OFFCURVE",
"457 581 OFFCURVE",
"455 581 CURVE SMOOTH",
"439 581 OFFCURVE",
"405 566 OFFCURVE",
"394 554 CURVE SMOOTH",
"337 482 OFFCURVE",
"39 -5 OFFCURVE",
"39 -48 CURVE SMOOTH",
"39 -55 OFFCURVE",
"42 -56 OFFCURVE",
"48 -58 CURVE"
);
}
);
width = 336;
}
);
note = fraction;
unicode = 2044;
},
{
glyphname = period;
lastChange = "2021-11-02 15:04:40 +0000";
layers = (
{
layerId = "747EDECB-6CB4-4831-9662-77535A1F4B33";
paths = (
{
closed = 1;
nodes = (
"89 -36 OFFCURVE",
"95 -31 OFFCURVE",
"97 -23 CURVE SMOOTH",
"105 3 OFFCURVE",
"113 25 OFFCURVE",
"127 49 CURVE SMOOTH",
"129 53 OFFCURVE",
"131 58 OFFCURVE",
"131 62 CURVE SMOOTH",
"131 67 OFFCURVE",
"129 73 OFFCURVE",
"123 73 CURVE SMOOTH",
"100 73 OFFCURVE",
"59 1 OFFCURVE",
"59 -19 CURVE SMOOTH",
"59 -29 OFFCURVE",
"73 -36 OFFCURVE",
"81 -36 CURVE SMOOTH"
);
}
);
width = 166;
}
);
note = period;
unicode = 002E;
},
{
glyphname = comma;
lastChange = "2021-11-02 15:04:40 +0000";
layers = (
{
layerId = "747EDECB-6CB4-4831-9662-77535A1F4B33";
paths = (
{
closed = 1;
nodes = (
"70 -133 OFFCURVE",
"143 -7 OFFCURVE",
"143 39 CURVE SMOOTH",
"143 51 OFFCURVE",
"135 59 OFFCURVE",
"123 59 CURVE SMOOTH",
"112 59 OFFCURVE",
"107 51 OFFCURVE",
"106 41 CURVE SMOOTH",
"103 4 OFFCURVE",
"95 -33 OFFCURVE",
"76 -66 CURVE SMOOTH",
"68 -80 OFFCURVE",
"26 -117 OFFCURVE",
"26 -127 CURVE SMOOTH",
"26 -131 OFFCURVE",
"28 -133 OFFCURVE",
"32 -133 CURVE SMOOTH"
);
}
);
width = 185;
}
);
note = comma;
unicode = 002C;
},
{
glyphname = colon;
lastChange = "2021-11-02 15:04:40 +0000";
layers = (
{
layerId = "747EDECB-6CB4-4831-9662-77535A1F4B33";
paths = (
{
closed = 1;
nodes = (
"144 202 OFFCURVE",
"150 208 OFFCURVE",
"152 215 CURVE SMOOTH",
"160 241 OFFCURVE",
"169 263 OFFCURVE",
"183 287 CURVE SMOOTH",
"185 290 OFFCURVE",
"187 295 OFFCURVE",
"187 299 CURVE SMOOTH",
"187 304 OFFCURVE",
"184 311 OFFCURVE",
"178 311 CURVE SMOOTH",
"156 311 OFFCURVE",
"115 240 OFFCURVE",
"115 220 CURVE SMOOTH",
"115 209 OFFCURVE",
"127 202 OFFCURVE",
"136 202 CURVE SMOOTH"
);
},
{
closed = 1;
nodes = (
"89 -36 OFFCURVE",
"95 -31 OFFCURVE",
"97 -23 CURVE SMOOTH",
"105 3 OFFCURVE",
"113 25 OFFCURVE",
"127 49 CURVE SMOOTH",
"129 53 OFFCURVE",
"131 58 OFFCURVE",
"131 62 CURVE SMOOTH",
"131 67 OFFCURVE",
"129 73 OFFCURVE",
"123 73 CURVE SMOOTH",
"100 73 OFFCURVE",
"59 1 OFFCURVE",
"59 -19 CURVE SMOOTH",
"59 -29 OFFCURVE",
"73 -36 OFFCURVE",
"81 -36 CURVE SMOOTH"
);
}
);
width = 166;
}
);
note = colon;
unicode = 003A;
},
{
glyphname = semicolon;
lastChange = "2021-11-02 15:04:40 +0000";
layers = (
{
layerId = "747EDECB-6CB4-4831-9662-77535A1F4B33";
paths = (
{
closed = 1;
nodes = (
"24 -134 OFFCURVE",
"97 -10 OFFCURVE",
"97 37 CURVE SMOOTH",
"97 49 OFFCURVE",
"89 57 OFFCURVE",
"77 57 CURVE SMOOTH",
"66 57 OFFCURVE",
"61 49 OFFCURVE",
"60 39 CURVE SMOOTH",
"57 2 OFFCURVE",
"49 -35 OFFCURVE",
"30 -68 CURVE SMOOTH",
"22 -83 OFFCURVE",
"-20 -118 OFFCURVE",
"-20 -129 CURVE SMOOTH",
"-20 -132 OFFCURVE",
"-18 -134 OFFCURVE",
"-15 -134 CURVE SMOOTH"
);
},
{
closed = 1;
nodes = (
"132 197 OFFCURVE",
"138 203 OFFCURVE",
"140 210 CURVE SMOOTH",
"148 236 OFFCURVE",
"156 259 OFFCURVE",
"170 282 CURVE SMOOTH",
"172 286 OFFCURVE",
"174 291 OFFCURVE",
"174 295 CURVE SMOOTH",
"174 300 OFFCURVE",
"172 306 OFFCURVE",
"166 306 CURVE SMOOTH",
"144 306 OFFCURVE",
"103 235 OFFCURVE",
"103 215 CURVE SMOOTH",
"103 204 OFFCURVE",
"115 197 OFFCURVE",
"124 197 CURVE SMOOTH"
);
}
);
width = 121;
}
);
note = semicolon;
unicode = 003B;
},
{
glyphname = ellipsis;
lastChange = "2021-11-02 15:04:40 +0000";
layers = (
{
layerId = "747EDECB-6CB4-4831-9662-77535A1F4B33";
paths = (
{
closed = 1;
nodes = (
"421 -36 OFFCURVE",
"427 -31 OFFCURVE",
"429 -23 CURVE SMOOTH",
"437 3 OFFCURVE",
"438 -1 OFFCURVE",
"452 23 CURVE SMOOTH",
"454 27 OFFCURVE",
"456 32 OFFCURVE",
"456 36 CURVE SMOOTH",
"456 41 OFFCURVE",
"454 47 OFFCURVE",
"448 47 CURVE SMOOTH",
"425 47 OFFCURVE",
"391 1 OFFCURVE",
"391 -19 CURVE SMOOTH",
"391 -29 OFFCURVE",
"405 -36 OFFCURVE",
"413 -36 CURVE SMOOTH"
);
},
{
closed = 1;
nodes = (
"89 -36 OFFCURVE",
"95 -31 OFFCURVE",
"97 -23 CURVE SMOOTH",
"105 3 OFFCURVE",
"106 -1 OFFCURVE",
"120 23 CURVE SMOOTH",
"122 27 OFFCURVE",
"124 32 OFFCURVE",
"124 36 CURVE SMOOTH",
"124 41 OFFCURVE",
"122 47 OFFCURVE",
"116 47 CURVE SMOOTH",
"93 47 OFFCURVE",
"59 1 OFFCURVE",
"59 -19 CURVE SMOOTH",
"59 -29 OFFCURVE",
"73 -36 OFFCURVE",
"81 -36 CURVE SMOOTH"
);
},
{
closed = 1;
nodes = (
"255 -36 OFFCURVE",
"261 -31 OFFCURVE",
"263 -23 CURVE SMOOTH",
"271 3 OFFCURVE",
"272 -1 OFFCURVE",
"286 23 CURVE SMOOTH",
"288 27 OFFCURVE",
"290 32 OFFCURVE",
"290 36 CURVE SMOOTH",
"290 41 OFFCURVE",
"288 47 OFFCURVE",
"282 47 CURVE SMOOTH",
"259 47 OFFCURVE",
"225 1 OFFCURVE",
"225 -19 CURVE SMOOTH",
"225 -29 OFFCURVE",
"239 -36 OFFCURVE",
"247 -36 CURVE SMOOTH"
);
}
);
width = 498;
}
);
note = ellipsis;
unicode = 2026;
},
{
glyphname = exclam;
lastChange = "2021-11-02 15:04:40 +0000";
layers = (
{
layerId = "747EDECB-6CB4-4831-9662-77535A1F4B33";
paths = (
{
closed = 1;
nodes = (
"143 144 OFFCURVE",
"151 146 OFFCURVE",
"153 152 CURVE SMOOTH",
"164 192 OFFCURVE",
"169 236 OFFCURVE",
"179 277 CURVE SMOOTH",
"199 366 OFFCURVE",
"224 453 OFFCURVE",
"252 540 CURVE SMOOTH",
"254 548 OFFCURVE",
"276 614 OFFCURVE",
"276 615 CURVE SMOOTH",
"276 628 OFFCURVE",
"262 631 OFFCURVE",
"251 631 CURVE SMOOTH",
"244 631 OFFCURVE",
"237 629 OFFCURVE",
"232 623 CURVE SMOOTH",
"191 570 OFFCURVE",
"143 234 OFFCURVE",
"129 150 CURVE",
"131 147 OFFCURVE",
"134 144 OFFCURVE",
"138 144 CURVE SMOOTH"
);
},
{
closed = 1;
nodes = (
"130 -26 OFFCURVE",
"135 -20 OFFCURVE",
"137 -13 CURVE SMOOTH",
"140 0 OFFCURVE",
"163 68 OFFCURVE",
"163 69 CURVE SMOOTH",
"163 75 OFFCURVE",
"160 83 OFFCURVE",
"153 83 CURVE SMOOTH",
"130 83 OFFCURVE",
"99 14 OFFCURVE",
"99 -6 CURVE SMOOTH",
"99 -18 OFFCURVE",
"112 -26 OFFCURVE",
"123 -26 CURVE SMOOTH"
);
}
);
width = 213;
}
);
note = exclam;
unicode = 0021;
},
{
glyphname = exclamdown;
lastChange = "2021-11-02 15:04:40 +0000";
layers = (
{
layerId = "747EDECB-6CB4-4831-9662-77535A1F4B33";
paths = (
{
closed = 1;
nodes = (
"19 -390 OFFCURVE",
"26 -389 OFFCURVE",
"30 -383 CURVE SMOOTH",
"63 -341 OFFCURVE",
"134 30 OFFCURVE",
"134 90 CURVE SMOOTH",
"134 95 OFFCURVE",
"128 96 OFFCURVE",
"124 96 CURVE SMOOTH",
"118 96 OFFCURVE",
"111 94 OFFCURVE",
"109 88 CURVE SMOOTH",
"98 48 OFFCURVE",
"93 4 OFFCURVE",
"84 -37 CURVE SMOOTH",
"64 -126 OFFCURVE",
"39 -214 OFFCURVE",
"11 -300 CURVE SMOOTH",
"-13 -375 LINE",
"-13 -388 OFFCURVE",
"2 -390 OFFCURVE",
"12 -390 CURVE SMOOTH"
);
},
{
closed = 1;
nodes = (
"132 158 OFFCURVE",
"163 226 OFFCURVE",
"163 246 CURVE SMOOTH",
"163 258 OFFCURVE",
"150 266 OFFCURVE",
"139 266 CURVE SMOOTH",
"132 266 OFFCURVE",
"127 260 OFFCURVE",
"125 253 CURVE SMOOTH",
"122 241 OFFCURVE",
"99 174 OFFCURVE",
"99 171 CURVE SMOOTH",
"99 165 OFFCURVE",
"102 158 OFFCURVE",
"109 158 CURVE SMOOTH"
);
}
);
width = 213;
}
);
note = exclamdown;
unicode = 00A1;
},
{
glyphname = question;
lastChange = "2021-11-02 15:04:40 +0000";
layers = (
{
layerId = "747EDECB-6CB4-4831-9662-77535A1F4B33";
paths = (
{
closed = 1;
nodes = (
"261 161 OFFCURVE",
"266 172 OFFCURVE",
"268 181 CURVE SMOOTH",
"310 372 OFFCURVE",
"570 400 OFFCURVE",
"611 539 CURVE SMOOTH",
"614 548 OFFCURVE",
"615 557 OFFCURVE",
"615 566 CURVE SMOOTH",
"615 646 OFFCURVE",
"527 683 OFFCURVE",
"459 683 CURVE SMOOTH",
"324 683 OFFCURVE",
"172 602 OFFCURVE",
"123 471 CURVE SMOOTH",
"119 462 OFFCURVE",
"117 452 OFFCURVE",
"117 442 CURVE SMOOTH",
"117 402 OFFCURVE",
"148 383 OFFCURVE",
"185 383 CURVE SMOOTH",
"197 383 OFFCURVE",
"233 385 OFFCURVE",
"238 397 CURVE",
"238 403 OFFCURVE",
"229 404 OFFCURVE",
"225 404 CURVE SMOOTH",
"215 404 OFFCURVE",
"205 400 OFFCURVE",
"194 400 CURVE SMOOTH",
"168 400 OFFCURVE",
"147 417 OFFCURVE",
"147 444 CURVE SMOOTH",
"147 450 OFFCURVE",
"148 456 OFFCURVE",
"150 461 CURVE SMOOTH",
"190 562 OFFCURVE",
"348 650 OFFCURVE",
"454 650 CURVE SMOOTH",
"504 650 OFFCURVE",
"579 627 OFFCURVE",
"579 566 CURVE SMOOTH",
"579 431 OFFCURVE",
"243 370 OFFCURVE",
"243 172 CURVE SMOOTH",
"243 167 OFFCURVE",
"244 161 OFFCURVE",
"250 161 CURVE SMOOTH"
);
},
{
closed = 1;
nodes = (
"203 -28 OFFCURVE",
"209 -23 OFFCURVE",
"211 -16 CURVE SMOOTH",
"219 11 OFFCURVE",
"228 33 OFFCURVE",
"242 57 CURVE SMOOTH",
"244 60 OFFCURVE",
"246 66 OFFCURVE",
"246 70 CURVE SMOOTH",
"246 75 OFFCURVE",
"244 80 OFFCURVE",
"238 80 CURVE SMOOTH",
"215 80 OFFCURVE",
"174 9 OFFCURVE",
"174 -11 CURVE SMOOTH",
"174 -21 OFFCURVE",
"187 -28 OFFCURVE",
"196 -28 CURVE SMOOTH"
);
}
);
width = 459;
}
);
note = question;
unicode = 003F;
},
{
glyphname = questiondown;
lastChange = "2021-11-02 15:04:40 +0000";
layers = (
{
layerId = "747EDECB-6CB4-4831-9662-77535A1F4B33";
paths = (
{
closed = 1;
nodes = (
"173 -371 OFFCURVE",
"326 -290 OFFCURVE",
"376 -160 CURVE SMOOTH",
"380 -151 OFFCURVE",
"382 -141 OFFCURVE",
"382 -131 CURVE SMOOTH",
"382 -90 OFFCURVE",
"351 -71 OFFCURVE",
"314 -71 CURVE SMOOTH",
"302 -71 OFFCURVE",
"266 -73 OFFCURVE",
"260 -85 CURVE",
"261 -91 OFFCURVE",
"269 -92 OFFCURVE",
"273 -92 CURVE SMOOTH",
"284 -92 OFFCURVE",
"294 -88 OFFCURVE",
"305 -88 CURVE SMOOTH",
"331 -88 OFFCURVE",
"351 -105 OFFCURVE",
"351 -132 CURVE SMOOTH",
"351 -138 OFFCURVE",
"350 -144 OFFCURVE",
"348 -149 CURVE SMOOTH",
"308 -249 OFFCURVE",
"151 -338 OFFCURVE",
"45 -338 CURVE SMOOTH",
"-5 -338 OFFCURVE",
"-81 -316 OFFCURVE",
"-81 -254 CURVE SMOOTH",
"-81 -120 OFFCURVE",
"255 -58 OFFCURVE",
"255 139 CURVE SMOOTH",
"255 144 OFFCURVE",
"254 151 OFFCURVE",
"248 151 CURVE SMOOTH",
"237 151 OFFCURVE",
"233 139 OFFCURVE",
"231 131 CURVE SMOOTH",
"189 -67 OFFCURVE",
"-117 -105 OFFCURVE",
"-117 -254 CURVE SMOOTH",
"-117 -334 OFFCURVE",
"-29 -371 OFFCURVE",
"39 -371 CURVE SMOOTH"
);
},
{
closed = 1;
nodes = (
"283 231 OFFCURVE",
"324 302 OFFCURVE",
"324 322 CURVE SMOOTH",
"324 333 OFFCURVE",
"312 340 OFFCURVE",
"303 340 CURVE SMOOTH",
"295 340 OFFCURVE",
"289 334 OFFCURVE",
"287 327 CURVE SMOOTH",
"279 301 OFFCURVE",
"271 278 OFFCURVE",
"257 255 CURVE SMOOTH",
"255 251 OFFCURVE",
"253 246 OFFCURVE",
"253 242 CURVE SMOOTH",
"253 237 OFFCURVE",
"255 231 OFFCURVE",
"261 231 CURVE SMOOTH"
);
}
);
width = 459;
}
);
note = questiondown;
unicode = 00BF;
},
{
glyphname = periodcentered;
lastChange = "2021-11-02 15:04:40 +0000";
layers = (
{
layerId = "747EDECB-6CB4-4831-9662-77535A1F4B33";
paths = (
{
closed = 1;
nodes = (
"164 320 OFFCURVE",
"172 326 OFFCURVE",
"174 336 CURVE",
"183 364 OFFCURVE",
"194 379 OFFCURVE",
"194 393 CURVE SMOOTH",
"194 397 OFFCURVE",
"192 400 OFFCURVE",
"188 400 CURVE SMOOTH",
"167 400 OFFCURVE",
"127 367 OFFCURVE",
"127 342 CURVE SMOOTH",
"127 329 OFFCURVE",
"144 320 OFFCURVE",
"154 320 CURVE SMOOTH"
);
}
);
width = 269;
}
);
note = periodcentered;
unicode = 00B7;
},
{
glyphname = bullet;
lastChange = "2021-11-02 15:04:40 +0000";
layers = (
{
layerId = "747EDECB-6CB4-4831-9662-77535A1F4B33";
paths = (
{
closed = 1;
nodes = (
"318 175 OFFCURVE",
"387 244 OFFCURVE",
"387 329 CURVE SMOOTH",
"387 414 OFFCURVE",
"318 482 OFFCURVE",
"233 482 CURVE SMOOTH",
"148 482 OFFCURVE",
"79 414 OFFCURVE",
"79 329 CURVE SMOOTH",
"79 244 OFFCURVE",
"148 175 OFFCURVE",
"233 175 CURVE SMOOTH"
);
}
);
width = 467;
}
);
note = bullet;
unicode = 2022;
},
{
glyphname = asterisk;
lastChange = "2021-11-02 15:04:42 +0000";
layers = (
{
layerId = "747EDECB-6CB4-4831-9662-77535A1F4B33";
paths = (
{
closed = 1;
nodes = (
"262 317 OFFCURVE",
"267 322 OFFCURVE",
"267 330 CURVE SMOOTH",
"269 358 OFFCURVE",
"267 388 OFFCURVE",
"271 416 CURVE SMOOTH",
"272 427 OFFCURVE",
"276 439 OFFCURVE",
"278 450 CURVE",
"290 435 OFFCURVE",
"356 351 OFFCURVE",
"366 351 CURVE SMOOTH",
"373 351 OFFCURVE",
"379 358 OFFCURVE",
"379 365 CURVE SMOOTH",
"379 369 OFFCURVE",
"312 451 OFFCURVE",
"302 464 CURVE",
"337 459 OFFCURVE",
"391 449 OFFCURVE",
"424 449 CURVE SMOOTH",
"430 449 OFFCURVE",
"434 457 OFFCURVE",
"434 461 CURVE SMOOTH",
"434 468 OFFCURVE",
"430 472 OFFCURVE",
"423 474 CURVE SMOOTH",
"385 484 OFFCURVE",
"344 489 OFFCURVE",
"304 495 CURVE",
"314 506 OFFCURVE",
"382 583 OFFCURVE",
"382 590 CURVE SMOOTH",
"382 597 OFFCURVE",
"376 603 OFFCURVE",
"370 603 CURVE SMOOTH",
"361 603 OFFCURVE",
"296 528 OFFCURVE",
"285 516 CURVE",
"286 529 OFFCURVE",
"286 542 OFFCURVE",
"286 555 CURVE SMOOTH",
"286 581 OFFCURVE",
"285 607 OFFCURVE",
"285 633 CURVE SMOOTH",
"285 640 OFFCURVE",
"280 645 OFFCURVE",
"272 645 CURVE SMOOTH",
"265 645 OFFCURVE",
"260 640 OFFCURVE",
"260 633 CURVE SMOOTH",
"260 611 OFFCURVE",
"261 590 OFFCURVE",
"261 568 CURVE SMOOTH",
"261 552 OFFCURVE",
"260 536 OFFCURVE",
"259 520 CURVE",
"250 532 OFFCURVE",
"213 594 OFFCURVE",
"202 594 CURVE SMOOTH",
"195 594 OFFCURVE",
"188 588 OFFCURVE",
"188 581 CURVE SMOOTH",
"188 580 OFFCURVE",
"229 508 OFFCURVE",
"234 501 CURVE",
"229 501 OFFCURVE",
"217 502 OFFCURVE",
"202 502 CURVE SMOOTH",
"160 502 OFFCURVE",
"92 498 OFFCURVE",
"92 479 CURVE SMOOTH",
"92 472 OFFCURVE",
"96 466 OFFCURVE",
"103 466 CURVE SMOOTH",
"108 466 LINE SMOOTH",
"139 470 OFFCURVE",
"168 477 OFFCURVE",
"200 477 CURVE SMOOTH",
"212 477 OFFCURVE",
"224 477 OFFCURVE",
"236 476 CURVE",
"222 464 OFFCURVE",
"132 401 OFFCURVE",
"132 388 CURVE SMOOTH",
"132 382 OFFCURVE",
"140 379 OFFCURVE",
"145 379 CURVE SMOOTH",
"150 379 OFFCURVE",
"234 436 OFFCURVE",
"245 443 CURVE",
"242 330 LINE SMOOTH",
"242 322 OFFCURVE",
"247 317 OFFCURVE",
"254 317 CURVE SMOOTH"
);
}
);
width = 559;
}
);
note = asterisk;
unicode = 002A;
},
{
glyphname = numbersign;
lastChange = "2021-11-02 15:04:42 +0000";
layers = (
{
layerId = "747EDECB-6CB4-4831-9662-77535A1F4B33";
paths = (
{
closed = 1;
nodes = (
"270 24 OFFCURVE",
"321 271 OFFCURVE",
"326 315 CURVE",
"387 317 OFFCURVE",
"447 318 OFFCURVE",
"507 319 CURVE",
"509 241 OFFCURVE",
"510 144 OFFCURVE",
"533 70 CURVE",
"534 64 OFFCURVE",
"538 60 OFFCURVE",
"545 60 CURVE SMOOTH",
"555 60 OFFCURVE",
"557 67 OFFCURVE",
"557 75 CURVE SMOOTH",
"557 100 OFFCURVE",
"547 131 OFFCURVE",
"544 157 CURVE SMOOTH",
"538 211 OFFCURVE",
"535 265 OFFCURVE",
"534 319 CURVE",
"609 319 OFFCURVE",
"683 317 OFFCURVE",
"758 311 CURVE SMOOTH",
"793 308 OFFCURVE",
"832 299 OFFCURVE",
"867 299 CURVE SMOOTH",
"875 299 OFFCURVE",
"881 302 OFFCURVE",
"881 311 CURVE SMOOTH",
"881 318 OFFCURVE",
"877 322 OFFCURVE",
"871 323 CURVE SMOOTH",
"781 346 OFFCURVE",
"629 347 OFFCURVE",
"534 348 CURVE",
"534 355 LINE SMOOTH",
"534 410 OFFCURVE",
"536 466 OFFCURVE",
"537 521 CURVE",
"624 523 OFFCURVE",
"710 525 OFFCURVE",
"796 525 CURVE SMOOTH",
"803 525 OFFCURVE",
"808 531 OFFCURVE",
"808 538 CURVE SMOOTH",
"808 545 OFFCURVE",
"803 550 OFFCURVE",
"796 550 CURVE SMOOTH",
"710 550 OFFCURVE",
"624 549 OFFCURVE",
"538 548 CURVE",
"540 602 OFFCURVE",
"542 657 OFFCURVE",
"542 711 CURVE SMOOTH",
"542 719 OFFCURVE",
"533 723 OFFCURVE",
"526 723 CURVE SMOOTH",
"519 723 OFFCURVE",
"509 719 OFFCURVE",
"509 710 CURVE SMOOTH",
"509 656 OFFCURVE",
"508 602 OFFCURVE",
"507 548 CURVE",
"328 546 LINE",
"324 598 OFFCURVE",
"326 657 OFFCURVE",
"317 708 CURVE SMOOTH",
"316 714 OFFCURVE",
"310 717 OFFCURVE",
"304 717 CURVE SMOOTH",
"294 717 OFFCURVE",
"281 711 OFFCURVE",
"281 699 CURVE SMOOTH",
"281 664 OFFCURVE",
"297 590 OFFCURVE",
"300 545 CURVE",
"212 544 OFFCURVE",
"123 544 OFFCURVE",
"35 544 CURVE SMOOTH",
"24 544 OFFCURVE",
"18 530 OFFCURVE",
"18 521 CURVE SMOOTH",
"18 515 OFFCURVE",
"21 508 OFFCURVE",
"28 508 CURVE SMOOTH",
"119 508 OFFCURVE",
"210 510 OFFCURVE",
"302 513 CURVE",
"302 467 LINE SMOOTH",
"303 427 OFFCURVE",
"301 387 OFFCURVE",
"297 348 CURVE",
"247 347 OFFCURVE",
"71 348 OFFCURVE",
"33 339 CURVE SMOOTH",
"23 337 OFFCURVE",
"20 328 OFFCURVE",
"20 319 CURVE SMOOTH",
"20 311 OFFCURVE",
"23 302 OFFCURVE",
"32 302 CURVE SMOOTH",
"118 302 OFFCURVE",
"206 310 OFFCURVE",
"293 313 CURVE",
"285 247 OFFCURVE",
"272 181 OFFCURVE",
"253 117 CURVE SMOOTH",
"246 91 OFFCURVE",
"233 64 OFFCURVE",
"228 38 CURVE SMOOTH",
"227 35 OFFCURVE",
"227 34 OFFCURVE",
"227 30 CURVE SMOOTH",
"227 26 OFFCURVE",
"236 24 OFFCURVE",
"239 24 CURVE SMOOTH"
);
},
{
closed = 1;
nodes = (
"332 372 OFFCURVE",
"332 395 OFFCURVE",
"332 419 CURVE SMOOTH",
"332 450 OFFCURVE",
"331 482 OFFCURVE",
"330 514 CURVE",
"507 520 LINE",
"506 480 OFFCURVE",
"506 439 OFFCURVE",
"506 399 CURVE SMOOTH",
"506 349 LINE",
"486 349 OFFCURVE",
"467 349 OFFCURVE",
"447 349 CURVE SMOOTH",
"330 349 LINE"
);
}
);
width = 884;
}
);
note = numbersign;
unicode = 0023;
},
{
glyphname = slash;
lastChange = "2021-11-02 15:04:40 +0000";
layers = (
{
layerId = "747EDECB-6CB4-4831-9662-77535A1F4B33";
paths = (
{
closed = 1;
nodes = (
"63 -56 OFFCURVE",
"69 -34 OFFCURVE",
"73 -23 CURVE SMOOTH",
"127 116 OFFCURVE",
"357 443 OFFCURVE",
"457 571 CURVE SMOOTH",
"458 572 OFFCURVE",
"461 576 OFFCURVE",
"461 578 CURVE SMOOTH",
"461 581 OFFCURVE",
"457 581 OFFCURVE",
"455 581 CURVE SMOOTH",
"439 581 OFFCURVE",
"405 566 OFFCURVE",
"394 554 CURVE SMOOTH",
"337 482 OFFCURVE",
"39 -5 OFFCURVE",
"39 -48 CURVE SMOOTH",
"39 -55 OFFCURVE",
"42 -56 OFFCURVE",
"48 -58 CURVE"
);
}
);
width = 336;
}
);
note = slash;
unicode = 002F;
},
{
glyphname = backslash;
lastChange = "2021-11-02 15:04:42 +0000";
layers = (
{
layerId = "747EDECB-6CB4-4831-9662-77535A1F4B33";
paths = (
{
closed = 1;
nodes = (
"290 -89 OFFCURVE",
"294 -89 OFFCURVE",
"294 -75 CURVE SMOOTH",
"294 0 OFFCURVE",
"151 512 OFFCURVE",
"117 594 CURVE SMOOTH",
"110 609 OFFCURVE",
"81 633 OFFCURVE",
"66 637 CURVE",
"64 638 OFFCURVE",
"60 639 OFFCURVE",
"59 636 CURVE",
"59 634 OFFCURVE",
"60 629 OFFCURVE",
"61 628 CURVE",
"122 477 OFFCURVE",
"253 100 OFFCURVE",
"267 -49 CURVE SMOOTH",
"268 -60 OFFCURVE",
"268 -83 OFFCURVE",
"281 -89 CURVE"
);
}
);
width = 342;
}
);
note = backslash;
unicode = 005C;
},
{
glyphname = parenleft;
lastChange = "2021-11-02 15:04:40 +0000";
layers = (
{
layerId = "747EDECB-6CB4-4831-9662-77535A1F4B33";
paths = (
{
closed = 1;
nodes = (
"156 -43 OFFCURVE",
"166 -38 OFFCURVE",
"166 -28 CURVE SMOOTH",
"166 -26 OFFCURVE",
"116 55 OFFCURVE",
"110 73 CURVE SMOOTH",
"91 127 OFFCURVE",
"82 184 OFFCURVE",
"82 241 CURVE SMOOTH",
"82 274 OFFCURVE",
"85 308 OFFCURVE",
"94 340 CURVE SMOOTH",
"130 473 OFFCURVE",
"164 532 OFFCURVE",
"252 635 CURVE SMOOTH",
"254 638 OFFCURVE",
"258 644 OFFCURVE",
"258 648 CURVE SMOOTH",
"258 653 OFFCURVE",
"254 656 OFFCURVE",
"249 656 CURVE SMOOTH",
"246 656 OFFCURVE",
"243 655 OFFCURVE",
"240 654 CURVE",
"176 621 OFFCURVE",
"81 424 OFFCURVE",
"63 356 CURVE SMOOTH",
"51 313 OFFCURVE",
"46 267 OFFCURVE",
"46 222 CURVE SMOOTH",
"46 130 OFFCURVE",
"70 39 OFFCURVE",
"129 -33 CURVE SMOOTH",
"134 -39 OFFCURVE",
"139 -43 OFFCURVE",
"147 -43 CURVE SMOOTH"
);
}
);
width = 250;
}
);
note = parenleft;
unicode = 0028;
},
{
glyphname = parenright;
lastChange = "2021-11-02 15:04:40 +0000";
layers = (
{
layerId = "747EDECB-6CB4-4831-9662-77535A1F4B33";
paths = (
{
closed = 1;
nodes = (
"99 -40 OFFCURVE",
"213 212 OFFCURVE",
"227 260 CURVE SMOOTH",
"239 301 OFFCURVE",
"243 344 OFFCURVE",
"243 387 CURVE SMOOTH",
"243 477 OFFCURVE",
"221 578 OFFCURVE",
"163 649 CURVE SMOOTH",
"158 655 OFFCURVE",
"152 659 OFFCURVE",
"144 659 CURVE SMOOTH",
"136 659 OFFCURVE",
"123 654 OFFCURVE",
"123 643 CURVE",
"123 643 OFFCURVE",
"171 564 OFFCURVE",
"179 543 CURVE SMOOTH",
"198 489 OFFCURVE",
"208 431 OFFCURVE",
"208 374 CURVE SMOOTH",
"208 341 OFFCURVE",
"205 308 OFFCURVE",
"196 276 CURVE SMOOTH",
"159 143 OFFCURVE",
"125 84 OFFCURVE",
"37 -19 CURVE SMOOTH",
"35 -21 OFFCURVE",
"32 -26 OFFCURVE",
"32 -30 CURVE SMOOTH",
"32 -36 OFFCURVE",
"37 -40 OFFCURVE",
"43 -40 CURVE SMOOTH"
);
}
);
width = 264;
}
);
note = parenright;
unicode = 0029;
},
{
glyphname = braceleft;
lastChange = "2021-11-02 15:04:40 +0000";
layers = (
{
layerId = "747EDECB-6CB4-4831-9662-77535A1F4B33";
paths = (
{
closed = 1;
nodes = (
"129 -73 OFFCURVE",
"161 -73 OFFCURVE",
"161 -62 CURVE SMOOTH",
"161 -54 OFFCURVE",
"145 -52 OFFCURVE",
"141 -51 CURVE SMOOTH",
"90 -39 OFFCURVE",
"43 -24 OFFCURVE",
"43 37 CURVE SMOOTH",
"43 112 OFFCURVE",
"98 179 OFFCURVE",
"98 254 CURVE SMOOTH",
"98 283 OFFCURVE",
"69 311 OFFCURVE",
"46 325 CURVE",
"95 353 OFFCURVE",
"145 385 OFFCURVE",
"165 441 CURVE SMOOTH",
"192 518 OFFCURVE",
"219 621 OFFCURVE",
"310 640 CURVE SMOOTH",
"329 644 OFFCURVE",
"357 652 OFFCURVE",
"365 672 CURVE",
"259 670 OFFCURVE",
"233 628 OFFCURVE",
"182 543 CURVE SMOOTH",
"158 502 OFFCURVE",
"135 462 OFFCURVE",
"109 422 CURVE SMOOTH",
"77 372 OFFCURVE",
"-5 325 OFFCURVE",
"-8 316 CURVE",
"25 303 OFFCURVE",
"55 259 OFFCURVE",
"55 224 CURVE SMOOTH",
"55 160 OFFCURVE",
"13 92 OFFCURVE",
"13 23 CURVE SMOOTH",
"13 -45 OFFCURVE",
"59 -73 OFFCURVE",
"124 -73 CURVE SMOOTH"
);
}
);
width = 268;
}
);
note = braceleft;
unicode = 007B;
},
{
glyphname = braceright;
lastChange = "2021-11-02 15:04:40 +0000";
layers = (
{
layerId = "747EDECB-6CB4-4831-9662-77535A1F4B33";
paths = (
{
closed = 1;
nodes = (
"178 -87 OFFCURVE",
"196 -41 OFFCURVE",
"229 53 CURVE SMOOTH",
"245 97 OFFCURVE",
"260 141 OFFCURVE",
"278 185 CURVE SMOOTH",
"300 241 OFFCURVE",
"371 302 OFFCURVE",
"372 312 CURVE",
"326 321 OFFCURVE",
"293 366 OFFCURVE",
"293 412 CURVE SMOOTH",
"293 456 OFFCURVE",
"300 501 OFFCURVE",
"300 545 CURVE SMOOTH",
"300 614 OFFCURVE",
"283 671 OFFCURVE",
"203 671 CURVE SMOOTH",
"191 671 OFFCURVE",
"135 667 OFFCURVE",
"135 651 CURVE SMOOTH",
"135 643 OFFCURVE",
"153 644 OFFCURVE",
"156 643 CURVE",
"228 641 OFFCURVE",
"272 627 OFFCURVE",
"272 547 CURVE SMOOTH",
"272 491 OFFCURVE",
"254 437 OFFCURVE",
"254 381 CURVE SMOOTH",
"254 334 OFFCURVE",
"278 309 OFFCURVE",
"321 293 CURVE",
"279 256 OFFCURVE",
"235 215 OFFCURVE",
"227 156 CURVE SMOOTH",
"215 78 OFFCURVE",
"208 -33 OFFCURVE",
"122 -67 CURVE SMOOTH",
"104 -74 OFFCURVE",
"78 -88 OFFCURVE",
"74 -109 CURVE"
);
}
);
width = 268;
}
);
note = braceright;
unicode = 007D;
},
{
glyphname = bracketleft;
lastChange = "2021-11-02 15:04:42 +0000";
layers = (
{
layerId = "747EDECB-6CB4-4831-9662-77535A1F4B33";
paths = (
{
closed = 1;
nodes = (
"157 -58 OFFCURVE",
"174 -55 OFFCURVE",
"180 -54 CURVE SMOOTH",
"197 -50 OFFCURVE",
"214 -43 OFFCURVE",
"225 -29 CURVE",
"236 -18 OFFCURVE",
"202 -27 OFFCURVE",
"198 -28 CURVE SMOOTH",
"180 -32 OFFCURVE",
"161 -33 OFFCURVE",
"141 -33 CURVE SMOOTH",
"130 -33 OFFCURVE",
"118 -33 OFFCURVE",
"107 -32 CURVE SMOOTH",
"98 -30 OFFCURVE",
"89 -29 OFFCURVE",
"80 -25 CURVE",
"80 -25 OFFCURVE",
"81 574 OFFCURVE",
"82 655 CURVE",
"93 658 OFFCURVE",
"109 659 OFFCURVE",
"118 660 CURVE SMOOTH",
"131 661 OFFCURVE",
"144 662 OFFCURVE",
"157 662 CURVE SMOOTH",
"175 662 OFFCURVE",
"193 661 OFFCURVE",
"209 657 CURVE",
"211 656 OFFCURVE",
"222 652 OFFCURVE",
"231 652 CURVE SMOOTH",
"234 652 OFFCURVE",
"237 653 OFFCURVE",
"239 655 CURVE",
"240 657 OFFCURVE",
"238 657 OFFCURVE",
"237 658 CURVE SMOOTH",
"225 670 OFFCURVE",
"208 676 OFFCURVE",
"191 679 CURVE SMOOTH",
"184 681 OFFCURVE",
"163 683 OFFCURVE",
"138 683 CURVE SMOOTH",
"103 683 OFFCURVE",
"63 678 OFFCURVE",
"52 662 CURVE",
"54 599 OFFCURVE",
"55 452 OFFCURVE",
"55 309 CURVE SMOOTH",
"55 138 OFFCURVE",
"54 -25 OFFCURVE",
"54 -25 CURVE",
"54 -26 OFFCURVE",
"55 -27 OFFCURVE",
"55 -28 CURVE",
"66 -52 OFFCURVE",
"106 -58 OFFCURVE",
"138 -58 CURVE SMOOTH"
);
}
);
width = 285;
}
);
note = bracketleft;
unicode = 005B;
},
{
glyphname = bracketright;
lastChange = "2021-11-02 15:04:42 +0000";
layers = (
{
layerId = "747EDECB-6CB4-4831-9662-77535A1F4B33";
paths = (
{
closed = 1;
nodes = (
"186 -58 OFFCURVE",
"226 -52 OFFCURVE",
"237 -28 CURVE",
"237 -27 OFFCURVE",
"238 -26 OFFCURVE",
"238 -25 CURVE",
"238 -25 OFFCURVE",
"237 138 OFFCURVE",
"237 309 CURVE SMOOTH",
"237 452 OFFCURVE",
"238 599 OFFCURVE",
"240 662 CURVE",
"229 678 OFFCURVE",
"189 683 OFFCURVE",
"154 683 CURVE SMOOTH",
"129 683 OFFCURVE",
"108 681 OFFCURVE",
"101 679 CURVE SMOOTH",
"84 676 OFFCURVE",
"67 670 OFFCURVE",
"55 658 CURVE SMOOTH",
"54 657 OFFCURVE",
"52 657 OFFCURVE",
"53 655 CURVE",
"55 653 OFFCURVE",
"58 652 OFFCURVE",
"61 652 CURVE SMOOTH",
"70 652 OFFCURVE",
"81 656 OFFCURVE",
"83 657 CURVE",
"99 661 OFFCURVE",
"117 662 OFFCURVE",
"135 662 CURVE SMOOTH",
"148 662 OFFCURVE",
"161 661 OFFCURVE",
"174 660 CURVE SMOOTH",
"183 659 OFFCURVE",
"199 658 OFFCURVE",
"210 655 CURVE",
"211 574 OFFCURVE",
"212 -25 OFFCURVE",
"212 -25 CURVE",
"203 -29 OFFCURVE",
"194 -30 OFFCURVE",
"185 -32 CURVE SMOOTH",
"174 -33 OFFCURVE",
"162 -33 OFFCURVE",
"151 -33 CURVE SMOOTH",
"131 -33 OFFCURVE",
"112 -32 OFFCURVE",
"94 -28 CURVE",
"92 -27 OFFCURVE",
"78 -24 OFFCURVE",
"70 -24 CURVE SMOOTH",
"67 -24 OFFCURVE",
"65 -24 OFFCURVE",
"65 -26 CURVE",
"65 -26 OFFCURVE",
"65 -27 OFFCURVE",
"67 -29 CURVE SMOOTH",
"78 -43 OFFCURVE",
"95 -50 OFFCURVE",
"112 -54 CURVE SMOOTH",
"118 -55 OFFCURVE",
"135 -58 OFFCURVE",
"154 -58 CURVE SMOOTH"
);
}
);
width = 290;
}
);
note = bracketright;
unicode = 005D;
},
{
glyphname = hyphen;
lastChange = "2021-11-02 15:04:42 +0000";
layers = (
{
layerId = "747EDECB-6CB4-4831-9662-77535A1F4B33";
paths = (
{
closed = 1;
nodes = (
"137 199 OFFCURVE",
"140 201 OFFCURVE",
"143 203 CURVE SMOOTH",
"163 218 OFFCURVE",
"186 226 OFFCURVE",
"210 231 CURVE SMOOTH",
"264 243 OFFCURVE",
"324 252 OFFCURVE",
"380 252 CURVE SMOOTH",
"384 252 OFFCURVE",
"400 250 OFFCURVE",
"413 250 CURVE SMOOTH",
"426 250 OFFCURVE",
"437 252 OFFCURVE",
"437 257 CURVE SMOOTH",
"437 260 OFFCURVE",
"432 261 OFFCURVE",
"430 262 CURVE SMOOTH",
"397 273 OFFCURVE",
"360 276 OFFCURVE",
"325 276 CURVE SMOOTH",
"292 276 OFFCURVE",
"116 259 OFFCURVE",
"116 219 CURVE SMOOTH",
"116 210 OFFCURVE",
"124 199 OFFCURVE",
"134 199 CURVE SMOOTH"
);
}
);
width = 397;
}
);
note = hyphen;
unicode = 002D;
},
{
glyphname = endash;
lastChange = "2021-11-02 15:04:42 +0000";
layers = (
{
layerId = "747EDECB-6CB4-4831-9662-77535A1F4B33";
paths = (
{
closed = 1;
nodes = (
"150 199 OFFCURVE",
"154 201 OFFCURVE",
"158 203 CURVE SMOOTH",
"184 219 OFFCURVE",
"212 226 OFFCURVE",
"242 231 CURVE SMOOTH",
"311 243 OFFCURVE",
"384 252 OFFCURVE",
"454 252 CURVE SMOOTH",
"460 252 OFFCURVE",
"479 250 OFFCURVE",
"495 250 CURVE SMOOTH",
"511 250 OFFCURVE",
"524 252 OFFCURVE",
"524 257 CURVE SMOOTH",
"524 260 OFFCURVE",
"518 262 OFFCURVE",
"516 262 CURVE",
"474 273 OFFCURVE",
"428 276 OFFCURVE",
"385 276 CURVE SMOOTH",
"346 276 OFFCURVE",
"123 259 OFFCURVE",
"123 219 CURVE SMOOTH",
"123 207 OFFCURVE",
"135 199 OFFCURVE",
"146 199 CURVE SMOOTH"
);
}
);
width = 513;
}
);
note = endash;
unicode = 2013;
},
{
glyphname = emdash;
lastChange = "2021-11-02 15:04:40 +0000";
layers = (
{
layerId = "747EDECB-6CB4-4831-9662-77535A1F4B33";
paths = (
{
closed = 1;
nodes = (
"147 199 OFFCURVE",
"244 228 OFFCURVE",
"266 231 CURVE SMOOTH",
"353 243 OFFCURVE",
"443 252 OFFCURVE",
"531 252 CURVE SMOOTH",
"547 252 OFFCURVE",
"562 250 OFFCURVE",
"578 250 CURVE SMOOTH",
"583 250 OFFCURVE",
"619 250 OFFCURVE",
"619 257 CURVE SMOOTH",
"619 260 OFFCURVE",
"609 262 OFFCURVE",
"608 262 CURVE SMOOTH",
"556 273 OFFCURVE",
"499 276 OFFCURVE",
"446 276 CURVE SMOOTH",
"393 276 OFFCURVE",
"117 259 OFFCURVE",
"117 219 CURVE SMOOTH",
"117 206 OFFCURVE",
"136 199 OFFCURVE",
"146 199 CURVE SMOOTH"
);
}
);
width = 605;
}
);
note = emdash;
unicode = 2014;
},
{
glyphname = underscore;
lastChange = "2021-11-02 15:04:40 +0000";
layers = (
{
layerId = "747EDECB-6CB4-4831-9662-77535A1F4B33";
paths = (
{
closed = 1;
nodes = (
"604 -82 LINE",
"604 -54 LINE",
"0 -54 LINE",
"0 -82 LINE"
);
}
);
width = 605;
}
);
note = underscore;
unicode = 005F;
},
{
glyphname = quotesinglbase;
lastChange = "2021-11-02 15:04:40 +0000";
layers = (
{
layerId = "747EDECB-6CB4-4831-9662-77535A1F4B33";
paths = (
{
closed = 1;
nodes = (
"50 -105 OFFCURVE",
"53 -102 OFFCURVE",
"56 -100 CURVE SMOOTH",
"107 -57 OFFCURVE",
"127 20 OFFCURVE",
"127 83 CURVE SMOOTH",
"127 93 OFFCURVE",
"117 100 OFFCURVE",
"108 100 CURVE SMOOTH",
"99 100 OFFCURVE",
"91 93 OFFCURVE",
"91 83 CURVE SMOOTH",
"91 42 OFFCURVE",
"93 8 OFFCURVE",
"79 -32 CURVE SMOOTH",
"73 -50 OFFCURVE",
"40 -88 OFFCURVE",
"40 -100 CURVE SMOOTH",
"40 -103 OFFCURVE",
"43 -105 OFFCURVE",
"46 -105 CURVE SMOOTH"
);
}
);
width = 187;
}
);
note = quotesinglbase;
unicode = 201A;
},
{
glyphname = quotedblbase;
lastChange = "2021-11-02 15:04:42 +0000";
layers = (
{
layerId = "747EDECB-6CB4-4831-9662-77535A1F4B33";
paths = (
{
closed = 1;
nodes = (
"149 -105 OFFCURVE",
"152 -102 OFFCURVE",
"155 -100 CURVE SMOOTH",
"205 -56 OFFCURVE",
"226 19 OFFCURVE",
"226 83 CURVE SMOOTH",
"226 93 OFFCURVE",
"216 100 OFFCURVE",
"207 100 CURVE SMOOTH",
"198 100 OFFCURVE",
"190 93 OFFCURVE",
"190 83 CURVE SMOOTH",
"190 48 LINE SMOOTH",
"190 22 OFFCURVE",
"189 -4 OFFCURVE",
"179 -32 CURVE SMOOTH",
"173 -49 OFFCURVE",
"139 -87 OFFCURVE",
"139 -100 CURVE SMOOTH",
"139 -103 OFFCURVE",
"142 -105 OFFCURVE",
"145 -105 CURVE SMOOTH"
);
},
{
closed = 1;
nodes = (
"50 -105 OFFCURVE",
"53 -102 OFFCURVE",
"56 -100 CURVE SMOOTH",
"107 -57 OFFCURVE",
"127 20 OFFCURVE",
"127 83 CURVE SMOOTH",
"127 93 OFFCURVE",
"117 100 OFFCURVE",
"108 100 CURVE SMOOTH",
"99 100 OFFCURVE",
"91 93 OFFCURVE",
"91 83 CURVE SMOOTH",
"91 42 OFFCURVE",
"93 8 OFFCURVE",
"79 -32 CURVE SMOOTH",
"73 -50 OFFCURVE",
"40 -88 OFFCURVE",
"40 -100 CURVE SMOOTH",
"40 -103 OFFCURVE",
"43 -105 OFFCURVE",
"46 -105 CURVE SMOOTH"
);
}
);
width = 277;
}
);
note = quotedblbase;
unicode = 201E;
},
{
glyphname = quotedblleft;
lastChange = "2021-11-02 15:04:42 +0000";
layers = (
{
layerId = "747EDECB-6CB4-4831-9662-77535A1F4B33";
paths = (
{
closed = 1;
nodes = (
"165 433 OFFCURVE",
"172 440 OFFCURVE",
"172 450 CURVE",
"172 450 LINE",
"172 485 LINE SMOOTH",
"172 511 OFFCURVE",
"173 537 OFFCURVE",
"183 564 CURVE SMOOTH",
"189 582 OFFCURVE",
"223 619 OFFCURVE",
"223 632 CURVE SMOOTH",
"223 635 OFFCURVE",
"221 637 OFFCURVE",
"217 637 CURVE SMOOTH",
"213 637 OFFCURVE",
"210 635 OFFCURVE",
"207 632 CURVE SMOOTH",
"158 589 OFFCURVE",
"136 517 OFFCURVE",
"136 454 CURVE SMOOTH",
"136 442 OFFCURVE",
"142 433 OFFCURVE",
"155 433 CURVE SMOOTH"
);
},
{
closed = 1;
nodes = (
"66 433 OFFCURVE",
"73 440 OFFCURVE",
"73 450 CURVE",
"73 450 LINE",
"73 485 LINE SMOOTH",
"73 511 OFFCURVE",
"74 537 OFFCURVE",
"84 564 CURVE SMOOTH",
"90 581 OFFCURVE",
"124 621 OFFCURVE",
"124 632 CURVE SMOOTH",
"124 635 OFFCURVE",
"121 637 OFFCURVE",
"118 637 CURVE SMOOTH",
"114 637 OFFCURVE",
"111 635 OFFCURVE",
"108 632 CURVE SMOOTH",
"59 587 OFFCURVE",
"37 518 OFFCURVE",
"37 454 CURVE SMOOTH",
"37 442 OFFCURVE",
"43 433 OFFCURVE",
"56 433 CURVE SMOOTH"
);
}
);
width = 277;
}
);
note = quotedblleft;
unicode = 201C;
},
{
glyphname = quotedblright;
lastChange = "2021-11-02 15:04:42 +0000";
layers = (
{
layerId = "747EDECB-6CB4-4831-9662-77535A1F4B33";
paths = (
{
closed = 1;
nodes = (
"173 438 OFFCURVE",
"176 441 OFFCURVE",
"179 443 CURVE SMOOTH",
"229 487 OFFCURVE",
"250 562 OFFCURVE",
"250 626 CURVE SMOOTH",
"250 636 OFFCURVE",
"240 643 OFFCURVE",
"231 643 CURVE SMOOTH",
"222 643 OFFCURVE",
"214 636 OFFCURVE",
"214 626 CURVE SMOOTH",
"214 591 LINE SMOOTH",
"214 565 OFFCURVE",
"213 539 OFFCURVE",
"203 511 CURVE SMOOTH",
"197 494 OFFCURVE",
"163 456 OFFCURVE",
"163 443 CURVE SMOOTH",
"163 440 OFFCURVE",
"166 438 OFFCURVE",
"169 438 CURVE SMOOTH"
);
},
{
closed = 1;
nodes = (
"74 438 OFFCURVE",
"77 441 OFFCURVE",
"80 443 CURVE SMOOTH",
"131 486 OFFCURVE",
"151 563 OFFCURVE",
"151 626 CURVE SMOOTH",
"151 636 OFFCURVE",
"141 643 OFFCURVE",
"132 643 CURVE SMOOTH",
"123 643 OFFCURVE",
"115 636 OFFCURVE",
"115 626 CURVE SMOOTH",
"115 585 OFFCURVE",
"117 551 OFFCURVE",
"103 511 CURVE SMOOTH",
"97 493 OFFCURVE",
"64 455 OFFCURVE",
"64 443 CURVE SMOOTH",
"64 440 OFFCURVE",
"67 438 OFFCURVE",
"70 438 CURVE SMOOTH"
);
}
);
width = 277;
}
);
note = quotedblright;
unicode = 201D;
},
{
glyphname = quoteleft;
lastChange = "2021-11-02 15:04:42 +0000";
layers = (
{
layerId = "747EDECB-6CB4-4831-9662-77535A1F4B33";
paths = (
{
closed = 1;
nodes = (
"72 427 OFFCURVE",
"80 434 OFFCURVE",
"80 444 CURVE",
"80 444 LINE",
"80 479 LINE SMOOTH",
"80 505 OFFCURVE",
"81 531 OFFCURVE",
"91 559 CURVE SMOOTH",
"97 576 OFFCURVE",
"131 615 OFFCURVE",
"131 627 CURVE SMOOTH",
"131 630 OFFCURVE",
"129 631 OFFCURVE",
"126 631 CURVE SMOOTH",
"121 631 OFFCURVE",
"118 629 OFFCURVE",
"115 626 CURVE SMOOTH",
"68 584 OFFCURVE",
"43 510 OFFCURVE",
"43 448 CURVE SMOOTH",
"43 436 OFFCURVE",
"49 427 OFFCURVE",
"62 427 CURVE SMOOTH"
);
}
);
width = 185;
}
);
note = quoteleft;
unicode = 2018;
},
{
glyphname = quoteright;
lastChange = "2021-11-02 15:04:40 +0000";
layers = (
{
layerId = "747EDECB-6CB4-4831-9662-77535A1F4B33";
paths = (
{
closed = 1;
nodes = (
"74 438 OFFCURVE",
"77 441 OFFCURVE",
"80 443 CURVE SMOOTH",
"131 486 OFFCURVE",
"151 563 OFFCURVE",
"151 626 CURVE SMOOTH",
"151 636 OFFCURVE",
"141 643 OFFCURVE",
"132 643 CURVE SMOOTH",
"123 643 OFFCURVE",
"115 636 OFFCURVE",
"115 626 CURVE SMOOTH",
"115 585 OFFCURVE",
"117 551 OFFCURVE",
"103 511 CURVE SMOOTH",
"97 493 OFFCURVE",
"64 455 OFFCURVE",
"64 443 CURVE SMOOTH",
"64 440 OFFCURVE",
"67 438 OFFCURVE",
"70 438 CURVE SMOOTH"
);
}
);
width = 185;
}
);
note = quoteright;
unicode = 2019;
},
{
glyphname = guillemotleft;
lastChange = "2021-11-02 15:04:42 +0000";
layers = (
{
layerId = "747EDECB-6CB4-4831-9662-77535A1F4B33";
paths = (
{
closed = 1;
nodes = (
"407 84 OFFCURVE",
"410 87 OFFCURVE",
"410 92 CURVE SMOOTH",
"410 96 OFFCURVE",
"408 100 OFFCURVE",
"405 106 CURVE SMOOTH",
"401 113 OFFCURVE",
"270 265 OFFCURVE",
"270 288 CURVE SMOOTH",
"270 323 OFFCURVE",
"391 418 OFFCURVE",
"431 453 CURVE SMOOTH",
"437 459 OFFCURVE",
"441 467 OFFCURVE",
"441 473 CURVE SMOOTH",
"441 481 OFFCURVE",
"436 487 OFFCURVE",
"427 487 CURVE SMOOTH",
"419 487 OFFCURVE",
"406 481 OFFCURVE",
"389 466 CURVE SMOOTH",
"366 444 OFFCURVE",
"226 348 OFFCURVE",
"226 304 CURVE SMOOTH",
"226 249 OFFCURVE",
"380 98 OFFCURVE",
"384 94 CURVE SMOOTH",
"391 87 OFFCURVE",
"397 84 OFFCURVE",
"402 84 CURVE SMOOTH"
);
},
{
closed = 1;
nodes = (
"270 84 OFFCURVE",
"273 87 OFFCURVE",
"273 92 CURVE SMOOTH",
"273 96 OFFCURVE",
"271 100 OFFCURVE",
"268 106 CURVE SMOOTH",
"264 113 OFFCURVE",
"133 265 OFFCURVE",
"133 288 CURVE SMOOTH",
"133 323 OFFCURVE",
"254 418 OFFCURVE",
"294 453 CURVE SMOOTH",
"300 459 OFFCURVE",
"304 467 OFFCURVE",
"304 473 CURVE SMOOTH",
"304 481 OFFCURVE",
"299 487 OFFCURVE",
"290 487 CURVE SMOOTH",
"282 487 OFFCURVE",
"269 481 OFFCURVE",
"252 466 CURVE SMOOTH",
"229 444 OFFCURVE",
"89 348 OFFCURVE",
"89 304 CURVE SMOOTH",
"89 249 OFFCURVE",
"243 98 OFFCURVE",
"247 94 CURVE SMOOTH",
"254 87 OFFCURVE",
"260 84 OFFCURVE",
"265 84 CURVE SMOOTH"
);
}
);
width = 472;
}
);
note = guillemotleft;
unicode = 00AB;
},
